%TF.GenerationSoftware,KiCad,Pcbnew,(5.99.0-2611-ga723fba70-dirty)*%
%TF.CreationDate,2020-08-14T04:19:11+02:00*%
%TF.ProjectId,rundtisch-nc,72756e64-7469-4736-9368-2d6e632e6b69,rev?*%
%TF.SameCoordinates,Original*%
%TF.FileFunction,Legend,Bot*%
%TF.FilePolarity,Positive*%
%FSLAX46Y46*%
G04 Gerber Fmt 4.6, Leading zero omitted, Abs format (unit mm)*
G04 Created by KiCad (PCBNEW (5.99.0-2611-ga723fba70-dirty)) date 2020-08-14 04:19:11*
%MOMM*%
%LPD*%
G01*
G04 APERTURE LIST*
%ADD10C,0.150000*%
%ADD11C,0.120000*%
G04 APERTURE END LIST*
D10*
%TO.C,R16*%
X85986857Y-59032380D02*
X86320190Y-58556190D01*
X86558285Y-59032380D02*
X86558285Y-58032380D01*
X86177333Y-58032380D01*
X86082095Y-58080000D01*
X86034476Y-58127619D01*
X85986857Y-58222857D01*
X85986857Y-58365714D01*
X86034476Y-58460952D01*
X86082095Y-58508571D01*
X86177333Y-58556190D01*
X86558285Y-58556190D01*
X85034476Y-59032380D02*
X85605904Y-59032380D01*
X85320190Y-59032380D02*
X85320190Y-58032380D01*
X85415428Y-58175238D01*
X85510666Y-58270476D01*
X85605904Y-58318095D01*
X84177333Y-58032380D02*
X84367809Y-58032380D01*
X84463047Y-58080000D01*
X84510666Y-58127619D01*
X84605904Y-58270476D01*
X84653523Y-58460952D01*
X84653523Y-58841904D01*
X84605904Y-58937142D01*
X84558285Y-58984761D01*
X84463047Y-59032380D01*
X84272571Y-59032380D01*
X84177333Y-58984761D01*
X84129714Y-58937142D01*
X84082095Y-58841904D01*
X84082095Y-58603809D01*
X84129714Y-58508571D01*
X84177333Y-58460952D01*
X84272571Y-58413333D01*
X84463047Y-58413333D01*
X84558285Y-58460952D01*
X84605904Y-58508571D01*
X84653523Y-58603809D01*
%TO.C,Q4*%
X77946238Y-50839619D02*
X78041476Y-50792000D01*
X78136714Y-50696761D01*
X78279571Y-50553904D01*
X78374809Y-50506285D01*
X78470047Y-50506285D01*
X78422428Y-50744380D02*
X78517666Y-50696761D01*
X78612904Y-50601523D01*
X78660523Y-50411047D01*
X78660523Y-50077714D01*
X78612904Y-49887238D01*
X78517666Y-49792000D01*
X78422428Y-49744380D01*
X78231952Y-49744380D01*
X78136714Y-49792000D01*
X78041476Y-49887238D01*
X77993857Y-50077714D01*
X77993857Y-50411047D01*
X78041476Y-50601523D01*
X78136714Y-50696761D01*
X78231952Y-50744380D01*
X78422428Y-50744380D01*
X77136714Y-50077714D02*
X77136714Y-50744380D01*
X77374809Y-49696761D02*
X77612904Y-50411047D01*
X76993857Y-50411047D01*
%TO.C,Q3*%
X81756238Y-50839619D02*
X81851476Y-50792000D01*
X81946714Y-50696761D01*
X82089571Y-50553904D01*
X82184809Y-50506285D01*
X82280047Y-50506285D01*
X82232428Y-50744380D02*
X82327666Y-50696761D01*
X82422904Y-50601523D01*
X82470523Y-50411047D01*
X82470523Y-50077714D01*
X82422904Y-49887238D01*
X82327666Y-49792000D01*
X82232428Y-49744380D01*
X82041952Y-49744380D01*
X81946714Y-49792000D01*
X81851476Y-49887238D01*
X81803857Y-50077714D01*
X81803857Y-50411047D01*
X81851476Y-50601523D01*
X81946714Y-50696761D01*
X82041952Y-50744380D01*
X82232428Y-50744380D01*
X81470523Y-49744380D02*
X80851476Y-49744380D01*
X81184809Y-50125333D01*
X81041952Y-50125333D01*
X80946714Y-50172952D01*
X80899095Y-50220571D01*
X80851476Y-50315809D01*
X80851476Y-50553904D01*
X80899095Y-50649142D01*
X80946714Y-50696761D01*
X81041952Y-50744380D01*
X81327666Y-50744380D01*
X81422904Y-50696761D01*
X81470523Y-50649142D01*
%TO.C,R18*%
X78366857Y-59032380D02*
X78700190Y-58556190D01*
X78938285Y-59032380D02*
X78938285Y-58032380D01*
X78557333Y-58032380D01*
X78462095Y-58080000D01*
X78414476Y-58127619D01*
X78366857Y-58222857D01*
X78366857Y-58365714D01*
X78414476Y-58460952D01*
X78462095Y-58508571D01*
X78557333Y-58556190D01*
X78938285Y-58556190D01*
X77414476Y-59032380D02*
X77985904Y-59032380D01*
X77700190Y-59032380D02*
X77700190Y-58032380D01*
X77795428Y-58175238D01*
X77890666Y-58270476D01*
X77985904Y-58318095D01*
X76843047Y-58460952D02*
X76938285Y-58413333D01*
X76985904Y-58365714D01*
X77033523Y-58270476D01*
X77033523Y-58222857D01*
X76985904Y-58127619D01*
X76938285Y-58080000D01*
X76843047Y-58032380D01*
X76652571Y-58032380D01*
X76557333Y-58080000D01*
X76509714Y-58127619D01*
X76462095Y-58222857D01*
X76462095Y-58270476D01*
X76509714Y-58365714D01*
X76557333Y-58413333D01*
X76652571Y-58460952D01*
X76843047Y-58460952D01*
X76938285Y-58508571D01*
X76985904Y-58556190D01*
X77033523Y-58651428D01*
X77033523Y-58841904D01*
X76985904Y-58937142D01*
X76938285Y-58984761D01*
X76843047Y-59032380D01*
X76652571Y-59032380D01*
X76557333Y-58984761D01*
X76509714Y-58937142D01*
X76462095Y-58841904D01*
X76462095Y-58651428D01*
X76509714Y-58556190D01*
X76557333Y-58508571D01*
X76652571Y-58460952D01*
%TO.C,R17*%
X82176857Y-59032380D02*
X82510190Y-58556190D01*
X82748285Y-59032380D02*
X82748285Y-58032380D01*
X82367333Y-58032380D01*
X82272095Y-58080000D01*
X82224476Y-58127619D01*
X82176857Y-58222857D01*
X82176857Y-58365714D01*
X82224476Y-58460952D01*
X82272095Y-58508571D01*
X82367333Y-58556190D01*
X82748285Y-58556190D01*
X81224476Y-59032380D02*
X81795904Y-59032380D01*
X81510190Y-59032380D02*
X81510190Y-58032380D01*
X81605428Y-58175238D01*
X81700666Y-58270476D01*
X81795904Y-58318095D01*
X80891142Y-58032380D02*
X80224476Y-58032380D01*
X80653047Y-59032380D01*
%TO.C,J1*%
X98687380Y-69041666D02*
X99401666Y-69041666D01*
X99544523Y-68994047D01*
X99639761Y-68898809D01*
X99687380Y-68755952D01*
X99687380Y-68660714D01*
X99687380Y-70041666D02*
X99687380Y-69470238D01*
X99687380Y-69755952D02*
X98687380Y-69755952D01*
X98830238Y-69660714D01*
X98925476Y-69565476D01*
X98973095Y-69470238D01*
%TO.C,Q2*%
X85566238Y-50839619D02*
X85661476Y-50792000D01*
X85756714Y-50696761D01*
X85899571Y-50553904D01*
X85994809Y-50506285D01*
X86090047Y-50506285D01*
X86042428Y-50744380D02*
X86137666Y-50696761D01*
X86232904Y-50601523D01*
X86280523Y-50411047D01*
X86280523Y-50077714D01*
X86232904Y-49887238D01*
X86137666Y-49792000D01*
X86042428Y-49744380D01*
X85851952Y-49744380D01*
X85756714Y-49792000D01*
X85661476Y-49887238D01*
X85613857Y-50077714D01*
X85613857Y-50411047D01*
X85661476Y-50601523D01*
X85756714Y-50696761D01*
X85851952Y-50744380D01*
X86042428Y-50744380D01*
X85232904Y-49839619D02*
X85185285Y-49792000D01*
X85090047Y-49744380D01*
X84851952Y-49744380D01*
X84756714Y-49792000D01*
X84709095Y-49839619D01*
X84661476Y-49934857D01*
X84661476Y-50030095D01*
X84709095Y-50172952D01*
X85280523Y-50744380D01*
X84661476Y-50744380D01*
%TO.C,A1*%
X106633333Y-142514285D02*
X106633333Y-142038095D01*
X106347619Y-142609523D02*
X107347619Y-142276190D01*
X106347619Y-141942857D01*
X106347619Y-141085714D02*
X106347619Y-141657142D01*
X106347619Y-141371428D02*
X107347619Y-141371428D01*
X107204761Y-141466666D01*
X107109523Y-141561904D01*
X107061904Y-141657142D01*
%TO.C,Q1*%
X89376238Y-50839619D02*
X89471476Y-50792000D01*
X89566714Y-50696761D01*
X89709571Y-50553904D01*
X89804809Y-50506285D01*
X89900047Y-50506285D01*
X89852428Y-50744380D02*
X89947666Y-50696761D01*
X90042904Y-50601523D01*
X90090523Y-50411047D01*
X90090523Y-50077714D01*
X90042904Y-49887238D01*
X89947666Y-49792000D01*
X89852428Y-49744380D01*
X89661952Y-49744380D01*
X89566714Y-49792000D01*
X89471476Y-49887238D01*
X89423857Y-50077714D01*
X89423857Y-50411047D01*
X89471476Y-50601523D01*
X89566714Y-50696761D01*
X89661952Y-50744380D01*
X89852428Y-50744380D01*
X88471476Y-50744380D02*
X89042904Y-50744380D01*
X88757190Y-50744380D02*
X88757190Y-49744380D01*
X88852428Y-49887238D01*
X88947666Y-49982476D01*
X89042904Y-50030095D01*
%TO.C,R13*%
X89923857Y-58999380D02*
X90257190Y-58523190D01*
X90495285Y-58999380D02*
X90495285Y-57999380D01*
X90114333Y-57999380D01*
X90019095Y-58047000D01*
X89971476Y-58094619D01*
X89923857Y-58189857D01*
X89923857Y-58332714D01*
X89971476Y-58427952D01*
X90019095Y-58475571D01*
X90114333Y-58523190D01*
X90495285Y-58523190D01*
X88971476Y-58999380D02*
X89542904Y-58999380D01*
X89257190Y-58999380D02*
X89257190Y-57999380D01*
X89352428Y-58142238D01*
X89447666Y-58237476D01*
X89542904Y-58285095D01*
X88638142Y-57999380D02*
X88019095Y-57999380D01*
X88352428Y-58380333D01*
X88209571Y-58380333D01*
X88114333Y-58427952D01*
X88066714Y-58475571D01*
X88019095Y-58570809D01*
X88019095Y-58808904D01*
X88066714Y-58904142D01*
X88114333Y-58951761D01*
X88209571Y-58999380D01*
X88495285Y-58999380D01*
X88590523Y-58951761D01*
X88638142Y-58904142D01*
D11*
%TO.C,R16*%
X85172733Y-56640000D02*
X85515267Y-56640000D01*
X85172733Y-57660000D02*
X85515267Y-57660000D01*
%TO.C,Q4*%
X79370000Y-54330000D02*
X78440000Y-54330000D01*
X76210000Y-54330000D02*
X77140000Y-54330000D01*
X79370000Y-54330000D02*
X79370000Y-52870000D01*
X76210000Y-54330000D02*
X76210000Y-51170000D01*
%TO.C,Q3*%
X83180000Y-54330000D02*
X82250000Y-54330000D01*
X80020000Y-54330000D02*
X80950000Y-54330000D01*
X80020000Y-54330000D02*
X80020000Y-51170000D01*
X83180000Y-54330000D02*
X83180000Y-52870000D01*
%TO.C,R18*%
X77552733Y-56640000D02*
X77895267Y-56640000D01*
X77552733Y-57660000D02*
X77895267Y-57660000D01*
%TO.C,R17*%
X81362733Y-56640000D02*
X81705267Y-56640000D01*
X81362733Y-57660000D02*
X81705267Y-57660000D01*
%TO.C,J1*%
X109785000Y-91245000D02*
X100635000Y-91245000D01*
X100635000Y-67505000D02*
X100635000Y-91245000D01*
X100635000Y-67505000D02*
X109785000Y-67505000D01*
X109785000Y-91245000D02*
X109785000Y-67505000D01*
%TO.C,Q2*%
X83830000Y-54330000D02*
X84760000Y-54330000D01*
X86990000Y-54330000D02*
X86060000Y-54330000D01*
X83830000Y-54330000D02*
X83830000Y-51170000D01*
X86990000Y-54330000D02*
X86990000Y-52870000D01*
%TO.C,A1*%
X76960000Y-169040000D02*
X65280000Y-169040000D01*
X106170000Y-162690000D02*
X106170000Y-164590000D01*
X55750000Y-162690000D02*
X55750000Y-98040000D01*
X65280000Y-162690000D02*
X55750000Y-162690000D01*
X55750000Y-98040000D02*
X57400000Y-96390000D01*
X65280000Y-169040000D02*
X65280000Y-162690000D01*
X76960000Y-162690000D02*
X76960000Y-169040000D01*
X57400000Y-96390000D02*
X68830000Y-96390000D01*
X104140000Y-93850000D02*
X106680000Y-96390000D01*
X97030000Y-164590000D02*
X97030000Y-162690000D01*
X71370000Y-93850000D02*
X104140000Y-93850000D01*
X68830000Y-96390000D02*
X71370000Y-93850000D01*
X109350000Y-162690000D02*
X106170000Y-162690000D01*
X97030000Y-162690000D02*
X76960000Y-162690000D01*
X106680000Y-96390000D02*
X109350000Y-96390000D01*
X109350000Y-96390000D02*
X109350000Y-162690000D01*
X106170000Y-164590000D02*
X97030000Y-164590000D01*
%TO.C,Q1*%
X90795000Y-54330000D02*
X90795000Y-52870000D01*
X90795000Y-54330000D02*
X89865000Y-54330000D01*
X87635000Y-54330000D02*
X88565000Y-54330000D01*
X87635000Y-54330000D02*
X87635000Y-51170000D01*
%TO.C,R13*%
X89123733Y-56640000D02*
X89466267Y-56640000D01*
X89123733Y-57660000D02*
X89466267Y-57660000D01*
%TD*%
M02*
