%TF.GenerationSoftware,KiCad,Pcbnew,(5.99.0-2611-ga723fba70-dirty)*%
%TF.CreationDate,2020-08-14T04:19:11+02:00*%
%TF.ProjectId,rundtisch-nc,72756e64-7469-4736-9368-2d6e632e6b69,rev?*%
%TF.SameCoordinates,Original*%
%TF.FileFunction,Soldermask,Top*%
%TF.FilePolarity,Negative*%
%FSLAX46Y46*%
G04 Gerber Fmt 4.6, Leading zero omitted, Abs format (unit mm)*
G04 Created by KiCad (PCBNEW (5.99.0-2611-ga723fba70-dirty)) date 2020-08-14 04:19:11*
%MOMM*%
%LPD*%
G01*
G04 APERTURE LIST*
%ADD10C,7.500000*%
%ADD11C,2.000000*%
%ADD12C,1.700000*%
%ADD13R,1.700000X1.700000*%
%ADD14O,1.700000X1.700000*%
%ADD15R,1.060000X0.650000*%
%ADD16R,2.000000X2.000000*%
%ADD17R,3.200000X2.000000*%
%ADD18R,3.000000X3.000000*%
%ADD19R,1.200000X0.900000*%
%ADD20R,1.600000X1.600000*%
%ADD21O,1.600000X1.600000*%
G04 APERTURE END LIST*
D10*
%TO.C,REF\u002A\u002A*%
X115000000Y-160000000D03*
%TD*%
%TO.C,REF\u002A\u002A*%
X50000000Y-160000000D03*
%TD*%
%TO.C,REF\u002A\u002A*%
X115000000Y-50000000D03*
%TD*%
%TO.C,REF\u002A\u002A*%
X50000000Y-50000000D03*
%TD*%
D11*
%TO.C,J4*%
X62230000Y-76835000D03*
X62230000Y-80645000D03*
%TD*%
%TO.C,R3*%
G36*
G01*
X72627500Y-85855000D02*
X72152500Y-85855000D01*
G75*
G02*
X71915000Y-85617500I0J237500D01*
G01*
X71915000Y-85042500D01*
G75*
G02*
X72152500Y-84805000I237500J0D01*
G01*
X72627500Y-84805000D01*
G75*
G02*
X72865000Y-85042500I0J-237500D01*
G01*
X72865000Y-85617500D01*
G75*
G02*
X72627500Y-85855000I-237500J0D01*
G01*
G37*
G36*
G01*
X72627500Y-84105000D02*
X72152500Y-84105000D01*
G75*
G02*
X71915000Y-83867500I0J237500D01*
G01*
X71915000Y-83292500D01*
G75*
G02*
X72152500Y-83055000I237500J0D01*
G01*
X72627500Y-83055000D01*
G75*
G02*
X72865000Y-83292500I0J-237500D01*
G01*
X72865000Y-83867500D01*
G75*
G02*
X72627500Y-84105000I-237500J0D01*
G01*
G37*
%TD*%
%TO.C,R12*%
G36*
G01*
X92580000Y-88502500D02*
X92580000Y-88027500D01*
G75*
G02*
X92817500Y-87790000I237500J0D01*
G01*
X93392500Y-87790000D01*
G75*
G02*
X93630000Y-88027500I0J-237500D01*
G01*
X93630000Y-88502500D01*
G75*
G02*
X93392500Y-88740000I-237500J0D01*
G01*
X92817500Y-88740000D01*
G75*
G02*
X92580000Y-88502500I0J237500D01*
G01*
G37*
G36*
G01*
X94330000Y-88502500D02*
X94330000Y-88027500D01*
G75*
G02*
X94567500Y-87790000I237500J0D01*
G01*
X95142500Y-87790000D01*
G75*
G02*
X95380000Y-88027500I0J-237500D01*
G01*
X95380000Y-88502500D01*
G75*
G02*
X95142500Y-88740000I-237500J0D01*
G01*
X94567500Y-88740000D01*
G75*
G02*
X94330000Y-88502500I0J237500D01*
G01*
G37*
%TD*%
%TO.C,R15*%
G36*
G01*
X92580000Y-77707500D02*
X92580000Y-77232500D01*
G75*
G02*
X92817500Y-76995000I237500J0D01*
G01*
X93392500Y-76995000D01*
G75*
G02*
X93630000Y-77232500I0J-237500D01*
G01*
X93630000Y-77707500D01*
G75*
G02*
X93392500Y-77945000I-237500J0D01*
G01*
X92817500Y-77945000D01*
G75*
G02*
X92580000Y-77707500I0J237500D01*
G01*
G37*
G36*
G01*
X94330000Y-77707500D02*
X94330000Y-77232500D01*
G75*
G02*
X94567500Y-76995000I237500J0D01*
G01*
X95142500Y-76995000D01*
G75*
G02*
X95380000Y-77232500I0J-237500D01*
G01*
X95380000Y-77707500D01*
G75*
G02*
X95142500Y-77945000I-237500J0D01*
G01*
X94567500Y-77945000D01*
G75*
G02*
X94330000Y-77707500I0J237500D01*
G01*
G37*
%TD*%
%TO.C,R7*%
G36*
G01*
X78977500Y-69585000D02*
X78502500Y-69585000D01*
G75*
G02*
X78265000Y-69347500I0J237500D01*
G01*
X78265000Y-68772500D01*
G75*
G02*
X78502500Y-68535000I237500J0D01*
G01*
X78977500Y-68535000D01*
G75*
G02*
X79215000Y-68772500I0J-237500D01*
G01*
X79215000Y-69347500D01*
G75*
G02*
X78977500Y-69585000I-237500J0D01*
G01*
G37*
G36*
G01*
X78977500Y-67835000D02*
X78502500Y-67835000D01*
G75*
G02*
X78265000Y-67597500I0J237500D01*
G01*
X78265000Y-67022500D01*
G75*
G02*
X78502500Y-66785000I237500J0D01*
G01*
X78977500Y-66785000D01*
G75*
G02*
X79215000Y-67022500I0J-237500D01*
G01*
X79215000Y-67597500D01*
G75*
G02*
X78977500Y-67835000I-237500J0D01*
G01*
G37*
%TD*%
%TO.C,R19*%
G36*
G01*
X82807000Y-126635500D02*
X82807000Y-127110500D01*
G75*
G02*
X82569500Y-127348000I-237500J0D01*
G01*
X81994500Y-127348000D01*
G75*
G02*
X81757000Y-127110500I0J237500D01*
G01*
X81757000Y-126635500D01*
G75*
G02*
X81994500Y-126398000I237500J0D01*
G01*
X82569500Y-126398000D01*
G75*
G02*
X82807000Y-126635500I0J-237500D01*
G01*
G37*
G36*
G01*
X81057000Y-126635500D02*
X81057000Y-127110500D01*
G75*
G02*
X80819500Y-127348000I-237500J0D01*
G01*
X80244500Y-127348000D01*
G75*
G02*
X80007000Y-127110500I0J237500D01*
G01*
X80007000Y-126635500D01*
G75*
G02*
X80244500Y-126398000I237500J0D01*
G01*
X80819500Y-126398000D01*
G75*
G02*
X81057000Y-126635500I0J-237500D01*
G01*
G37*
%TD*%
%TO.C,R21*%
G36*
G01*
X77237500Y-125525000D02*
X76762500Y-125525000D01*
G75*
G02*
X76525000Y-125287500I0J237500D01*
G01*
X76525000Y-124712500D01*
G75*
G02*
X76762500Y-124475000I237500J0D01*
G01*
X77237500Y-124475000D01*
G75*
G02*
X77475000Y-124712500I0J-237500D01*
G01*
X77475000Y-125287500D01*
G75*
G02*
X77237500Y-125525000I-237500J0D01*
G01*
G37*
G36*
G01*
X77237500Y-123775000D02*
X76762500Y-123775000D01*
G75*
G02*
X76525000Y-123537500I0J237500D01*
G01*
X76525000Y-122962500D01*
G75*
G02*
X76762500Y-122725000I237500J0D01*
G01*
X77237500Y-122725000D01*
G75*
G02*
X77475000Y-122962500I0J-237500D01*
G01*
X77475000Y-123537500D01*
G75*
G02*
X77237500Y-123775000I-237500J0D01*
G01*
G37*
%TD*%
D12*
%TO.C,U2*%
X76200000Y-63500000D03*
X78740000Y-63500000D03*
X81280000Y-63500000D03*
X83820000Y-63500000D03*
X86360000Y-63500000D03*
X88900000Y-63500000D03*
X88900000Y-48260000D03*
X86360000Y-48260000D03*
X83820000Y-48260000D03*
X81280000Y-48260000D03*
X78740000Y-48260000D03*
X76200000Y-48260000D03*
%TD*%
%TO.C,R9*%
G36*
G01*
X91677500Y-69585000D02*
X91202500Y-69585000D01*
G75*
G02*
X90965000Y-69347500I0J237500D01*
G01*
X90965000Y-68772500D01*
G75*
G02*
X91202500Y-68535000I237500J0D01*
G01*
X91677500Y-68535000D01*
G75*
G02*
X91915000Y-68772500I0J-237500D01*
G01*
X91915000Y-69347500D01*
G75*
G02*
X91677500Y-69585000I-237500J0D01*
G01*
G37*
G36*
G01*
X91677500Y-67835000D02*
X91202500Y-67835000D01*
G75*
G02*
X90965000Y-67597500I0J237500D01*
G01*
X90965000Y-67022500D01*
G75*
G02*
X91202500Y-66785000I237500J0D01*
G01*
X91677500Y-66785000D01*
G75*
G02*
X91915000Y-67022500I0J-237500D01*
G01*
X91915000Y-67597500D01*
G75*
G02*
X91677500Y-67835000I-237500J0D01*
G01*
G37*
%TD*%
D13*
%TO.C,SW1*%
X62230000Y-86995000D03*
D14*
X62230000Y-84455000D03*
%TD*%
%TO.C,C2*%
G36*
G01*
X85910000Y-124384000D02*
X86810000Y-124384000D01*
G75*
G02*
X87060000Y-124634000I0J-250000D01*
G01*
X87060000Y-125284000D01*
G75*
G02*
X86810000Y-125534000I-250000J0D01*
G01*
X85910000Y-125534000D01*
G75*
G02*
X85660000Y-125284000I0J250000D01*
G01*
X85660000Y-124634000D01*
G75*
G02*
X85910000Y-124384000I250000J0D01*
G01*
G37*
G36*
G01*
X85910000Y-126434000D02*
X86810000Y-126434000D01*
G75*
G02*
X87060000Y-126684000I0J-250000D01*
G01*
X87060000Y-127334000D01*
G75*
G02*
X86810000Y-127584000I-250000J0D01*
G01*
X85910000Y-127584000D01*
G75*
G02*
X85660000Y-127334000I0J250000D01*
G01*
X85660000Y-126684000D01*
G75*
G02*
X85910000Y-126434000I250000J0D01*
G01*
G37*
%TD*%
D13*
%TO.C,J3*%
X62230000Y-72390000D03*
D14*
X62230000Y-69850000D03*
%TD*%
%TO.C,R4*%
G36*
G01*
X89137500Y-69585000D02*
X88662500Y-69585000D01*
G75*
G02*
X88425000Y-69347500I0J237500D01*
G01*
X88425000Y-68772500D01*
G75*
G02*
X88662500Y-68535000I237500J0D01*
G01*
X89137500Y-68535000D01*
G75*
G02*
X89375000Y-68772500I0J-237500D01*
G01*
X89375000Y-69347500D01*
G75*
G02*
X89137500Y-69585000I-237500J0D01*
G01*
G37*
G36*
G01*
X89137500Y-67835000D02*
X88662500Y-67835000D01*
G75*
G02*
X88425000Y-67597500I0J237500D01*
G01*
X88425000Y-67022500D01*
G75*
G02*
X88662500Y-66785000I237500J0D01*
G01*
X89137500Y-66785000D01*
G75*
G02*
X89375000Y-67022500I0J-237500D01*
G01*
X89375000Y-67597500D01*
G75*
G02*
X89137500Y-67835000I-237500J0D01*
G01*
G37*
%TD*%
%TO.C,R8*%
G36*
G01*
X76437500Y-69585000D02*
X75962500Y-69585000D01*
G75*
G02*
X75725000Y-69347500I0J237500D01*
G01*
X75725000Y-68772500D01*
G75*
G02*
X75962500Y-68535000I237500J0D01*
G01*
X76437500Y-68535000D01*
G75*
G02*
X76675000Y-68772500I0J-237500D01*
G01*
X76675000Y-69347500D01*
G75*
G02*
X76437500Y-69585000I-237500J0D01*
G01*
G37*
G36*
G01*
X76437500Y-67835000D02*
X75962500Y-67835000D01*
G75*
G02*
X75725000Y-67597500I0J237500D01*
G01*
X75725000Y-67022500D01*
G75*
G02*
X75962500Y-66785000I237500J0D01*
G01*
X76437500Y-66785000D01*
G75*
G02*
X76675000Y-67022500I0J-237500D01*
G01*
X76675000Y-67597500D01*
G75*
G02*
X76437500Y-67835000I-237500J0D01*
G01*
G37*
%TD*%
D15*
%TO.C,U3*%
X80350000Y-123190000D03*
X80350000Y-124140000D03*
X80350000Y-125090000D03*
X82550000Y-125090000D03*
X82550000Y-124140000D03*
X82550000Y-123190000D03*
%TD*%
%TO.C,C1*%
G36*
G01*
X90407500Y-106810000D02*
X89932500Y-106810000D01*
G75*
G02*
X89695000Y-106572500I0J237500D01*
G01*
X89695000Y-105997500D01*
G75*
G02*
X89932500Y-105760000I237500J0D01*
G01*
X90407500Y-105760000D01*
G75*
G02*
X90645000Y-105997500I0J-237500D01*
G01*
X90645000Y-106572500D01*
G75*
G02*
X90407500Y-106810000I-237500J0D01*
G01*
G37*
G36*
G01*
X90407500Y-105060000D02*
X89932500Y-105060000D01*
G75*
G02*
X89695000Y-104822500I0J237500D01*
G01*
X89695000Y-104247500D01*
G75*
G02*
X89932500Y-104010000I237500J0D01*
G01*
X90407500Y-104010000D01*
G75*
G02*
X90645000Y-104247500I0J-237500D01*
G01*
X90645000Y-104822500D01*
G75*
G02*
X90407500Y-105060000I-237500J0D01*
G01*
G37*
%TD*%
%TO.C,R10*%
G36*
G01*
X86597500Y-69585000D02*
X86122500Y-69585000D01*
G75*
G02*
X85885000Y-69347500I0J237500D01*
G01*
X85885000Y-68772500D01*
G75*
G02*
X86122500Y-68535000I237500J0D01*
G01*
X86597500Y-68535000D01*
G75*
G02*
X86835000Y-68772500I0J-237500D01*
G01*
X86835000Y-69347500D01*
G75*
G02*
X86597500Y-69585000I-237500J0D01*
G01*
G37*
G36*
G01*
X86597500Y-67835000D02*
X86122500Y-67835000D01*
G75*
G02*
X85885000Y-67597500I0J237500D01*
G01*
X85885000Y-67022500D01*
G75*
G02*
X86122500Y-66785000I237500J0D01*
G01*
X86597500Y-66785000D01*
G75*
G02*
X86835000Y-67022500I0J-237500D01*
G01*
X86835000Y-67597500D01*
G75*
G02*
X86597500Y-67835000I-237500J0D01*
G01*
G37*
%TD*%
%TO.C,R1*%
G36*
G01*
X71992500Y-74425000D02*
X71517500Y-74425000D01*
G75*
G02*
X71280000Y-74187500I0J237500D01*
G01*
X71280000Y-73612500D01*
G75*
G02*
X71517500Y-73375000I237500J0D01*
G01*
X71992500Y-73375000D01*
G75*
G02*
X72230000Y-73612500I0J-237500D01*
G01*
X72230000Y-74187500D01*
G75*
G02*
X71992500Y-74425000I-237500J0D01*
G01*
G37*
G36*
G01*
X71992500Y-72675000D02*
X71517500Y-72675000D01*
G75*
G02*
X71280000Y-72437500I0J237500D01*
G01*
X71280000Y-71862500D01*
G75*
G02*
X71517500Y-71625000I237500J0D01*
G01*
X71992500Y-71625000D01*
G75*
G02*
X72230000Y-71862500I0J-237500D01*
G01*
X72230000Y-72437500D01*
G75*
G02*
X71992500Y-72675000I-237500J0D01*
G01*
G37*
%TD*%
%TO.C,C3*%
G36*
G01*
X79880000Y-121649500D02*
X79880000Y-121174500D01*
G75*
G02*
X80117500Y-120937000I237500J0D01*
G01*
X80692500Y-120937000D01*
G75*
G02*
X80930000Y-121174500I0J-237500D01*
G01*
X80930000Y-121649500D01*
G75*
G02*
X80692500Y-121887000I-237500J0D01*
G01*
X80117500Y-121887000D01*
G75*
G02*
X79880000Y-121649500I0J237500D01*
G01*
G37*
G36*
G01*
X81630000Y-121649500D02*
X81630000Y-121174500D01*
G75*
G02*
X81867500Y-120937000I237500J0D01*
G01*
X82442500Y-120937000D01*
G75*
G02*
X82680000Y-121174500I0J-237500D01*
G01*
X82680000Y-121649500D01*
G75*
G02*
X82442500Y-121887000I-237500J0D01*
G01*
X81867500Y-121887000D01*
G75*
G02*
X81630000Y-121649500I0J237500D01*
G01*
G37*
%TD*%
%TO.C,D1*%
G36*
G01*
X92380000Y-85540000D02*
X92380000Y-84640000D01*
G75*
G02*
X92630000Y-84390000I250000J0D01*
G01*
X93280000Y-84390000D01*
G75*
G02*
X93530000Y-84640000I0J-250000D01*
G01*
X93530000Y-85540000D01*
G75*
G02*
X93280000Y-85790000I-250000J0D01*
G01*
X92630000Y-85790000D01*
G75*
G02*
X92380000Y-85540000I0J250000D01*
G01*
G37*
G36*
G01*
X94430000Y-85540000D02*
X94430000Y-84640000D01*
G75*
G02*
X94680000Y-84390000I250000J0D01*
G01*
X95330000Y-84390000D01*
G75*
G02*
X95580000Y-84640000I0J-250000D01*
G01*
X95580000Y-85540000D01*
G75*
G02*
X95330000Y-85790000I-250000J0D01*
G01*
X94680000Y-85790000D01*
G75*
G02*
X94430000Y-85540000I0J250000D01*
G01*
G37*
%TD*%
D16*
%TO.C,SW3*%
X74930000Y-80010000D03*
D11*
X74930000Y-85010000D03*
X74930000Y-82510000D03*
D17*
X82430000Y-88110000D03*
X82430000Y-76910000D03*
D11*
X89430000Y-85010000D03*
X89430000Y-80010000D03*
%TD*%
%TO.C,R11*%
G36*
G01*
X81517500Y-69585000D02*
X81042500Y-69585000D01*
G75*
G02*
X80805000Y-69347500I0J237500D01*
G01*
X80805000Y-68772500D01*
G75*
G02*
X81042500Y-68535000I237500J0D01*
G01*
X81517500Y-68535000D01*
G75*
G02*
X81755000Y-68772500I0J-237500D01*
G01*
X81755000Y-69347500D01*
G75*
G02*
X81517500Y-69585000I-237500J0D01*
G01*
G37*
G36*
G01*
X81517500Y-67835000D02*
X81042500Y-67835000D01*
G75*
G02*
X80805000Y-67597500I0J237500D01*
G01*
X80805000Y-67022500D01*
G75*
G02*
X81042500Y-66785000I237500J0D01*
G01*
X81517500Y-66785000D01*
G75*
G02*
X81755000Y-67022500I0J-237500D01*
G01*
X81755000Y-67597500D01*
G75*
G02*
X81517500Y-67835000I-237500J0D01*
G01*
G37*
%TD*%
%TO.C,R6*%
G36*
G01*
X84057500Y-69585000D02*
X83582500Y-69585000D01*
G75*
G02*
X83345000Y-69347500I0J237500D01*
G01*
X83345000Y-68772500D01*
G75*
G02*
X83582500Y-68535000I237500J0D01*
G01*
X84057500Y-68535000D01*
G75*
G02*
X84295000Y-68772500I0J-237500D01*
G01*
X84295000Y-69347500D01*
G75*
G02*
X84057500Y-69585000I-237500J0D01*
G01*
G37*
G36*
G01*
X84057500Y-67835000D02*
X83582500Y-67835000D01*
G75*
G02*
X83345000Y-67597500I0J237500D01*
G01*
X83345000Y-67022500D01*
G75*
G02*
X83582500Y-66785000I237500J0D01*
G01*
X84057500Y-66785000D01*
G75*
G02*
X84295000Y-67022500I0J-237500D01*
G01*
X84295000Y-67597500D01*
G75*
G02*
X84057500Y-67835000I-237500J0D01*
G01*
G37*
%TD*%
%TO.C,R14*%
G36*
G01*
X92580000Y-82787500D02*
X92580000Y-82312500D01*
G75*
G02*
X92817500Y-82075000I237500J0D01*
G01*
X93392500Y-82075000D01*
G75*
G02*
X93630000Y-82312500I0J-237500D01*
G01*
X93630000Y-82787500D01*
G75*
G02*
X93392500Y-83025000I-237500J0D01*
G01*
X92817500Y-83025000D01*
G75*
G02*
X92580000Y-82787500I0J237500D01*
G01*
G37*
G36*
G01*
X94330000Y-82787500D02*
X94330000Y-82312500D01*
G75*
G02*
X94567500Y-82075000I237500J0D01*
G01*
X95142500Y-82075000D01*
G75*
G02*
X95380000Y-82312500I0J-237500D01*
G01*
X95380000Y-82787500D01*
G75*
G02*
X95142500Y-83025000I-237500J0D01*
G01*
X94567500Y-83025000D01*
G75*
G02*
X94330000Y-82787500I0J237500D01*
G01*
G37*
%TD*%
%TO.C,C4*%
G36*
G01*
X98485000Y-122370000D02*
X98485000Y-121470000D01*
G75*
G02*
X98735000Y-121220000I250000J0D01*
G01*
X99385000Y-121220000D01*
G75*
G02*
X99635000Y-121470000I0J-250000D01*
G01*
X99635000Y-122370000D01*
G75*
G02*
X99385000Y-122620000I-250000J0D01*
G01*
X98735000Y-122620000D01*
G75*
G02*
X98485000Y-122370000I0J250000D01*
G01*
G37*
G36*
G01*
X100535000Y-122370000D02*
X100535000Y-121470000D01*
G75*
G02*
X100785000Y-121220000I250000J0D01*
G01*
X101435000Y-121220000D01*
G75*
G02*
X101685000Y-121470000I0J-250000D01*
G01*
X101685000Y-122370000D01*
G75*
G02*
X101435000Y-122620000I-250000J0D01*
G01*
X100785000Y-122620000D01*
G75*
G02*
X100535000Y-122370000I0J250000D01*
G01*
G37*
%TD*%
D18*
%TO.C,L1*%
X89625000Y-123190000D03*
X95795000Y-123190000D03*
%TD*%
%TO.C,R20*%
G36*
G01*
X79880000Y-119617500D02*
X79880000Y-119142500D01*
G75*
G02*
X80117500Y-118905000I237500J0D01*
G01*
X80692500Y-118905000D01*
G75*
G02*
X80930000Y-119142500I0J-237500D01*
G01*
X80930000Y-119617500D01*
G75*
G02*
X80692500Y-119855000I-237500J0D01*
G01*
X80117500Y-119855000D01*
G75*
G02*
X79880000Y-119617500I0J237500D01*
G01*
G37*
G36*
G01*
X81630000Y-119617500D02*
X81630000Y-119142500D01*
G75*
G02*
X81867500Y-118905000I237500J0D01*
G01*
X82442500Y-118905000D01*
G75*
G02*
X82680000Y-119142500I0J-237500D01*
G01*
X82680000Y-119617500D01*
G75*
G02*
X82442500Y-119855000I-237500J0D01*
G01*
X81867500Y-119855000D01*
G75*
G02*
X81630000Y-119617500I0J237500D01*
G01*
G37*
%TD*%
%TO.C,D2*%
G36*
G01*
X92380000Y-80460000D02*
X92380000Y-79560000D01*
G75*
G02*
X92630000Y-79310000I250000J0D01*
G01*
X93280000Y-79310000D01*
G75*
G02*
X93530000Y-79560000I0J-250000D01*
G01*
X93530000Y-80460000D01*
G75*
G02*
X93280000Y-80710000I-250000J0D01*
G01*
X92630000Y-80710000D01*
G75*
G02*
X92380000Y-80460000I0J250000D01*
G01*
G37*
G36*
G01*
X94430000Y-80460000D02*
X94430000Y-79560000D01*
G75*
G02*
X94680000Y-79310000I250000J0D01*
G01*
X95330000Y-79310000D01*
G75*
G02*
X95580000Y-79560000I0J-250000D01*
G01*
X95580000Y-80460000D01*
G75*
G02*
X95330000Y-80710000I-250000J0D01*
G01*
X94680000Y-80710000D01*
G75*
G02*
X94430000Y-80460000I0J250000D01*
G01*
G37*
%TD*%
%TO.C,R5*%
G36*
G01*
X94217500Y-69585000D02*
X93742500Y-69585000D01*
G75*
G02*
X93505000Y-69347500I0J237500D01*
G01*
X93505000Y-68772500D01*
G75*
G02*
X93742500Y-68535000I237500J0D01*
G01*
X94217500Y-68535000D01*
G75*
G02*
X94455000Y-68772500I0J-237500D01*
G01*
X94455000Y-69347500D01*
G75*
G02*
X94217500Y-69585000I-237500J0D01*
G01*
G37*
G36*
G01*
X94217500Y-67835000D02*
X93742500Y-67835000D01*
G75*
G02*
X93505000Y-67597500I0J237500D01*
G01*
X93505000Y-67022500D01*
G75*
G02*
X93742500Y-66785000I237500J0D01*
G01*
X94217500Y-66785000D01*
G75*
G02*
X94455000Y-67022500I0J-237500D01*
G01*
X94455000Y-67597500D01*
G75*
G02*
X94217500Y-67835000I-237500J0D01*
G01*
G37*
%TD*%
D19*
%TO.C,D3*%
X85598000Y-121412000D03*
X85598000Y-118112000D03*
%TD*%
%TO.C,R2*%
G36*
G01*
X72627500Y-82045000D02*
X72152500Y-82045000D01*
G75*
G02*
X71915000Y-81807500I0J237500D01*
G01*
X71915000Y-81232500D01*
G75*
G02*
X72152500Y-80995000I237500J0D01*
G01*
X72627500Y-80995000D01*
G75*
G02*
X72865000Y-81232500I0J-237500D01*
G01*
X72865000Y-81807500D01*
G75*
G02*
X72627500Y-82045000I-237500J0D01*
G01*
G37*
G36*
G01*
X72627500Y-80295000D02*
X72152500Y-80295000D01*
G75*
G02*
X71915000Y-80057500I0J237500D01*
G01*
X71915000Y-79482500D01*
G75*
G02*
X72152500Y-79245000I237500J0D01*
G01*
X72627500Y-79245000D01*
G75*
G02*
X72865000Y-79482500I0J-237500D01*
G01*
X72865000Y-80057500D01*
G75*
G02*
X72627500Y-80295000I-237500J0D01*
G01*
G37*
%TD*%
%TO.C,U1*%
G36*
G01*
X87480000Y-101895000D02*
X87780000Y-101895000D01*
G75*
G02*
X87930000Y-102045000I0J-150000D01*
G01*
X87930000Y-103695000D01*
G75*
G02*
X87780000Y-103845000I-150000J0D01*
G01*
X87480000Y-103845000D01*
G75*
G02*
X87330000Y-103695000I0J150000D01*
G01*
X87330000Y-102045000D01*
G75*
G02*
X87480000Y-101895000I150000J0D01*
G01*
G37*
G36*
G01*
X86210000Y-101895000D02*
X86510000Y-101895000D01*
G75*
G02*
X86660000Y-102045000I0J-150000D01*
G01*
X86660000Y-103695000D01*
G75*
G02*
X86510000Y-103845000I-150000J0D01*
G01*
X86210000Y-103845000D01*
G75*
G02*
X86060000Y-103695000I0J150000D01*
G01*
X86060000Y-102045000D01*
G75*
G02*
X86210000Y-101895000I150000J0D01*
G01*
G37*
G36*
G01*
X84940000Y-101895000D02*
X85240000Y-101895000D01*
G75*
G02*
X85390000Y-102045000I0J-150000D01*
G01*
X85390000Y-103695000D01*
G75*
G02*
X85240000Y-103845000I-150000J0D01*
G01*
X84940000Y-103845000D01*
G75*
G02*
X84790000Y-103695000I0J150000D01*
G01*
X84790000Y-102045000D01*
G75*
G02*
X84940000Y-101895000I150000J0D01*
G01*
G37*
G36*
G01*
X83670000Y-101895000D02*
X83970000Y-101895000D01*
G75*
G02*
X84120000Y-102045000I0J-150000D01*
G01*
X84120000Y-103695000D01*
G75*
G02*
X83970000Y-103845000I-150000J0D01*
G01*
X83670000Y-103845000D01*
G75*
G02*
X83520000Y-103695000I0J150000D01*
G01*
X83520000Y-102045000D01*
G75*
G02*
X83670000Y-101895000I150000J0D01*
G01*
G37*
G36*
G01*
X82400000Y-101895000D02*
X82700000Y-101895000D01*
G75*
G02*
X82850000Y-102045000I0J-150000D01*
G01*
X82850000Y-103695000D01*
G75*
G02*
X82700000Y-103845000I-150000J0D01*
G01*
X82400000Y-103845000D01*
G75*
G02*
X82250000Y-103695000I0J150000D01*
G01*
X82250000Y-102045000D01*
G75*
G02*
X82400000Y-101895000I150000J0D01*
G01*
G37*
G36*
G01*
X81130000Y-101895000D02*
X81430000Y-101895000D01*
G75*
G02*
X81580000Y-102045000I0J-150000D01*
G01*
X81580000Y-103695000D01*
G75*
G02*
X81430000Y-103845000I-150000J0D01*
G01*
X81130000Y-103845000D01*
G75*
G02*
X80980000Y-103695000I0J150000D01*
G01*
X80980000Y-102045000D01*
G75*
G02*
X81130000Y-101895000I150000J0D01*
G01*
G37*
G36*
G01*
X79860000Y-101895000D02*
X80160000Y-101895000D01*
G75*
G02*
X80310000Y-102045000I0J-150000D01*
G01*
X80310000Y-103695000D01*
G75*
G02*
X80160000Y-103845000I-150000J0D01*
G01*
X79860000Y-103845000D01*
G75*
G02*
X79710000Y-103695000I0J150000D01*
G01*
X79710000Y-102045000D01*
G75*
G02*
X79860000Y-101895000I150000J0D01*
G01*
G37*
G36*
G01*
X78590000Y-101895000D02*
X78890000Y-101895000D01*
G75*
G02*
X79040000Y-102045000I0J-150000D01*
G01*
X79040000Y-103695000D01*
G75*
G02*
X78890000Y-103845000I-150000J0D01*
G01*
X78590000Y-103845000D01*
G75*
G02*
X78440000Y-103695000I0J150000D01*
G01*
X78440000Y-102045000D01*
G75*
G02*
X78590000Y-101895000I150000J0D01*
G01*
G37*
G36*
G01*
X78590000Y-106845000D02*
X78890000Y-106845000D01*
G75*
G02*
X79040000Y-106995000I0J-150000D01*
G01*
X79040000Y-108645000D01*
G75*
G02*
X78890000Y-108795000I-150000J0D01*
G01*
X78590000Y-108795000D01*
G75*
G02*
X78440000Y-108645000I0J150000D01*
G01*
X78440000Y-106995000D01*
G75*
G02*
X78590000Y-106845000I150000J0D01*
G01*
G37*
G36*
G01*
X79860000Y-106845000D02*
X80160000Y-106845000D01*
G75*
G02*
X80310000Y-106995000I0J-150000D01*
G01*
X80310000Y-108645000D01*
G75*
G02*
X80160000Y-108795000I-150000J0D01*
G01*
X79860000Y-108795000D01*
G75*
G02*
X79710000Y-108645000I0J150000D01*
G01*
X79710000Y-106995000D01*
G75*
G02*
X79860000Y-106845000I150000J0D01*
G01*
G37*
G36*
G01*
X81130000Y-106845000D02*
X81430000Y-106845000D01*
G75*
G02*
X81580000Y-106995000I0J-150000D01*
G01*
X81580000Y-108645000D01*
G75*
G02*
X81430000Y-108795000I-150000J0D01*
G01*
X81130000Y-108795000D01*
G75*
G02*
X80980000Y-108645000I0J150000D01*
G01*
X80980000Y-106995000D01*
G75*
G02*
X81130000Y-106845000I150000J0D01*
G01*
G37*
G36*
G01*
X82400000Y-106845000D02*
X82700000Y-106845000D01*
G75*
G02*
X82850000Y-106995000I0J-150000D01*
G01*
X82850000Y-108645000D01*
G75*
G02*
X82700000Y-108795000I-150000J0D01*
G01*
X82400000Y-108795000D01*
G75*
G02*
X82250000Y-108645000I0J150000D01*
G01*
X82250000Y-106995000D01*
G75*
G02*
X82400000Y-106845000I150000J0D01*
G01*
G37*
G36*
G01*
X83670000Y-106845000D02*
X83970000Y-106845000D01*
G75*
G02*
X84120000Y-106995000I0J-150000D01*
G01*
X84120000Y-108645000D01*
G75*
G02*
X83970000Y-108795000I-150000J0D01*
G01*
X83670000Y-108795000D01*
G75*
G02*
X83520000Y-108645000I0J150000D01*
G01*
X83520000Y-106995000D01*
G75*
G02*
X83670000Y-106845000I150000J0D01*
G01*
G37*
G36*
G01*
X84940000Y-106845000D02*
X85240000Y-106845000D01*
G75*
G02*
X85390000Y-106995000I0J-150000D01*
G01*
X85390000Y-108645000D01*
G75*
G02*
X85240000Y-108795000I-150000J0D01*
G01*
X84940000Y-108795000D01*
G75*
G02*
X84790000Y-108645000I0J150000D01*
G01*
X84790000Y-106995000D01*
G75*
G02*
X84940000Y-106845000I150000J0D01*
G01*
G37*
G36*
G01*
X86210000Y-106845000D02*
X86510000Y-106845000D01*
G75*
G02*
X86660000Y-106995000I0J-150000D01*
G01*
X86660000Y-108645000D01*
G75*
G02*
X86510000Y-108795000I-150000J0D01*
G01*
X86210000Y-108795000D01*
G75*
G02*
X86060000Y-108645000I0J150000D01*
G01*
X86060000Y-106995000D01*
G75*
G02*
X86210000Y-106845000I150000J0D01*
G01*
G37*
G36*
G01*
X87480000Y-106845000D02*
X87780000Y-106845000D01*
G75*
G02*
X87930000Y-106995000I0J-150000D01*
G01*
X87930000Y-108645000D01*
G75*
G02*
X87780000Y-108795000I-150000J0D01*
G01*
X87480000Y-108795000D01*
G75*
G02*
X87330000Y-108645000I0J150000D01*
G01*
X87330000Y-106995000D01*
G75*
G02*
X87480000Y-106845000I150000J0D01*
G01*
G37*
%TD*%
D11*
%TO.C,J1*%
X102235000Y-88900000D03*
X102235000Y-85090000D03*
X102235000Y-81280000D03*
X102235000Y-77470000D03*
X102235000Y-73660000D03*
X102235000Y-69850000D03*
%TD*%
D20*
%TO.C,A1*%
X106680000Y-134620000D03*
D21*
X106680000Y-132080000D03*
X106680000Y-129540000D03*
X106680000Y-127000000D03*
X106680000Y-124460000D03*
X106680000Y-121920000D03*
X106680000Y-119380000D03*
X106680000Y-116840000D03*
X106680000Y-111760000D03*
X106680000Y-109220000D03*
X106680000Y-106680000D03*
X106680000Y-104140000D03*
X106680000Y-101600000D03*
X106680000Y-99060000D03*
X58420000Y-99060000D03*
X58420000Y-101600000D03*
X58420000Y-104140000D03*
X58420000Y-106680000D03*
X58420000Y-109220000D03*
X58420000Y-111760000D03*
X58420000Y-114300000D03*
X58420000Y-116840000D03*
X58420000Y-120900000D03*
X58420000Y-123440000D03*
X58420000Y-125980000D03*
X58420000Y-128520000D03*
X58420000Y-131060000D03*
X58420000Y-133600000D03*
X58420000Y-136140000D03*
X58420000Y-138680000D03*
X58420000Y-141220000D03*
X58420000Y-143760000D03*
%TD*%
M02*
