%TF.GenerationSoftware,KiCad,Pcbnew,(5.99.0-2611-ga723fba70-dirty)*%
%TF.CreationDate,2020-08-14T04:19:11+02:00*%
%TF.ProjectId,rundtisch-nc,72756e64-7469-4736-9368-2d6e632e6b69,rev?*%
%TF.SameCoordinates,Original*%
%TF.FileFunction,Soldermask,Bot*%
%TF.FilePolarity,Negative*%
%FSLAX46Y46*%
G04 Gerber Fmt 4.6, Leading zero omitted, Abs format (unit mm)*
G04 Created by KiCad (PCBNEW (5.99.0-2611-ga723fba70-dirty)) date 2020-08-14 04:19:11*
%MOMM*%
%LPD*%
G01*
G04 APERTURE LIST*
%ADD10C,7.500000*%
%ADD11C,2.000000*%
%ADD12C,1.700000*%
%ADD13R,1.700000X1.700000*%
%ADD14O,1.700000X1.700000*%
%ADD15R,2.000000X2.000000*%
%ADD16R,3.200000X2.000000*%
%ADD17R,0.800000X1.900000*%
%ADD18R,1.600000X1.600000*%
%ADD19O,1.600000X1.600000*%
G04 APERTURE END LIST*
D10*
%TO.C,REF\u002A\u002A*%
X115000000Y-160000000D03*
%TD*%
%TO.C,REF\u002A\u002A*%
X50000000Y-160000000D03*
%TD*%
%TO.C,REF\u002A\u002A*%
X115000000Y-50000000D03*
%TD*%
%TO.C,REF\u002A\u002A*%
X50000000Y-50000000D03*
%TD*%
D11*
%TO.C,J4*%
X62230000Y-76835000D03*
X62230000Y-80645000D03*
%TD*%
D12*
%TO.C,U2*%
X76200000Y-63500000D03*
X78740000Y-63500000D03*
X81280000Y-63500000D03*
X83820000Y-63500000D03*
X86360000Y-63500000D03*
X88900000Y-63500000D03*
X88900000Y-48260000D03*
X86360000Y-48260000D03*
X83820000Y-48260000D03*
X81280000Y-48260000D03*
X78740000Y-48260000D03*
X76200000Y-48260000D03*
%TD*%
D13*
%TO.C,SW1*%
X62230000Y-86995000D03*
D14*
X62230000Y-84455000D03*
%TD*%
D13*
%TO.C,J3*%
X62230000Y-72390000D03*
D14*
X62230000Y-69850000D03*
%TD*%
D15*
%TO.C,SW3*%
X74930000Y-80010000D03*
D11*
X74930000Y-85010000D03*
X74930000Y-82510000D03*
D16*
X82430000Y-88110000D03*
X82430000Y-76910000D03*
D11*
X89430000Y-85010000D03*
X89430000Y-80010000D03*
%TD*%
%TO.C,R16*%
G36*
G01*
X83944000Y-57387500D02*
X83944000Y-56912500D01*
G75*
G02*
X84181500Y-56675000I237500J0D01*
G01*
X84756500Y-56675000D01*
G75*
G02*
X84994000Y-56912500I0J-237500D01*
G01*
X84994000Y-57387500D01*
G75*
G02*
X84756500Y-57625000I-237500J0D01*
G01*
X84181500Y-57625000D01*
G75*
G02*
X83944000Y-57387500I0J237500D01*
G01*
G37*
G36*
G01*
X85694000Y-57387500D02*
X85694000Y-56912500D01*
G75*
G02*
X85931500Y-56675000I237500J0D01*
G01*
X86506500Y-56675000D01*
G75*
G02*
X86744000Y-56912500I0J-237500D01*
G01*
X86744000Y-57387500D01*
G75*
G02*
X86506500Y-57625000I-237500J0D01*
G01*
X85931500Y-57625000D01*
G75*
G02*
X85694000Y-57387500I0J237500D01*
G01*
G37*
%TD*%
D17*
%TO.C,Q4*%
X76840000Y-52070000D03*
X78740000Y-52070000D03*
X77790000Y-55070000D03*
%TD*%
%TO.C,Q3*%
X80650000Y-52070000D03*
X82550000Y-52070000D03*
X81600000Y-55070000D03*
%TD*%
%TO.C,R18*%
G36*
G01*
X76324000Y-57387500D02*
X76324000Y-56912500D01*
G75*
G02*
X76561500Y-56675000I237500J0D01*
G01*
X77136500Y-56675000D01*
G75*
G02*
X77374000Y-56912500I0J-237500D01*
G01*
X77374000Y-57387500D01*
G75*
G02*
X77136500Y-57625000I-237500J0D01*
G01*
X76561500Y-57625000D01*
G75*
G02*
X76324000Y-57387500I0J237500D01*
G01*
G37*
G36*
G01*
X78074000Y-57387500D02*
X78074000Y-56912500D01*
G75*
G02*
X78311500Y-56675000I237500J0D01*
G01*
X78886500Y-56675000D01*
G75*
G02*
X79124000Y-56912500I0J-237500D01*
G01*
X79124000Y-57387500D01*
G75*
G02*
X78886500Y-57625000I-237500J0D01*
G01*
X78311500Y-57625000D01*
G75*
G02*
X78074000Y-57387500I0J237500D01*
G01*
G37*
%TD*%
%TO.C,R17*%
G36*
G01*
X80134000Y-57387500D02*
X80134000Y-56912500D01*
G75*
G02*
X80371500Y-56675000I237500J0D01*
G01*
X80946500Y-56675000D01*
G75*
G02*
X81184000Y-56912500I0J-237500D01*
G01*
X81184000Y-57387500D01*
G75*
G02*
X80946500Y-57625000I-237500J0D01*
G01*
X80371500Y-57625000D01*
G75*
G02*
X80134000Y-57387500I0J237500D01*
G01*
G37*
G36*
G01*
X81884000Y-57387500D02*
X81884000Y-56912500D01*
G75*
G02*
X82121500Y-56675000I237500J0D01*
G01*
X82696500Y-56675000D01*
G75*
G02*
X82934000Y-56912500I0J-237500D01*
G01*
X82934000Y-57387500D01*
G75*
G02*
X82696500Y-57625000I-237500J0D01*
G01*
X82121500Y-57625000D01*
G75*
G02*
X81884000Y-57387500I0J237500D01*
G01*
G37*
%TD*%
D11*
%TO.C,J1*%
X102235000Y-88900000D03*
X102235000Y-85090000D03*
X102235000Y-81280000D03*
X102235000Y-77470000D03*
X102235000Y-73660000D03*
X102235000Y-69850000D03*
%TD*%
D17*
%TO.C,Q2*%
X84460000Y-52070000D03*
X86360000Y-52070000D03*
X85410000Y-55070000D03*
%TD*%
D18*
%TO.C,A1*%
X106680000Y-134620000D03*
D19*
X106680000Y-132080000D03*
X106680000Y-129540000D03*
X106680000Y-127000000D03*
X106680000Y-124460000D03*
X106680000Y-121920000D03*
X106680000Y-119380000D03*
X106680000Y-116840000D03*
X106680000Y-111760000D03*
X106680000Y-109220000D03*
X106680000Y-106680000D03*
X106680000Y-104140000D03*
X106680000Y-101600000D03*
X106680000Y-99060000D03*
X58420000Y-99060000D03*
X58420000Y-101600000D03*
X58420000Y-104140000D03*
X58420000Y-106680000D03*
X58420000Y-109220000D03*
X58420000Y-111760000D03*
X58420000Y-114300000D03*
X58420000Y-116840000D03*
X58420000Y-120900000D03*
X58420000Y-123440000D03*
X58420000Y-125980000D03*
X58420000Y-128520000D03*
X58420000Y-131060000D03*
X58420000Y-133600000D03*
X58420000Y-136140000D03*
X58420000Y-138680000D03*
X58420000Y-141220000D03*
X58420000Y-143760000D03*
%TD*%
D17*
%TO.C,Q1*%
X88265000Y-52070000D03*
X90165000Y-52070000D03*
X89215000Y-55070000D03*
%TD*%
%TO.C,R13*%
G36*
G01*
X87895000Y-57387500D02*
X87895000Y-56912500D01*
G75*
G02*
X88132500Y-56675000I237500J0D01*
G01*
X88707500Y-56675000D01*
G75*
G02*
X88945000Y-56912500I0J-237500D01*
G01*
X88945000Y-57387500D01*
G75*
G02*
X88707500Y-57625000I-237500J0D01*
G01*
X88132500Y-57625000D01*
G75*
G02*
X87895000Y-57387500I0J237500D01*
G01*
G37*
G36*
G01*
X89645000Y-57387500D02*
X89645000Y-56912500D01*
G75*
G02*
X89882500Y-56675000I237500J0D01*
G01*
X90457500Y-56675000D01*
G75*
G02*
X90695000Y-56912500I0J-237500D01*
G01*
X90695000Y-57387500D01*
G75*
G02*
X90457500Y-57625000I-237500J0D01*
G01*
X89882500Y-57625000D01*
G75*
G02*
X89645000Y-57387500I0J237500D01*
G01*
G37*
%TD*%
M02*
