M48
; DRILL file {KiCad (5.99.0-2611-ga723fba70-dirty)} date Fri Aug 14 04:19:15 2020
; FORMAT={-:-/ absolute / inch / decimal}
; #@! TF.CreationDate,2020-08-14T04:19:15+02:00
; #@! TF.GenerationSoftware,Kicad,Pcbnew,(5.99.0-2611-ga723fba70-dirty)
FMAT,2
INCH
T1C0.0157
T2C0.0394
T3C0.0512
T4C0.0591
T5C0.1693
%
G90
G05
T1
X2.225Y-4.05
X2.3031Y-3.6122
X2.3031Y-3.6614
X2.35Y-3.6
X2.3917Y-3.6122
X2.475Y-3.575
X2.5Y-4.4
X2.5398Y-2.3198
X2.6Y-2.3
X2.64Y-2.34
X2.65Y-2.9
X2.65Y-3.1
X2.68Y-4.68
X2.7Y-2.38
X2.76Y-4.84
X2.8642Y-3.4252
X2.8642Y-3.4744
X2.8642Y-3.5236
X2.9134Y-3.4252
X2.9134Y-3.4744
X2.9134Y-3.5236
X2.95Y-3.85
X2.9528Y-4.8425
X3.0Y-3.9
X3.0Y-4.35
X3.0906Y-2.4114
X3.1496Y-4.6457
X3.15Y-4.4
X3.28Y-2.12
X3.3Y-5.05
X3.42Y-2.18
X3.55Y-4.35
X3.575Y-3.05
X3.58Y-2.18
X3.625Y-3.05
T2
X2.95Y-3.15
X2.95Y-3.2484
X2.95Y-3.3469
X3.5209Y-3.15
X3.5209Y-3.3469
X2.45Y-2.75
X2.45Y-2.85
X2.3Y-3.9
X2.3Y-4.0
X2.3Y-4.1
X2.3Y-4.2
X2.3Y-4.3
X2.3Y-4.4
X2.3Y-4.5
X2.3Y-4.6
X2.3Y-4.7598
X2.3Y-4.8598
X2.3Y-4.9598
X2.3Y-5.0598
X2.3Y-5.1598
X2.3Y-5.2598
X2.3Y-5.3598
X2.3Y-5.4598
X2.3Y-5.5598
X2.3Y-5.6598
X4.2Y-3.9
X4.2Y-4.0
X4.2Y-4.1
X4.2Y-4.2
X4.2Y-4.3
X4.2Y-4.4
X4.2Y-4.6
X4.2Y-4.7
X4.2Y-4.8
X4.2Y-4.9
X4.2Y-5.0
X4.2Y-5.1
X4.2Y-5.2
X4.2Y-5.3
X2.45Y-3.325
X2.45Y-3.425
X3.0Y-1.9
X3.0Y-2.5
X3.1Y-1.9
X3.1Y-2.5
X3.2Y-1.9
X3.2Y-2.5
X3.3Y-1.9
X3.3Y-2.5
X3.4Y-1.9
X3.4Y-2.5
X3.5Y-1.9
X3.5Y-2.5
T3
X4.025Y-2.75
X4.025Y-2.9
X4.025Y-3.05
X4.025Y-3.2
X4.025Y-3.35
X4.025Y-3.5
X2.45Y-3.025
X2.45Y-3.175
T5
X4.5276Y-1.9685
X4.5276Y-6.2992
X1.9685Y-6.2992
X1.9685Y-1.9685
T4
G00X3.2197Y-3.028
M15
G01X3.2709Y-3.028
M16
G05
G00X3.2197Y-3.4689
M15
G01X3.2709Y-3.4689
M16
G05
T0
M30
