%TF.GenerationSoftware,KiCad,Pcbnew,(5.99.0-2611-ga723fba70-dirty)*%
%TF.CreationDate,2020-08-14T04:19:11+02:00*%
%TF.ProjectId,rundtisch-nc,72756e64-7469-4736-9368-2d6e632e6b69,rev?*%
%TF.SameCoordinates,Original*%
%TF.FileFunction,Legend,Top*%
%TF.FilePolarity,Positive*%
%FSLAX46Y46*%
G04 Gerber Fmt 4.6, Leading zero omitted, Abs format (unit mm)*
G04 Created by KiCad (PCBNEW (5.99.0-2611-ga723fba70-dirty)) date 2020-08-14 04:19:11*
%MOMM*%
%LPD*%
G01*
G04 APERTURE LIST*
%ADD10C,0.300000*%
%ADD11C,0.150000*%
%ADD12C,0.100000*%
%ADD13C,0.120000*%
G04 APERTURE END LIST*
D10*
X76107142Y-148158571D02*
X75607142Y-147444285D01*
X75250000Y-148158571D02*
X75250000Y-146658571D01*
X75821428Y-146658571D01*
X75964285Y-146730000D01*
X76035714Y-146801428D01*
X76107142Y-146944285D01*
X76107142Y-147158571D01*
X76035714Y-147301428D01*
X75964285Y-147372857D01*
X75821428Y-147444285D01*
X75250000Y-147444285D01*
X77392857Y-147158571D02*
X77392857Y-148158571D01*
X76750000Y-147158571D02*
X76750000Y-147944285D01*
X76821428Y-148087142D01*
X76964285Y-148158571D01*
X77178571Y-148158571D01*
X77321428Y-148087142D01*
X77392857Y-148015714D01*
X78107142Y-147158571D02*
X78107142Y-148158571D01*
X78107142Y-147301428D02*
X78178571Y-147230000D01*
X78321428Y-147158571D01*
X78535714Y-147158571D01*
X78678571Y-147230000D01*
X78750000Y-147372857D01*
X78750000Y-148158571D01*
X80107142Y-148158571D02*
X80107142Y-146658571D01*
X80107142Y-148087142D02*
X79964285Y-148158571D01*
X79678571Y-148158571D01*
X79535714Y-148087142D01*
X79464285Y-148015714D01*
X79392857Y-147872857D01*
X79392857Y-147444285D01*
X79464285Y-147301428D01*
X79535714Y-147230000D01*
X79678571Y-147158571D01*
X79964285Y-147158571D01*
X80107142Y-147230000D01*
X80607142Y-147158571D02*
X81178571Y-147158571D01*
X80821428Y-146658571D02*
X80821428Y-147944285D01*
X80892857Y-148087142D01*
X81035714Y-148158571D01*
X81178571Y-148158571D01*
X81678571Y-148158571D02*
X81678571Y-147158571D01*
X81678571Y-146658571D02*
X81607142Y-146730000D01*
X81678571Y-146801428D01*
X81750000Y-146730000D01*
X81678571Y-146658571D01*
X81678571Y-146801428D01*
X82321428Y-148087142D02*
X82464285Y-148158571D01*
X82750000Y-148158571D01*
X82892857Y-148087142D01*
X82964285Y-147944285D01*
X82964285Y-147872857D01*
X82892857Y-147730000D01*
X82750000Y-147658571D01*
X82535714Y-147658571D01*
X82392857Y-147587142D01*
X82321428Y-147444285D01*
X82321428Y-147372857D01*
X82392857Y-147230000D01*
X82535714Y-147158571D01*
X82750000Y-147158571D01*
X82892857Y-147230000D01*
X84250000Y-148087142D02*
X84107142Y-148158571D01*
X83821428Y-148158571D01*
X83678571Y-148087142D01*
X83607142Y-148015714D01*
X83535714Y-147872857D01*
X83535714Y-147444285D01*
X83607142Y-147301428D01*
X83678571Y-147230000D01*
X83821428Y-147158571D01*
X84107142Y-147158571D01*
X84250000Y-147230000D01*
X84892857Y-148158571D02*
X84892857Y-146658571D01*
X85535714Y-148158571D02*
X85535714Y-147372857D01*
X85464285Y-147230000D01*
X85321428Y-147158571D01*
X85107142Y-147158571D01*
X84964285Y-147230000D01*
X84892857Y-147301428D01*
X87392857Y-148158571D02*
X87392857Y-146658571D01*
X88250000Y-148158571D01*
X88250000Y-146658571D01*
X89821428Y-148015714D02*
X89750000Y-148087142D01*
X89535714Y-148158571D01*
X89392857Y-148158571D01*
X89178571Y-148087142D01*
X89035714Y-147944285D01*
X88964285Y-147801428D01*
X88892857Y-147515714D01*
X88892857Y-147301428D01*
X88964285Y-147015714D01*
X89035714Y-146872857D01*
X89178571Y-146730000D01*
X89392857Y-146658571D01*
X89535714Y-146658571D01*
X89750000Y-146730000D01*
X89821428Y-146801428D01*
X80357142Y-149573571D02*
X80714285Y-150573571D01*
X81071428Y-149573571D01*
X82428571Y-150573571D02*
X81571428Y-150573571D01*
X82000000Y-150573571D02*
X82000000Y-149073571D01*
X81857142Y-149287857D01*
X81714285Y-149430714D01*
X81571428Y-149502142D01*
X83071428Y-150430714D02*
X83142857Y-150502142D01*
X83071428Y-150573571D01*
X83000000Y-150502142D01*
X83071428Y-150430714D01*
X83071428Y-150573571D01*
X84071428Y-149073571D02*
X84214285Y-149073571D01*
X84357142Y-149145000D01*
X84428571Y-149216428D01*
X84500000Y-149359285D01*
X84571428Y-149645000D01*
X84571428Y-150002142D01*
X84500000Y-150287857D01*
X84428571Y-150430714D01*
X84357142Y-150502142D01*
X84214285Y-150573571D01*
X84071428Y-150573571D01*
X83928571Y-150502142D01*
X83857142Y-150430714D01*
X83785714Y-150287857D01*
X83714285Y-150002142D01*
X83714285Y-149645000D01*
X83785714Y-149359285D01*
X83857142Y-149216428D01*
X83928571Y-149145000D01*
X84071428Y-149073571D01*
X75642857Y-152560000D02*
X76357142Y-152560000D01*
X75500000Y-152988571D02*
X76000000Y-151488571D01*
X76500000Y-152988571D01*
X77642857Y-151988571D02*
X77642857Y-152988571D01*
X77000000Y-151988571D02*
X77000000Y-152774285D01*
X77071428Y-152917142D01*
X77214285Y-152988571D01*
X77428571Y-152988571D01*
X77571428Y-152917142D01*
X77642857Y-152845714D01*
X79000000Y-151988571D02*
X79000000Y-153202857D01*
X78928571Y-153345714D01*
X78857142Y-153417142D01*
X78714285Y-153488571D01*
X78500000Y-153488571D01*
X78357142Y-153417142D01*
X79000000Y-152917142D02*
X78857142Y-152988571D01*
X78571428Y-152988571D01*
X78428571Y-152917142D01*
X78357142Y-152845714D01*
X78285714Y-152702857D01*
X78285714Y-152274285D01*
X78357142Y-152131428D01*
X78428571Y-152060000D01*
X78571428Y-151988571D01*
X78857142Y-151988571D01*
X79000000Y-152060000D01*
X80357142Y-151988571D02*
X80357142Y-152988571D01*
X79714285Y-151988571D02*
X79714285Y-152774285D01*
X79785714Y-152917142D01*
X79928571Y-152988571D01*
X80142857Y-152988571D01*
X80285714Y-152917142D01*
X80357142Y-152845714D01*
X81000000Y-152917142D02*
X81142857Y-152988571D01*
X81428571Y-152988571D01*
X81571428Y-152917142D01*
X81642857Y-152774285D01*
X81642857Y-152702857D01*
X81571428Y-152560000D01*
X81428571Y-152488571D01*
X81214285Y-152488571D01*
X81071428Y-152417142D01*
X81000000Y-152274285D01*
X81000000Y-152202857D01*
X81071428Y-152060000D01*
X81214285Y-151988571D01*
X81428571Y-151988571D01*
X81571428Y-152060000D01*
X82071428Y-151988571D02*
X82642857Y-151988571D01*
X82285714Y-151488571D02*
X82285714Y-152774285D01*
X82357142Y-152917142D01*
X82500000Y-152988571D01*
X82642857Y-152988571D01*
X84214285Y-151631428D02*
X84285714Y-151560000D01*
X84428571Y-151488571D01*
X84785714Y-151488571D01*
X84928571Y-151560000D01*
X85000000Y-151631428D01*
X85071428Y-151774285D01*
X85071428Y-151917142D01*
X85000000Y-152131428D01*
X84142857Y-152988571D01*
X85071428Y-152988571D01*
X86000000Y-151488571D02*
X86142857Y-151488571D01*
X86285714Y-151560000D01*
X86357142Y-151631428D01*
X86428571Y-151774285D01*
X86500000Y-152060000D01*
X86500000Y-152417142D01*
X86428571Y-152702857D01*
X86357142Y-152845714D01*
X86285714Y-152917142D01*
X86142857Y-152988571D01*
X86000000Y-152988571D01*
X85857142Y-152917142D01*
X85785714Y-152845714D01*
X85714285Y-152702857D01*
X85642857Y-152417142D01*
X85642857Y-152060000D01*
X85714285Y-151774285D01*
X85785714Y-151631428D01*
X85857142Y-151560000D01*
X86000000Y-151488571D01*
X87071428Y-151631428D02*
X87142857Y-151560000D01*
X87285714Y-151488571D01*
X87642857Y-151488571D01*
X87785714Y-151560000D01*
X87857142Y-151631428D01*
X87928571Y-151774285D01*
X87928571Y-151917142D01*
X87857142Y-152131428D01*
X87000000Y-152988571D01*
X87928571Y-152988571D01*
X88857142Y-151488571D02*
X89000000Y-151488571D01*
X89142857Y-151560000D01*
X89214285Y-151631428D01*
X89285714Y-151774285D01*
X89357142Y-152060000D01*
X89357142Y-152417142D01*
X89285714Y-152702857D01*
X89214285Y-152845714D01*
X89142857Y-152917142D01*
X89000000Y-152988571D01*
X88857142Y-152988571D01*
X88714285Y-152917142D01*
X88642857Y-152845714D01*
X88571428Y-152702857D01*
X88500000Y-152417142D01*
X88500000Y-152060000D01*
X88571428Y-151774285D01*
X88642857Y-151631428D01*
X88714285Y-151560000D01*
X88857142Y-151488571D01*
D11*
X94996000Y-66040000D02*
X75184000Y-66040000D01*
X93726000Y-86614000D02*
X93345000Y-86614000D01*
X75184000Y-66040000D02*
X75184000Y-70104000D01*
X93726000Y-86233000D02*
X93726000Y-86995000D01*
X94361000Y-86614000D02*
X94742000Y-86614000D01*
D12*
G36*
X94361000Y-86995000D02*
G01*
X93726000Y-86614000D01*
X94361000Y-86233000D01*
X94361000Y-86995000D01*
G37*
X94361000Y-86995000D02*
X93726000Y-86614000D01*
X94361000Y-86233000D01*
X94361000Y-86995000D01*
D11*
X94996000Y-70104000D02*
X94996000Y-66040000D01*
X75184000Y-70104000D02*
X94996000Y-70104000D01*
X62865714Y-67952952D02*
X62770476Y-67905333D01*
X62722857Y-67857714D01*
X62675238Y-67762476D01*
X62675238Y-67714857D01*
X62722857Y-67619619D01*
X62770476Y-67572000D01*
X62865714Y-67524380D01*
X63056190Y-67524380D01*
X63151428Y-67572000D01*
X63199047Y-67619619D01*
X63246666Y-67714857D01*
X63246666Y-67762476D01*
X63199047Y-67857714D01*
X63151428Y-67905333D01*
X63056190Y-67952952D01*
X62865714Y-67952952D01*
X62770476Y-68000571D01*
X62722857Y-68048190D01*
X62675238Y-68143428D01*
X62675238Y-68333904D01*
X62722857Y-68429142D01*
X62770476Y-68476761D01*
X62865714Y-68524380D01*
X63056190Y-68524380D01*
X63151428Y-68476761D01*
X63199047Y-68429142D01*
X63246666Y-68333904D01*
X63246666Y-68143428D01*
X63199047Y-68048190D01*
X63151428Y-68000571D01*
X63056190Y-67952952D01*
X64341904Y-68524380D02*
X64865714Y-67857714D01*
X64341904Y-67857714D02*
X64865714Y-68524380D01*
X65913333Y-67524380D02*
X66532380Y-67524380D01*
X66199047Y-67905333D01*
X66341904Y-67905333D01*
X66437142Y-67952952D01*
X66484761Y-68000571D01*
X66532380Y-68095809D01*
X66532380Y-68333904D01*
X66484761Y-68429142D01*
X66437142Y-68476761D01*
X66341904Y-68524380D01*
X66056190Y-68524380D01*
X65960952Y-68476761D01*
X65913333Y-68429142D01*
X66865714Y-67524380D02*
X67484761Y-67524380D01*
X67151428Y-67905333D01*
X67294285Y-67905333D01*
X67389523Y-67952952D01*
X67437142Y-68000571D01*
X67484761Y-68095809D01*
X67484761Y-68333904D01*
X67437142Y-68429142D01*
X67389523Y-68476761D01*
X67294285Y-68524380D01*
X67008571Y-68524380D01*
X66913333Y-68476761D01*
X66865714Y-68429142D01*
X68103809Y-67524380D02*
X68199047Y-67524380D01*
X68294285Y-67572000D01*
X68341904Y-67619619D01*
X68389523Y-67714857D01*
X68437142Y-67905333D01*
X68437142Y-68143428D01*
X68389523Y-68333904D01*
X68341904Y-68429142D01*
X68294285Y-68476761D01*
X68199047Y-68524380D01*
X68103809Y-68524380D01*
X68008571Y-68476761D01*
X67960952Y-68429142D01*
X67913333Y-68333904D01*
X67865714Y-68143428D01*
X67865714Y-67905333D01*
X67913333Y-67714857D01*
X67960952Y-67619619D01*
X68008571Y-67572000D01*
X68103809Y-67524380D01*
X69818095Y-67524380D02*
X70008571Y-67524380D01*
X70103809Y-67572000D01*
X70199047Y-67667238D01*
X70246666Y-67857714D01*
X70246666Y-68191047D01*
X70199047Y-68381523D01*
X70103809Y-68476761D01*
X70008571Y-68524380D01*
X69818095Y-68524380D01*
X69722857Y-68476761D01*
X69627619Y-68381523D01*
X69580000Y-68191047D01*
X69580000Y-67857714D01*
X69627619Y-67667238D01*
X69722857Y-67572000D01*
X69818095Y-67524380D01*
X70675238Y-68524380D02*
X70675238Y-67524380D01*
X71103809Y-68524380D02*
X71103809Y-68000571D01*
X71056190Y-67905333D01*
X70960952Y-67857714D01*
X70818095Y-67857714D01*
X70722857Y-67905333D01*
X70675238Y-67952952D01*
X71580000Y-68524380D02*
X71580000Y-67857714D01*
X71580000Y-67952952D02*
X71627619Y-67905333D01*
X71722857Y-67857714D01*
X71865714Y-67857714D01*
X71960952Y-67905333D01*
X72008571Y-68000571D01*
X72008571Y-68524380D01*
X72008571Y-68000571D02*
X72056190Y-67905333D01*
X72151428Y-67857714D01*
X72294285Y-67857714D01*
X72389523Y-67905333D01*
X72437142Y-68000571D01*
X72437142Y-68524380D01*
X73675238Y-67857714D02*
X74437142Y-68143428D01*
X73675238Y-68429142D01*
%TO.C,J4*%
X64452380Y-78933333D02*
X65166666Y-78933333D01*
X65309523Y-78980952D01*
X65404761Y-79076190D01*
X65452380Y-79219047D01*
X65452380Y-79314285D01*
X64785714Y-78028571D02*
X65452380Y-78028571D01*
X64404761Y-78266666D02*
X65119047Y-78504761D01*
X65119047Y-77885714D01*
%TO.C,R3*%
X71412380Y-84621666D02*
X70936190Y-84955000D01*
X71412380Y-85193095D02*
X70412380Y-85193095D01*
X70412380Y-84812142D01*
X70460000Y-84716904D01*
X70507619Y-84669285D01*
X70602857Y-84621666D01*
X70745714Y-84621666D01*
X70840952Y-84669285D01*
X70888571Y-84716904D01*
X70936190Y-84812142D01*
X70936190Y-85193095D01*
X70412380Y-84288333D02*
X70412380Y-83669285D01*
X70793333Y-84002619D01*
X70793333Y-83859761D01*
X70840952Y-83764523D01*
X70888571Y-83716904D01*
X70983809Y-83669285D01*
X71221904Y-83669285D01*
X71317142Y-83716904D01*
X71364761Y-83764523D01*
X71412380Y-83859761D01*
X71412380Y-84145476D01*
X71364761Y-84240714D01*
X71317142Y-84288333D01*
%TO.C,R12*%
X96639142Y-88717380D02*
X96305809Y-88241190D01*
X96067714Y-88717380D02*
X96067714Y-87717380D01*
X96448666Y-87717380D01*
X96543904Y-87765000D01*
X96591523Y-87812619D01*
X96639142Y-87907857D01*
X96639142Y-88050714D01*
X96591523Y-88145952D01*
X96543904Y-88193571D01*
X96448666Y-88241190D01*
X96067714Y-88241190D01*
X97591523Y-88717380D02*
X97020095Y-88717380D01*
X97305809Y-88717380D02*
X97305809Y-87717380D01*
X97210571Y-87860238D01*
X97115333Y-87955476D01*
X97020095Y-88003095D01*
X97972476Y-87812619D02*
X98020095Y-87765000D01*
X98115333Y-87717380D01*
X98353428Y-87717380D01*
X98448666Y-87765000D01*
X98496285Y-87812619D01*
X98543904Y-87907857D01*
X98543904Y-88003095D01*
X98496285Y-88145952D01*
X97924857Y-88717380D01*
X98543904Y-88717380D01*
%TO.C,R15*%
X96639142Y-77922380D02*
X96305809Y-77446190D01*
X96067714Y-77922380D02*
X96067714Y-76922380D01*
X96448666Y-76922380D01*
X96543904Y-76970000D01*
X96591523Y-77017619D01*
X96639142Y-77112857D01*
X96639142Y-77255714D01*
X96591523Y-77350952D01*
X96543904Y-77398571D01*
X96448666Y-77446190D01*
X96067714Y-77446190D01*
X97591523Y-77922380D02*
X97020095Y-77922380D01*
X97305809Y-77922380D02*
X97305809Y-76922380D01*
X97210571Y-77065238D01*
X97115333Y-77160476D01*
X97020095Y-77208095D01*
X98496285Y-76922380D02*
X98020095Y-76922380D01*
X97972476Y-77398571D01*
X98020095Y-77350952D01*
X98115333Y-77303333D01*
X98353428Y-77303333D01*
X98448666Y-77350952D01*
X98496285Y-77398571D01*
X98543904Y-77493809D01*
X98543904Y-77731904D01*
X98496285Y-77827142D01*
X98448666Y-77874761D01*
X98353428Y-77922380D01*
X98115333Y-77922380D01*
X98020095Y-77874761D01*
X97972476Y-77827142D01*
%TO.C,R7*%
X79192380Y-71540666D02*
X78716190Y-71874000D01*
X79192380Y-72112095D02*
X78192380Y-72112095D01*
X78192380Y-71731142D01*
X78240000Y-71635904D01*
X78287619Y-71588285D01*
X78382857Y-71540666D01*
X78525714Y-71540666D01*
X78620952Y-71588285D01*
X78668571Y-71635904D01*
X78716190Y-71731142D01*
X78716190Y-72112095D01*
X78192380Y-71207333D02*
X78192380Y-70540666D01*
X79192380Y-70969238D01*
%TO.C,R19*%
X80764142Y-128755380D02*
X80430809Y-128279190D01*
X80192714Y-128755380D02*
X80192714Y-127755380D01*
X80573666Y-127755380D01*
X80668904Y-127803000D01*
X80716523Y-127850619D01*
X80764142Y-127945857D01*
X80764142Y-128088714D01*
X80716523Y-128183952D01*
X80668904Y-128231571D01*
X80573666Y-128279190D01*
X80192714Y-128279190D01*
X81716523Y-128755380D02*
X81145095Y-128755380D01*
X81430809Y-128755380D02*
X81430809Y-127755380D01*
X81335571Y-127898238D01*
X81240333Y-127993476D01*
X81145095Y-128041095D01*
X82192714Y-128755380D02*
X82383190Y-128755380D01*
X82478428Y-128707761D01*
X82526047Y-128660142D01*
X82621285Y-128517285D01*
X82668904Y-128326809D01*
X82668904Y-127945857D01*
X82621285Y-127850619D01*
X82573666Y-127803000D01*
X82478428Y-127755380D01*
X82287952Y-127755380D01*
X82192714Y-127803000D01*
X82145095Y-127850619D01*
X82097476Y-127945857D01*
X82097476Y-128183952D01*
X82145095Y-128279190D01*
X82192714Y-128326809D01*
X82287952Y-128374428D01*
X82478428Y-128374428D01*
X82573666Y-128326809D01*
X82621285Y-128279190D01*
X82668904Y-128183952D01*
%TO.C,R21*%
X75452380Y-124596590D02*
X74976190Y-124929923D01*
X75452380Y-125168018D02*
X74452380Y-125168018D01*
X74452380Y-124787066D01*
X74500000Y-124691828D01*
X74547619Y-124644209D01*
X74642857Y-124596590D01*
X74785714Y-124596590D01*
X74880952Y-124644209D01*
X74928571Y-124691828D01*
X74976190Y-124787066D01*
X74976190Y-125168018D01*
X74547619Y-124215637D02*
X74500000Y-124168018D01*
X74452380Y-124072780D01*
X74452380Y-123834685D01*
X74500000Y-123739447D01*
X74547619Y-123691828D01*
X74642857Y-123644209D01*
X74738095Y-123644209D01*
X74880952Y-123691828D01*
X75452380Y-124263256D01*
X75452380Y-123644209D01*
X75452380Y-122691828D02*
X75452380Y-123263256D01*
X75452380Y-122977542D02*
X74452380Y-122977542D01*
X74595238Y-123072780D01*
X74690476Y-123168018D01*
X74738095Y-123263256D01*
%TO.C,U2*%
X97790095Y-66000380D02*
X97790095Y-66809904D01*
X97837714Y-66905142D01*
X97885333Y-66952761D01*
X97980571Y-67000380D01*
X98171047Y-67000380D01*
X98266285Y-66952761D01*
X98313904Y-66905142D01*
X98361523Y-66809904D01*
X98361523Y-66000380D01*
X98790095Y-66095619D02*
X98837714Y-66048000D01*
X98932952Y-66000380D01*
X99171047Y-66000380D01*
X99266285Y-66048000D01*
X99313904Y-66095619D01*
X99361523Y-66190857D01*
X99361523Y-66286095D01*
X99313904Y-66428952D01*
X98742476Y-67000380D01*
X99361523Y-67000380D01*
X90995476Y-62952380D02*
X90805000Y-62952380D01*
X90709761Y-63000000D01*
X90662142Y-63047619D01*
X90566904Y-63190476D01*
X90519285Y-63380952D01*
X90519285Y-63761904D01*
X90566904Y-63857142D01*
X90614523Y-63904761D01*
X90709761Y-63952380D01*
X90900238Y-63952380D01*
X90995476Y-63904761D01*
X91043095Y-63857142D01*
X91090714Y-63761904D01*
X91090714Y-63523809D01*
X91043095Y-63428571D01*
X90995476Y-63380952D01*
X90900238Y-63333333D01*
X90709761Y-63333333D01*
X90614523Y-63380952D01*
X90566904Y-63428571D01*
X90519285Y-63523809D01*
X73469523Y-48712380D02*
X72898095Y-48712380D01*
X73183809Y-48712380D02*
X73183809Y-47712380D01*
X73088571Y-47855238D01*
X72993333Y-47950476D01*
X72898095Y-47998095D01*
X73850476Y-47807619D02*
X73898095Y-47760000D01*
X73993333Y-47712380D01*
X74231428Y-47712380D01*
X74326666Y-47760000D01*
X74374285Y-47807619D01*
X74421904Y-47902857D01*
X74421904Y-47998095D01*
X74374285Y-48140952D01*
X73802857Y-48712380D01*
X74421904Y-48712380D01*
X74580714Y-63952380D02*
X74009285Y-63952380D01*
X74295000Y-63952380D02*
X74295000Y-62952380D01*
X74199761Y-63095238D01*
X74104523Y-63190476D01*
X74009285Y-63238095D01*
X90471666Y-47712380D02*
X91138333Y-47712380D01*
X90709761Y-48712380D01*
%TO.C,R9*%
X91892380Y-71540666D02*
X91416190Y-71874000D01*
X91892380Y-72112095D02*
X90892380Y-72112095D01*
X90892380Y-71731142D01*
X90940000Y-71635904D01*
X90987619Y-71588285D01*
X91082857Y-71540666D01*
X91225714Y-71540666D01*
X91320952Y-71588285D01*
X91368571Y-71635904D01*
X91416190Y-71731142D01*
X91416190Y-72112095D01*
X91892380Y-71064476D02*
X91892380Y-70874000D01*
X91844761Y-70778761D01*
X91797142Y-70731142D01*
X91654285Y-70635904D01*
X91463809Y-70588285D01*
X91082857Y-70588285D01*
X90987619Y-70635904D01*
X90940000Y-70683523D01*
X90892380Y-70778761D01*
X90892380Y-70969238D01*
X90940000Y-71064476D01*
X90987619Y-71112095D01*
X91082857Y-71159714D01*
X91320952Y-71159714D01*
X91416190Y-71112095D01*
X91463809Y-71064476D01*
X91511428Y-70969238D01*
X91511428Y-70778761D01*
X91463809Y-70683523D01*
X91416190Y-70635904D01*
X91320952Y-70588285D01*
%TO.C,SW1*%
X65604761Y-87133333D02*
X65652380Y-86990476D01*
X65652380Y-86752380D01*
X65604761Y-86657142D01*
X65557142Y-86609523D01*
X65461904Y-86561904D01*
X65366666Y-86561904D01*
X65271428Y-86609523D01*
X65223809Y-86657142D01*
X65176190Y-86752380D01*
X65128571Y-86942857D01*
X65080952Y-87038095D01*
X65033333Y-87085714D01*
X64938095Y-87133333D01*
X64842857Y-87133333D01*
X64747619Y-87085714D01*
X64700000Y-87038095D01*
X64652380Y-86942857D01*
X64652380Y-86704761D01*
X64700000Y-86561904D01*
X64652380Y-86228571D02*
X65652380Y-85990476D01*
X64938095Y-85800000D01*
X65652380Y-85609523D01*
X64652380Y-85371428D01*
X65652380Y-84466666D02*
X65652380Y-85038095D01*
X65652380Y-84752380D02*
X64652380Y-84752380D01*
X64795238Y-84847619D01*
X64890476Y-84942857D01*
X64938095Y-85038095D01*
%TO.C,C2*%
X88367142Y-126150666D02*
X88414761Y-126198285D01*
X88462380Y-126341142D01*
X88462380Y-126436380D01*
X88414761Y-126579238D01*
X88319523Y-126674476D01*
X88224285Y-126722095D01*
X88033809Y-126769714D01*
X87890952Y-126769714D01*
X87700476Y-126722095D01*
X87605238Y-126674476D01*
X87510000Y-126579238D01*
X87462380Y-126436380D01*
X87462380Y-126341142D01*
X87510000Y-126198285D01*
X87557619Y-126150666D01*
X87557619Y-125769714D02*
X87510000Y-125722095D01*
X87462380Y-125626857D01*
X87462380Y-125388761D01*
X87510000Y-125293523D01*
X87557619Y-125245904D01*
X87652857Y-125198285D01*
X87748095Y-125198285D01*
X87890952Y-125245904D01*
X88462380Y-125817333D01*
X88462380Y-125198285D01*
%TO.C,J3*%
X64652380Y-71533333D02*
X65366666Y-71533333D01*
X65509523Y-71580952D01*
X65604761Y-71676190D01*
X65652380Y-71819047D01*
X65652380Y-71914285D01*
X64652380Y-71152380D02*
X64652380Y-70533333D01*
X65033333Y-70866666D01*
X65033333Y-70723809D01*
X65080952Y-70628571D01*
X65128571Y-70580952D01*
X65223809Y-70533333D01*
X65461904Y-70533333D01*
X65557142Y-70580952D01*
X65604761Y-70628571D01*
X65652380Y-70723809D01*
X65652380Y-71009523D01*
X65604761Y-71104761D01*
X65557142Y-71152380D01*
%TO.C,R4*%
X89352380Y-71540666D02*
X88876190Y-71874000D01*
X89352380Y-72112095D02*
X88352380Y-72112095D01*
X88352380Y-71731142D01*
X88400000Y-71635904D01*
X88447619Y-71588285D01*
X88542857Y-71540666D01*
X88685714Y-71540666D01*
X88780952Y-71588285D01*
X88828571Y-71635904D01*
X88876190Y-71731142D01*
X88876190Y-72112095D01*
X88685714Y-70683523D02*
X89352380Y-70683523D01*
X88304761Y-70921619D02*
X89019047Y-71159714D01*
X89019047Y-70540666D01*
%TO.C,R8*%
X76652380Y-71540666D02*
X76176190Y-71874000D01*
X76652380Y-72112095D02*
X75652380Y-72112095D01*
X75652380Y-71731142D01*
X75700000Y-71635904D01*
X75747619Y-71588285D01*
X75842857Y-71540666D01*
X75985714Y-71540666D01*
X76080952Y-71588285D01*
X76128571Y-71635904D01*
X76176190Y-71731142D01*
X76176190Y-72112095D01*
X76080952Y-70969238D02*
X76033333Y-71064476D01*
X75985714Y-71112095D01*
X75890476Y-71159714D01*
X75842857Y-71159714D01*
X75747619Y-71112095D01*
X75700000Y-71064476D01*
X75652380Y-70969238D01*
X75652380Y-70778761D01*
X75700000Y-70683523D01*
X75747619Y-70635904D01*
X75842857Y-70588285D01*
X75890476Y-70588285D01*
X75985714Y-70635904D01*
X76033333Y-70683523D01*
X76080952Y-70778761D01*
X76080952Y-70969238D01*
X76128571Y-71064476D01*
X76176190Y-71112095D01*
X76271428Y-71159714D01*
X76461904Y-71159714D01*
X76557142Y-71112095D01*
X76604761Y-71064476D01*
X76652380Y-70969238D01*
X76652380Y-70778761D01*
X76604761Y-70683523D01*
X76557142Y-70635904D01*
X76461904Y-70588285D01*
X76271428Y-70588285D01*
X76176190Y-70635904D01*
X76128571Y-70683523D01*
X76080952Y-70778761D01*
%TO.C,U3*%
X78192380Y-125393171D02*
X79001904Y-125393171D01*
X79097142Y-125345552D01*
X79144761Y-125297933D01*
X79192380Y-125202695D01*
X79192380Y-125012219D01*
X79144761Y-124916981D01*
X79097142Y-124869362D01*
X79001904Y-124821743D01*
X78192380Y-124821743D01*
X78192380Y-124440790D02*
X78192380Y-123821743D01*
X78573333Y-124155076D01*
X78573333Y-124012219D01*
X78620952Y-123916981D01*
X78668571Y-123869362D01*
X78763809Y-123821743D01*
X79001904Y-123821743D01*
X79097142Y-123869362D01*
X79144761Y-123916981D01*
X79192380Y-124012219D01*
X79192380Y-124297933D01*
X79144761Y-124393171D01*
X79097142Y-124440790D01*
%TO.C,C1*%
X92432142Y-105576666D02*
X92479761Y-105624285D01*
X92527380Y-105767142D01*
X92527380Y-105862380D01*
X92479761Y-106005238D01*
X92384523Y-106100476D01*
X92289285Y-106148095D01*
X92098809Y-106195714D01*
X91955952Y-106195714D01*
X91765476Y-106148095D01*
X91670238Y-106100476D01*
X91575000Y-106005238D01*
X91527380Y-105862380D01*
X91527380Y-105767142D01*
X91575000Y-105624285D01*
X91622619Y-105576666D01*
X92527380Y-104624285D02*
X92527380Y-105195714D01*
X92527380Y-104910000D02*
X91527380Y-104910000D01*
X91670238Y-105005238D01*
X91765476Y-105100476D01*
X91813095Y-105195714D01*
%TO.C,R10*%
X86812380Y-72016857D02*
X86336190Y-72350190D01*
X86812380Y-72588285D02*
X85812380Y-72588285D01*
X85812380Y-72207333D01*
X85860000Y-72112095D01*
X85907619Y-72064476D01*
X86002857Y-72016857D01*
X86145714Y-72016857D01*
X86240952Y-72064476D01*
X86288571Y-72112095D01*
X86336190Y-72207333D01*
X86336190Y-72588285D01*
X86812380Y-71064476D02*
X86812380Y-71635904D01*
X86812380Y-71350190D02*
X85812380Y-71350190D01*
X85955238Y-71445428D01*
X86050476Y-71540666D01*
X86098095Y-71635904D01*
X85812380Y-70445428D02*
X85812380Y-70350190D01*
X85860000Y-70254952D01*
X85907619Y-70207333D01*
X86002857Y-70159714D01*
X86193333Y-70112095D01*
X86431428Y-70112095D01*
X86621904Y-70159714D01*
X86717142Y-70207333D01*
X86764761Y-70254952D01*
X86812380Y-70350190D01*
X86812380Y-70445428D01*
X86764761Y-70540666D01*
X86717142Y-70588285D01*
X86621904Y-70635904D01*
X86431428Y-70683523D01*
X86193333Y-70683523D01*
X86002857Y-70635904D01*
X85907619Y-70588285D01*
X85860000Y-70540666D01*
X85812380Y-70445428D01*
%TO.C,R1*%
X74112380Y-73191666D02*
X73636190Y-73525000D01*
X74112380Y-73763095D02*
X73112380Y-73763095D01*
X73112380Y-73382142D01*
X73160000Y-73286904D01*
X73207619Y-73239285D01*
X73302857Y-73191666D01*
X73445714Y-73191666D01*
X73540952Y-73239285D01*
X73588571Y-73286904D01*
X73636190Y-73382142D01*
X73636190Y-73763095D01*
X74112380Y-72239285D02*
X74112380Y-72810714D01*
X74112380Y-72525000D02*
X73112380Y-72525000D01*
X73255238Y-72620238D01*
X73350476Y-72715476D01*
X73398095Y-72810714D01*
%TO.C,C3*%
X78065333Y-121769142D02*
X78017714Y-121816761D01*
X77874857Y-121864380D01*
X77779619Y-121864380D01*
X77636761Y-121816761D01*
X77541523Y-121721523D01*
X77493904Y-121626285D01*
X77446285Y-121435809D01*
X77446285Y-121292952D01*
X77493904Y-121102476D01*
X77541523Y-121007238D01*
X77636761Y-120912000D01*
X77779619Y-120864380D01*
X77874857Y-120864380D01*
X78017714Y-120912000D01*
X78065333Y-120959619D01*
X78398666Y-120864380D02*
X79017714Y-120864380D01*
X78684380Y-121245333D01*
X78827238Y-121245333D01*
X78922476Y-121292952D01*
X78970095Y-121340571D01*
X79017714Y-121435809D01*
X79017714Y-121673904D01*
X78970095Y-121769142D01*
X78922476Y-121816761D01*
X78827238Y-121864380D01*
X78541523Y-121864380D01*
X78446285Y-121816761D01*
X78398666Y-121769142D01*
%TO.C,D1*%
X96035904Y-85542380D02*
X96035904Y-84542380D01*
X96274000Y-84542380D01*
X96416857Y-84590000D01*
X96512095Y-84685238D01*
X96559714Y-84780476D01*
X96607333Y-84970952D01*
X96607333Y-85113809D01*
X96559714Y-85304285D01*
X96512095Y-85399523D01*
X96416857Y-85494761D01*
X96274000Y-85542380D01*
X96035904Y-85542380D01*
X97559714Y-85542380D02*
X96988285Y-85542380D01*
X97274000Y-85542380D02*
X97274000Y-84542380D01*
X97178761Y-84685238D01*
X97083523Y-84780476D01*
X96988285Y-84828095D01*
%TO.C,SW3*%
X76396666Y-75714761D02*
X76539523Y-75762380D01*
X76777619Y-75762380D01*
X76872857Y-75714761D01*
X76920476Y-75667142D01*
X76968095Y-75571904D01*
X76968095Y-75476666D01*
X76920476Y-75381428D01*
X76872857Y-75333809D01*
X76777619Y-75286190D01*
X76587142Y-75238571D01*
X76491904Y-75190952D01*
X76444285Y-75143333D01*
X76396666Y-75048095D01*
X76396666Y-74952857D01*
X76444285Y-74857619D01*
X76491904Y-74810000D01*
X76587142Y-74762380D01*
X76825238Y-74762380D01*
X76968095Y-74810000D01*
X77301428Y-74762380D02*
X77539523Y-75762380D01*
X77730000Y-75048095D01*
X77920476Y-75762380D01*
X78158571Y-74762380D01*
X78444285Y-74762380D02*
X79063333Y-74762380D01*
X78730000Y-75143333D01*
X78872857Y-75143333D01*
X78968095Y-75190952D01*
X79015714Y-75238571D01*
X79063333Y-75333809D01*
X79063333Y-75571904D01*
X79015714Y-75667142D01*
X78968095Y-75714761D01*
X78872857Y-75762380D01*
X78587142Y-75762380D01*
X78491904Y-75714761D01*
X78444285Y-75667142D01*
%TO.C,R11*%
X81732380Y-72016857D02*
X81256190Y-72350190D01*
X81732380Y-72588285D02*
X80732380Y-72588285D01*
X80732380Y-72207333D01*
X80780000Y-72112095D01*
X80827619Y-72064476D01*
X80922857Y-72016857D01*
X81065714Y-72016857D01*
X81160952Y-72064476D01*
X81208571Y-72112095D01*
X81256190Y-72207333D01*
X81256190Y-72588285D01*
X81732380Y-71064476D02*
X81732380Y-71635904D01*
X81732380Y-71350190D02*
X80732380Y-71350190D01*
X80875238Y-71445428D01*
X80970476Y-71540666D01*
X81018095Y-71635904D01*
X81732380Y-70112095D02*
X81732380Y-70683523D01*
X81732380Y-70397809D02*
X80732380Y-70397809D01*
X80875238Y-70493047D01*
X80970476Y-70588285D01*
X81018095Y-70683523D01*
%TO.C,R6*%
X84272380Y-71540666D02*
X83796190Y-71874000D01*
X84272380Y-72112095D02*
X83272380Y-72112095D01*
X83272380Y-71731142D01*
X83320000Y-71635904D01*
X83367619Y-71588285D01*
X83462857Y-71540666D01*
X83605714Y-71540666D01*
X83700952Y-71588285D01*
X83748571Y-71635904D01*
X83796190Y-71731142D01*
X83796190Y-72112095D01*
X83272380Y-70683523D02*
X83272380Y-70874000D01*
X83320000Y-70969238D01*
X83367619Y-71016857D01*
X83510476Y-71112095D01*
X83700952Y-71159714D01*
X84081904Y-71159714D01*
X84177142Y-71112095D01*
X84224761Y-71064476D01*
X84272380Y-70969238D01*
X84272380Y-70778761D01*
X84224761Y-70683523D01*
X84177142Y-70635904D01*
X84081904Y-70588285D01*
X83843809Y-70588285D01*
X83748571Y-70635904D01*
X83700952Y-70683523D01*
X83653333Y-70778761D01*
X83653333Y-70969238D01*
X83700952Y-71064476D01*
X83748571Y-71112095D01*
X83843809Y-71159714D01*
%TO.C,R14*%
X96639142Y-83002380D02*
X96305809Y-82526190D01*
X96067714Y-83002380D02*
X96067714Y-82002380D01*
X96448666Y-82002380D01*
X96543904Y-82050000D01*
X96591523Y-82097619D01*
X96639142Y-82192857D01*
X96639142Y-82335714D01*
X96591523Y-82430952D01*
X96543904Y-82478571D01*
X96448666Y-82526190D01*
X96067714Y-82526190D01*
X97591523Y-83002380D02*
X97020095Y-83002380D01*
X97305809Y-83002380D02*
X97305809Y-82002380D01*
X97210571Y-82145238D01*
X97115333Y-82240476D01*
X97020095Y-82288095D01*
X98448666Y-82335714D02*
X98448666Y-83002380D01*
X98210571Y-81954761D02*
X97972476Y-82669047D01*
X98591523Y-82669047D01*
%TO.C,C4*%
X99918333Y-120627142D02*
X99870714Y-120674761D01*
X99727857Y-120722380D01*
X99632619Y-120722380D01*
X99489761Y-120674761D01*
X99394523Y-120579523D01*
X99346904Y-120484285D01*
X99299285Y-120293809D01*
X99299285Y-120150952D01*
X99346904Y-119960476D01*
X99394523Y-119865238D01*
X99489761Y-119770000D01*
X99632619Y-119722380D01*
X99727857Y-119722380D01*
X99870714Y-119770000D01*
X99918333Y-119817619D01*
X100775476Y-120055714D02*
X100775476Y-120722380D01*
X100537380Y-119674761D02*
X100299285Y-120389047D01*
X100918333Y-120389047D01*
%TO.C,L1*%
X92543333Y-119197380D02*
X92067142Y-119197380D01*
X92067142Y-118197380D01*
X93400476Y-119197380D02*
X92829047Y-119197380D01*
X93114761Y-119197380D02*
X93114761Y-118197380D01*
X93019523Y-118340238D01*
X92924285Y-118435476D01*
X92829047Y-118483095D01*
%TO.C,R20*%
X77081142Y-119832380D02*
X76747809Y-119356190D01*
X76509714Y-119832380D02*
X76509714Y-118832380D01*
X76890666Y-118832380D01*
X76985904Y-118880000D01*
X77033523Y-118927619D01*
X77081142Y-119022857D01*
X77081142Y-119165714D01*
X77033523Y-119260952D01*
X76985904Y-119308571D01*
X76890666Y-119356190D01*
X76509714Y-119356190D01*
X77462095Y-118927619D02*
X77509714Y-118880000D01*
X77604952Y-118832380D01*
X77843047Y-118832380D01*
X77938285Y-118880000D01*
X77985904Y-118927619D01*
X78033523Y-119022857D01*
X78033523Y-119118095D01*
X77985904Y-119260952D01*
X77414476Y-119832380D01*
X78033523Y-119832380D01*
X78652571Y-118832380D02*
X78747809Y-118832380D01*
X78843047Y-118880000D01*
X78890666Y-118927619D01*
X78938285Y-119022857D01*
X78985904Y-119213333D01*
X78985904Y-119451428D01*
X78938285Y-119641904D01*
X78890666Y-119737142D01*
X78843047Y-119784761D01*
X78747809Y-119832380D01*
X78652571Y-119832380D01*
X78557333Y-119784761D01*
X78509714Y-119737142D01*
X78462095Y-119641904D01*
X78414476Y-119451428D01*
X78414476Y-119213333D01*
X78462095Y-119022857D01*
X78509714Y-118927619D01*
X78557333Y-118880000D01*
X78652571Y-118832380D01*
%TO.C,D2*%
X96035904Y-80462380D02*
X96035904Y-79462380D01*
X96274000Y-79462380D01*
X96416857Y-79510000D01*
X96512095Y-79605238D01*
X96559714Y-79700476D01*
X96607333Y-79890952D01*
X96607333Y-80033809D01*
X96559714Y-80224285D01*
X96512095Y-80319523D01*
X96416857Y-80414761D01*
X96274000Y-80462380D01*
X96035904Y-80462380D01*
X96988285Y-79557619D02*
X97035904Y-79510000D01*
X97131142Y-79462380D01*
X97369238Y-79462380D01*
X97464476Y-79510000D01*
X97512095Y-79557619D01*
X97559714Y-79652857D01*
X97559714Y-79748095D01*
X97512095Y-79890952D01*
X96940666Y-80462380D01*
X97559714Y-80462380D01*
%TO.C,R5*%
X94432380Y-71540666D02*
X93956190Y-71874000D01*
X94432380Y-72112095D02*
X93432380Y-72112095D01*
X93432380Y-71731142D01*
X93480000Y-71635904D01*
X93527619Y-71588285D01*
X93622857Y-71540666D01*
X93765714Y-71540666D01*
X93860952Y-71588285D01*
X93908571Y-71635904D01*
X93956190Y-71731142D01*
X93956190Y-72112095D01*
X93432380Y-70635904D02*
X93432380Y-71112095D01*
X93908571Y-71159714D01*
X93860952Y-71112095D01*
X93813333Y-71016857D01*
X93813333Y-70778761D01*
X93860952Y-70683523D01*
X93908571Y-70635904D01*
X94003809Y-70588285D01*
X94241904Y-70588285D01*
X94337142Y-70635904D01*
X94384761Y-70683523D01*
X94432380Y-70778761D01*
X94432380Y-71016857D01*
X94384761Y-71112095D01*
X94337142Y-71159714D01*
%TO.C,D3*%
X84859904Y-116784380D02*
X84859904Y-115784380D01*
X85098000Y-115784380D01*
X85240857Y-115832000D01*
X85336095Y-115927238D01*
X85383714Y-116022476D01*
X85431333Y-116212952D01*
X85431333Y-116355809D01*
X85383714Y-116546285D01*
X85336095Y-116641523D01*
X85240857Y-116736761D01*
X85098000Y-116784380D01*
X84859904Y-116784380D01*
X85764666Y-115784380D02*
X86383714Y-115784380D01*
X86050380Y-116165333D01*
X86193238Y-116165333D01*
X86288476Y-116212952D01*
X86336095Y-116260571D01*
X86383714Y-116355809D01*
X86383714Y-116593904D01*
X86336095Y-116689142D01*
X86288476Y-116736761D01*
X86193238Y-116784380D01*
X85907523Y-116784380D01*
X85812285Y-116736761D01*
X85764666Y-116689142D01*
%TO.C,R2*%
X71412380Y-80811666D02*
X70936190Y-81145000D01*
X71412380Y-81383095D02*
X70412380Y-81383095D01*
X70412380Y-81002142D01*
X70460000Y-80906904D01*
X70507619Y-80859285D01*
X70602857Y-80811666D01*
X70745714Y-80811666D01*
X70840952Y-80859285D01*
X70888571Y-80906904D01*
X70936190Y-81002142D01*
X70936190Y-81383095D01*
X70507619Y-80430714D02*
X70460000Y-80383095D01*
X70412380Y-80287857D01*
X70412380Y-80049761D01*
X70460000Y-79954523D01*
X70507619Y-79906904D01*
X70602857Y-79859285D01*
X70698095Y-79859285D01*
X70840952Y-79906904D01*
X71412380Y-80478333D01*
X71412380Y-79859285D01*
%TO.C,U1*%
X76922380Y-106106904D02*
X77731904Y-106106904D01*
X77827142Y-106059285D01*
X77874761Y-106011666D01*
X77922380Y-105916428D01*
X77922380Y-105725952D01*
X77874761Y-105630714D01*
X77827142Y-105583095D01*
X77731904Y-105535476D01*
X76922380Y-105535476D01*
X77922380Y-104535476D02*
X77922380Y-105106904D01*
X77922380Y-104821190D02*
X76922380Y-104821190D01*
X77065238Y-104916428D01*
X77160476Y-105011666D01*
X77208095Y-105106904D01*
%TO.C,G\u002A\u002A\u002A*%
G36*
X80208865Y-135802283D02*
G01*
X80254465Y-135810883D01*
X80309234Y-135825702D01*
X80309234Y-135902526D01*
X80308492Y-135943166D01*
X80306564Y-135971013D01*
X80304364Y-135979351D01*
X80290559Y-135974848D01*
X80261880Y-135963577D01*
X80250115Y-135958719D01*
X80195779Y-135945559D01*
X80128449Y-135942815D01*
X80058458Y-135949940D01*
X79996139Y-135966385D01*
X79980619Y-135972990D01*
X79923703Y-136009811D01*
X79864823Y-136064353D01*
X79810183Y-136129888D01*
X79765986Y-136199691D01*
X79759223Y-136213001D01*
X79734601Y-136267281D01*
X79713946Y-136322094D01*
X79696931Y-136380227D01*
X79683229Y-136444467D01*
X79672512Y-136517600D01*
X79664452Y-136602412D01*
X79658721Y-136701689D01*
X79654993Y-136818218D01*
X79652940Y-136954785D01*
X79652233Y-137114177D01*
X79652227Y-137123060D01*
X79652004Y-137551548D01*
X79510248Y-137551548D01*
X79510248Y-135837595D01*
X79652004Y-135837595D01*
X79652359Y-136027677D01*
X79652713Y-136217758D01*
X79702038Y-136114663D01*
X79757563Y-136015197D01*
X79819460Y-135937726D01*
X79890983Y-135878658D01*
X79942522Y-135849243D01*
X80028545Y-135817370D01*
X80120372Y-135801342D01*
X80208865Y-135802283D01*
G37*
G36*
X96900319Y-135183397D02*
G01*
X96909801Y-135208486D01*
X96926571Y-135255240D01*
X96949685Y-135320897D01*
X96978201Y-135402698D01*
X97011176Y-135497883D01*
X97047668Y-135603691D01*
X97086735Y-135717363D01*
X97127433Y-135836137D01*
X97168819Y-135957254D01*
X97209953Y-136077953D01*
X97249890Y-136195475D01*
X97287688Y-136307058D01*
X97322405Y-136409944D01*
X97353097Y-136501371D01*
X97378823Y-136578579D01*
X97398640Y-136638809D01*
X97411605Y-136679299D01*
X97415077Y-136690772D01*
X97431007Y-136749309D01*
X97444974Y-136806957D01*
X97454420Y-136853010D01*
X97455620Y-136860410D01*
X97462606Y-136893672D01*
X97470325Y-136911081D01*
X97474355Y-136911395D01*
X97481517Y-136894776D01*
X97492557Y-136859437D01*
X97505547Y-136811771D01*
X97511128Y-136789581D01*
X97520184Y-136757573D01*
X97536871Y-136703690D01*
X97560370Y-136630405D01*
X97589860Y-136540191D01*
X97624524Y-136435524D01*
X97663540Y-136318875D01*
X97706090Y-136192720D01*
X97751354Y-136059531D01*
X97798513Y-135921781D01*
X97801437Y-135913274D01*
X98064468Y-135148148D01*
X98834094Y-135148148D01*
X98837382Y-136356291D01*
X98840670Y-137564435D01*
X98296357Y-137564435D01*
X98303810Y-136633359D01*
X98305151Y-136479381D01*
X98306642Y-136331939D01*
X98308250Y-136193215D01*
X98309939Y-136065392D01*
X98311674Y-135950653D01*
X98313421Y-135851178D01*
X98315144Y-135769151D01*
X98316808Y-135706754D01*
X98318379Y-135666168D01*
X98319565Y-135650736D01*
X98323826Y-135616361D01*
X98322419Y-135604203D01*
X98316466Y-135611615D01*
X98307087Y-135635948D01*
X98295404Y-135674557D01*
X98282535Y-135724794D01*
X98275923Y-135753831D01*
X98266910Y-135788048D01*
X98250200Y-135844218D01*
X98226576Y-135919953D01*
X98196817Y-136012865D01*
X98161705Y-136120568D01*
X98122021Y-136240673D01*
X98078546Y-136370793D01*
X98032061Y-136508542D01*
X97983347Y-136651530D01*
X97959739Y-136720345D01*
X97671716Y-137557991D01*
X97226810Y-137557991D01*
X96932099Y-136724007D01*
X96863955Y-136530422D01*
X96804535Y-136359993D01*
X96753517Y-136211744D01*
X96710575Y-136084697D01*
X96675387Y-135977877D01*
X96647628Y-135890306D01*
X96626974Y-135821007D01*
X96613101Y-135769004D01*
X96608327Y-135747828D01*
X96595812Y-135691215D01*
X96583864Y-135645294D01*
X96573921Y-135615128D01*
X96567911Y-135605632D01*
X96562613Y-135615838D01*
X96566022Y-135634627D01*
X96567645Y-135651977D01*
X96569349Y-135693008D01*
X96571100Y-135755629D01*
X96572866Y-135837750D01*
X96574612Y-135937278D01*
X96576305Y-136052121D01*
X96577910Y-136180190D01*
X96579395Y-136319390D01*
X96580725Y-136467633D01*
X96581809Y-136614029D01*
X96588131Y-137564435D01*
X96095504Y-137564435D01*
X96098792Y-136356291D01*
X96102080Y-135148148D01*
X96492486Y-135144737D01*
X96882892Y-135141325D01*
X96900319Y-135183397D01*
G37*
G36*
X93678604Y-135183397D02*
G01*
X93688087Y-135208486D01*
X93704856Y-135255240D01*
X93727970Y-135320897D01*
X93756486Y-135402698D01*
X93789461Y-135497883D01*
X93825954Y-135603691D01*
X93865020Y-135717363D01*
X93905718Y-135836137D01*
X93947105Y-135957254D01*
X93988238Y-136077953D01*
X94028175Y-136195475D01*
X94065973Y-136307058D01*
X94100690Y-136409944D01*
X94131382Y-136501371D01*
X94157109Y-136578579D01*
X94176925Y-136638809D01*
X94189890Y-136679299D01*
X94193363Y-136690772D01*
X94209292Y-136749309D01*
X94223259Y-136806957D01*
X94232705Y-136853010D01*
X94233906Y-136860410D01*
X94240891Y-136893672D01*
X94248610Y-136911081D01*
X94252640Y-136911395D01*
X94259802Y-136894776D01*
X94270842Y-136859437D01*
X94283832Y-136811771D01*
X94289413Y-136789581D01*
X94298469Y-136757573D01*
X94315156Y-136703690D01*
X94338655Y-136630405D01*
X94368145Y-136540191D01*
X94402809Y-136435524D01*
X94441825Y-136318875D01*
X94484375Y-136192720D01*
X94529640Y-136059531D01*
X94576798Y-135921781D01*
X94579722Y-135913274D01*
X94842753Y-135148148D01*
X95612379Y-135148148D01*
X95615667Y-136356291D01*
X95618955Y-137564435D01*
X95074643Y-137564435D01*
X95082096Y-136633359D01*
X95083436Y-136479381D01*
X95084927Y-136331939D01*
X95086535Y-136193215D01*
X95088224Y-136065392D01*
X95089959Y-135950653D01*
X95091706Y-135851178D01*
X95093429Y-135769151D01*
X95095093Y-135706754D01*
X95096664Y-135666168D01*
X95097851Y-135650736D01*
X95102111Y-135616361D01*
X95100704Y-135604203D01*
X95094751Y-135611615D01*
X95085373Y-135635948D01*
X95073689Y-135674557D01*
X95060821Y-135724794D01*
X95054208Y-135753831D01*
X95045195Y-135788048D01*
X95028485Y-135844218D01*
X95004861Y-135919953D01*
X94975102Y-136012865D01*
X94939990Y-136120568D01*
X94900306Y-136240673D01*
X94856831Y-136370793D01*
X94810346Y-136508542D01*
X94761632Y-136651530D01*
X94738024Y-136720345D01*
X94450001Y-137557991D01*
X94005095Y-137557991D01*
X93710384Y-136724007D01*
X93642240Y-136530422D01*
X93582820Y-136359993D01*
X93531802Y-136211744D01*
X93488860Y-136084697D01*
X93453672Y-135977877D01*
X93425913Y-135890306D01*
X93405259Y-135821007D01*
X93391386Y-135769004D01*
X93386612Y-135747828D01*
X93374097Y-135691215D01*
X93362149Y-135645294D01*
X93352206Y-135615128D01*
X93346196Y-135605632D01*
X93340898Y-135615838D01*
X93344307Y-135634627D01*
X93345930Y-135651977D01*
X93347634Y-135693008D01*
X93349385Y-135755629D01*
X93351151Y-135837750D01*
X93352897Y-135937278D01*
X93354590Y-136052121D01*
X93356195Y-136180190D01*
X93357680Y-136319390D01*
X93359010Y-136467633D01*
X93360094Y-136614029D01*
X93366416Y-137564435D01*
X92873790Y-137564435D01*
X92877077Y-136356291D01*
X92880365Y-135148148D01*
X93270771Y-135144737D01*
X93661177Y-135141325D01*
X93678604Y-135183397D01*
G37*
G36*
X88682809Y-135141705D02*
G01*
X88833998Y-135142096D01*
X88962383Y-135143389D01*
X89070924Y-135145758D01*
X89162578Y-135149383D01*
X89240307Y-135154438D01*
X89307068Y-135161102D01*
X89365822Y-135169550D01*
X89419528Y-135179961D01*
X89452461Y-135187695D01*
X89568357Y-135226678D01*
X89673187Y-135281783D01*
X89763011Y-135350254D01*
X89833887Y-135429334D01*
X89862292Y-135474367D01*
X89905778Y-135579425D01*
X89930253Y-135695901D01*
X89935682Y-135817772D01*
X89922030Y-135939015D01*
X89889261Y-136053607D01*
X89865976Y-136105977D01*
X89804951Y-136205273D01*
X89729008Y-136289454D01*
X89634981Y-136361323D01*
X89519709Y-136423679D01*
X89494506Y-136434961D01*
X89394949Y-136478240D01*
X89448517Y-136502396D01*
X89481562Y-136519488D01*
X89514622Y-136541701D01*
X89548993Y-136570718D01*
X89585969Y-136608222D01*
X89626846Y-136655896D01*
X89672919Y-136715421D01*
X89725482Y-136788482D01*
X89785831Y-136876760D01*
X89855261Y-136981938D01*
X89935067Y-137105700D01*
X90026543Y-137249727D01*
X90039719Y-137270596D01*
X90085330Y-137342479D01*
X90126438Y-137406500D01*
X90161051Y-137459617D01*
X90187175Y-137498789D01*
X90202817Y-137520976D01*
X90206342Y-137524870D01*
X90211551Y-137513086D01*
X90224930Y-137478704D01*
X90245873Y-137423362D01*
X90273778Y-137348697D01*
X90308040Y-137256346D01*
X90348057Y-137147946D01*
X90393223Y-137025135D01*
X90442935Y-136889551D01*
X90496590Y-136742829D01*
X90553584Y-136586608D01*
X90554503Y-136584083D01*
X91082648Y-136584083D01*
X91093828Y-136589082D01*
X91127844Y-136592932D01*
X91185410Y-136595666D01*
X91267241Y-136597316D01*
X91374051Y-136597916D01*
X91384228Y-136597920D01*
X91685808Y-136597920D01*
X91669266Y-136543151D01*
X91661181Y-136517088D01*
X91646382Y-136470087D01*
X91626015Y-136405755D01*
X91601223Y-136327701D01*
X91573152Y-136239532D01*
X91542946Y-136144857D01*
X91534276Y-136117717D01*
X91503528Y-136020150D01*
X91474794Y-135926431D01*
X91449225Y-135840507D01*
X91427968Y-135766326D01*
X91412175Y-135707836D01*
X91402995Y-135668983D01*
X91401941Y-135663247D01*
X91394335Y-135621607D01*
X91387757Y-135593082D01*
X91383641Y-135583855D01*
X91379028Y-135597925D01*
X91371805Y-135629518D01*
X91366128Y-135658162D01*
X91359073Y-135687090D01*
X91345068Y-135737070D01*
X91325155Y-135804651D01*
X91300378Y-135886380D01*
X91271778Y-135978807D01*
X91240398Y-136078481D01*
X91217839Y-136149151D01*
X91185991Y-136248742D01*
X91156815Y-136340729D01*
X91131220Y-136422188D01*
X91110115Y-136490193D01*
X91094410Y-136541819D01*
X91085013Y-136574141D01*
X91082648Y-136584083D01*
X90554503Y-136584083D01*
X90613312Y-136422524D01*
X90644495Y-136336719D01*
X91076205Y-135148148D01*
X91720299Y-135148148D01*
X92147090Y-136350081D01*
X92573882Y-137552014D01*
X91980418Y-137545104D01*
X91963988Y-137493557D01*
X91954547Y-137463949D01*
X91938993Y-137415184D01*
X91919047Y-137352656D01*
X91896429Y-137281762D01*
X91880743Y-137232598D01*
X91813928Y-137023186D01*
X90956799Y-137023186D01*
X90896570Y-137213268D01*
X90873541Y-137285858D01*
X90851255Y-137355949D01*
X90831795Y-137417002D01*
X90817243Y-137462480D01*
X90813462Y-137474227D01*
X90790583Y-137545104D01*
X90495241Y-137551548D01*
X90386302Y-137553382D01*
X90261732Y-137554592D01*
X90131670Y-137555134D01*
X90006251Y-137554966D01*
X89897057Y-137554064D01*
X89594216Y-137550138D01*
X89381583Y-137195368D01*
X89305488Y-137069078D01*
X89240479Y-136963336D01*
X89184830Y-136876328D01*
X89136815Y-136806241D01*
X89094705Y-136751260D01*
X89056776Y-136709570D01*
X89021300Y-136679358D01*
X88986551Y-136658809D01*
X88950801Y-136646109D01*
X88912325Y-136639443D01*
X88869396Y-136636997D01*
X88850000Y-136636793D01*
X88750127Y-136636581D01*
X88750127Y-137551548D01*
X88208879Y-137551548D01*
X88208879Y-135554084D01*
X88750127Y-135554084D01*
X88750127Y-136227186D01*
X88920878Y-136221646D01*
X88996235Y-136218515D01*
X89051971Y-136214173D01*
X89094234Y-136207704D01*
X89129175Y-136198196D01*
X89159770Y-136186141D01*
X89234803Y-136139936D01*
X89296415Y-136075729D01*
X89341095Y-135998833D01*
X89365335Y-135914561D01*
X89368696Y-135869856D01*
X89358824Y-135784095D01*
X89330716Y-135707902D01*
X89286638Y-135647091D01*
X89279182Y-135640009D01*
X89236942Y-135607711D01*
X89189124Y-135584087D01*
X89131226Y-135568056D01*
X89058749Y-135558535D01*
X88967192Y-135554444D01*
X88921760Y-135554084D01*
X88750127Y-135554084D01*
X88208879Y-135554084D01*
X88208879Y-135141705D01*
X88682809Y-135141705D01*
G37*
G36*
X86166311Y-135148148D02*
G01*
X86169690Y-135628184D01*
X86173069Y-136108219D01*
X87165043Y-136108219D01*
X87165043Y-135141705D01*
X87706291Y-135141705D01*
X87706291Y-137564435D01*
X87165043Y-137564435D01*
X87165043Y-136585033D01*
X86173065Y-136585033D01*
X86166311Y-137557991D01*
X85631507Y-137564957D01*
X85631507Y-135141182D01*
X86166311Y-135148148D01*
G37*
G36*
X74812988Y-135802269D02*
G01*
X74934649Y-135818996D01*
X75039486Y-135854973D01*
X75128493Y-135910826D01*
X75202667Y-135987183D01*
X75263003Y-136084673D01*
X75264079Y-136086852D01*
X75282290Y-136125294D01*
X75297664Y-136162198D01*
X75310439Y-136200086D01*
X75320854Y-136241477D01*
X75329147Y-136288893D01*
X75335556Y-136344856D01*
X75340320Y-136411886D01*
X75343676Y-136492505D01*
X75345862Y-136589232D01*
X75347118Y-136704591D01*
X75347681Y-136841100D01*
X75347793Y-136972773D01*
X75347793Y-137564435D01*
X75193151Y-137564435D01*
X75192927Y-136987748D01*
X75192717Y-136836290D01*
X75192057Y-136708035D01*
X75190708Y-136600414D01*
X75188433Y-136510856D01*
X75184992Y-136436792D01*
X75180148Y-136375652D01*
X75173662Y-136324866D01*
X75165296Y-136281864D01*
X75154813Y-136244077D01*
X75141974Y-136208934D01*
X75126540Y-136173867D01*
X75115331Y-136150560D01*
X75063516Y-136068798D01*
X74998049Y-136007836D01*
X74917843Y-135967102D01*
X74821816Y-135946023D01*
X74722780Y-135943302D01*
X74603378Y-135959805D01*
X74497325Y-135998352D01*
X74404539Y-136058987D01*
X74324937Y-136141757D01*
X74297708Y-136179655D01*
X74274593Y-136214691D01*
X74255220Y-136245888D01*
X74239230Y-136275848D01*
X74226267Y-136307170D01*
X74215973Y-136342453D01*
X74207990Y-136384299D01*
X74201962Y-136435306D01*
X74197532Y-136498075D01*
X74194341Y-136575205D01*
X74192033Y-136669297D01*
X74190250Y-136782950D01*
X74188635Y-136918764D01*
X74187976Y-136978082D01*
X74181532Y-137557991D01*
X74107433Y-137561856D01*
X74033333Y-137565721D01*
X74033333Y-135837595D01*
X74187976Y-135837595D01*
X74187976Y-136149817D01*
X74240447Y-136071241D01*
X74320090Y-135973136D01*
X74413260Y-135896932D01*
X74519709Y-135842746D01*
X74639189Y-135810693D01*
X74771456Y-135800888D01*
X74812988Y-135802269D01*
G37*
G36*
X70834612Y-135932919D02*
G01*
X70858526Y-135970881D01*
X70893175Y-136026498D01*
X70935871Y-136095425D01*
X70983925Y-136173314D01*
X71034650Y-136255819D01*
X71069356Y-136312438D01*
X71116543Y-136389027D01*
X71159527Y-136457850D01*
X71196438Y-136515991D01*
X71225410Y-136560537D01*
X71244574Y-136588572D01*
X71251888Y-136597276D01*
X71262550Y-136587502D01*
X71281716Y-136561420D01*
X71301757Y-136530264D01*
X71319541Y-136501660D01*
X71348991Y-136454905D01*
X71387856Y-136393544D01*
X71433887Y-136321120D01*
X71484836Y-136241178D01*
X71538451Y-136157261D01*
X71543032Y-136150102D01*
X71742998Y-135837595D01*
X71832204Y-135837595D01*
X71880228Y-135838725D01*
X71906068Y-135842586D01*
X71913232Y-135849890D01*
X71911795Y-135853704D01*
X71902730Y-135867680D01*
X71880958Y-135900699D01*
X71848074Y-135950358D01*
X71805671Y-136014258D01*
X71755343Y-136089996D01*
X71698683Y-136175172D01*
X71637286Y-136267385D01*
X71619987Y-136293352D01*
X71337792Y-136716892D01*
X71615953Y-137134187D01*
X71677501Y-137226682D01*
X71734326Y-137312388D01*
X71784886Y-137388960D01*
X71827644Y-137454052D01*
X71861060Y-137505319D01*
X71883594Y-137540415D01*
X71893707Y-137556996D01*
X71894115Y-137557959D01*
X71882285Y-137561071D01*
X71851022Y-137563365D01*
X71806663Y-137564412D01*
X71798626Y-137564435D01*
X71703137Y-137564435D01*
X71479676Y-137203779D01*
X71425812Y-137117416D01*
X71376014Y-137038660D01*
X71331940Y-136970051D01*
X71295248Y-136914127D01*
X71267597Y-136873426D01*
X71250645Y-136850488D01*
X71246118Y-136846313D01*
X71236926Y-136857518D01*
X71215520Y-136887834D01*
X71183621Y-136934692D01*
X71142953Y-136995523D01*
X71095237Y-137067757D01*
X71042196Y-137148825D01*
X71006517Y-137203746D01*
X70777012Y-137557991D01*
X70684777Y-137561777D01*
X70639789Y-137562745D01*
X70606952Y-137561775D01*
X70592699Y-137559083D01*
X70592542Y-137558687D01*
X70599576Y-137546886D01*
X70619633Y-137516165D01*
X70651146Y-137468855D01*
X70692549Y-137407282D01*
X70742275Y-137333775D01*
X70798756Y-137250662D01*
X70860427Y-137160271D01*
X70875995Y-137137506D01*
X71159448Y-136723201D01*
X71130906Y-136676669D01*
X71117304Y-136654981D01*
X71091610Y-136614476D01*
X71055656Y-136558022D01*
X71011273Y-136488491D01*
X70960294Y-136408753D01*
X70904550Y-136321678D01*
X70858853Y-136250378D01*
X70801805Y-136161226D01*
X70749146Y-136078580D01*
X70702511Y-136005035D01*
X70663537Y-135943185D01*
X70633860Y-135895625D01*
X70615115Y-135864949D01*
X70609007Y-135854107D01*
X70612230Y-135844843D01*
X70633134Y-135839609D01*
X70675303Y-135837658D01*
X70688256Y-135837595D01*
X70773842Y-135837595D01*
X70834612Y-135932919D01*
G37*
G36*
X68543531Y-137564435D02*
G01*
X68388889Y-137564435D01*
X68388889Y-135012836D01*
X68543531Y-135012836D01*
X68543531Y-137564435D01*
G37*
G36*
X66550526Y-136417902D02*
G01*
X66581025Y-136336961D01*
X67026536Y-135154592D01*
X67186436Y-135154592D01*
X67628783Y-136343405D01*
X67691153Y-136511035D01*
X67751021Y-136671960D01*
X67807771Y-136824520D01*
X67860783Y-136967055D01*
X67909442Y-137097904D01*
X67953130Y-137215406D01*
X67991229Y-137317902D01*
X68023123Y-137403730D01*
X68048193Y-137471230D01*
X68065823Y-137518742D01*
X68075395Y-137544605D01*
X68076975Y-137548923D01*
X68074199Y-137557638D01*
X68055537Y-137562040D01*
X68017097Y-137562701D01*
X67989309Y-137561810D01*
X67895798Y-137557991D01*
X67759327Y-137187494D01*
X67622855Y-136816997D01*
X66576374Y-136816997D01*
X66440409Y-137187494D01*
X66304443Y-137557991D01*
X66211015Y-137561810D01*
X66163065Y-137563232D01*
X66136000Y-137561855D01*
X66124986Y-137556573D01*
X66125191Y-137546281D01*
X66126550Y-137542480D01*
X66132276Y-137527372D01*
X66146459Y-137489819D01*
X66168467Y-137431493D01*
X66197668Y-137354070D01*
X66233433Y-137259220D01*
X66275131Y-137148619D01*
X66322130Y-137023940D01*
X66373800Y-136886855D01*
X66429510Y-136739038D01*
X66458408Y-136662354D01*
X66636873Y-136662354D01*
X67101880Y-136662354D01*
X67223652Y-136662293D01*
X67322060Y-136662029D01*
X67399514Y-136661444D01*
X67458423Y-136660418D01*
X67501198Y-136658832D01*
X67530248Y-136656567D01*
X67547983Y-136653504D01*
X67556813Y-136649524D01*
X67559148Y-136644508D01*
X67558011Y-136639802D01*
X67544042Y-136603238D01*
X67523370Y-136547664D01*
X67497056Y-136476040D01*
X67466162Y-136391326D01*
X67431749Y-136296481D01*
X67394879Y-136194464D01*
X67356615Y-136088236D01*
X67318018Y-135980755D01*
X67280149Y-135874982D01*
X67244071Y-135773874D01*
X67210846Y-135680393D01*
X67181535Y-135597498D01*
X67157199Y-135528147D01*
X67138902Y-135475301D01*
X67127704Y-135441919D01*
X67124818Y-135432396D01*
X67113103Y-135397049D01*
X67100950Y-135376480D01*
X67091358Y-135373827D01*
X67087320Y-135392225D01*
X67087316Y-135393147D01*
X67083058Y-135409268D01*
X67070923Y-135446845D01*
X67051868Y-135503121D01*
X67026848Y-135575340D01*
X66996820Y-135660744D01*
X66962741Y-135756578D01*
X66925568Y-135860084D01*
X66918510Y-135879626D01*
X66878063Y-135991572D01*
X66837972Y-136102621D01*
X66799654Y-136208843D01*
X66764526Y-136306305D01*
X66734006Y-136391076D01*
X66709511Y-136459225D01*
X66693289Y-136504490D01*
X66636873Y-136662354D01*
X66458408Y-136662354D01*
X66488629Y-136582163D01*
X66550526Y-136417902D01*
G37*
G36*
X84820877Y-135108852D02*
G01*
X84957167Y-135121124D01*
X85082020Y-135141128D01*
X85174023Y-135164130D01*
X85251344Y-135187848D01*
X85254837Y-135449452D01*
X85255425Y-135528001D01*
X85255057Y-135596624D01*
X85253825Y-135651590D01*
X85251824Y-135689171D01*
X85249147Y-135705634D01*
X85248393Y-135706019D01*
X85116179Y-135646071D01*
X84990589Y-135604846D01*
X84863393Y-135580008D01*
X84774308Y-135571440D01*
X84623309Y-135572693D01*
X84485431Y-135596079D01*
X84360476Y-135641664D01*
X84248245Y-135709514D01*
X84174218Y-135773161D01*
X84092804Y-135868044D01*
X84031144Y-135973915D01*
X83988416Y-136093014D01*
X83963798Y-136227582D01*
X83956439Y-136367117D01*
X83966488Y-136519974D01*
X83997191Y-136657474D01*
X84048592Y-136779739D01*
X84120734Y-136886885D01*
X84162572Y-136932811D01*
X84256095Y-137011042D01*
X84360276Y-137068408D01*
X84477378Y-137105754D01*
X84609664Y-137123929D01*
X84678734Y-137126091D01*
X84848831Y-137115177D01*
X85008895Y-137082231D01*
X85156640Y-137027759D01*
X85183260Y-137014952D01*
X85218658Y-136997833D01*
X85243782Y-136986796D01*
X85250916Y-136984526D01*
X85253062Y-136996751D01*
X85254935Y-137030778D01*
X85256421Y-137082636D01*
X85257409Y-137148355D01*
X85257787Y-137223964D01*
X85257788Y-137227789D01*
X85257788Y-137471053D01*
X85193958Y-137498511D01*
X85091809Y-137534187D01*
X84970764Y-137562747D01*
X84836884Y-137583518D01*
X84696226Y-137595830D01*
X84554851Y-137599010D01*
X84418818Y-137592387D01*
X84381504Y-137588568D01*
X84207129Y-137557020D01*
X84047020Y-137504664D01*
X83901920Y-137432000D01*
X83772572Y-137339528D01*
X83659720Y-137227748D01*
X83564109Y-137097162D01*
X83512263Y-137003856D01*
X83450974Y-136853369D01*
X83409144Y-136691471D01*
X83386527Y-136522180D01*
X83382874Y-136349517D01*
X83397939Y-136177502D01*
X83431473Y-136010156D01*
X83483229Y-135851498D01*
X83552959Y-135705548D01*
X83596509Y-135635616D01*
X83703707Y-135500614D01*
X83829050Y-135382064D01*
X83969530Y-135282070D01*
X84122135Y-135202736D01*
X84283855Y-135146166D01*
X84304160Y-135140901D01*
X84414792Y-135120337D01*
X84542549Y-135108268D01*
X84680291Y-135104504D01*
X84820877Y-135108852D01*
G37*
G36*
X82586690Y-135107487D02*
G01*
X82727493Y-135120441D01*
X82852816Y-135141344D01*
X82958695Y-135169636D01*
X82992922Y-135182173D01*
X83028361Y-135196379D01*
X83028361Y-135695352D01*
X82947818Y-135651238D01*
X82843816Y-135604127D01*
X82726354Y-135567505D01*
X82602843Y-135542668D01*
X82480689Y-135530908D01*
X82367303Y-135533519D01*
X82315351Y-135540780D01*
X82224536Y-135566526D01*
X82151474Y-135604593D01*
X82097250Y-135652460D01*
X82062947Y-135707600D01*
X82049647Y-135767492D01*
X82058435Y-135829610D01*
X82090392Y-135891430D01*
X82141426Y-135946077D01*
X82178190Y-135974544D01*
X82224145Y-136004191D01*
X82282540Y-136036769D01*
X82356623Y-136074028D01*
X82449643Y-136117720D01*
X82513778Y-136146801D01*
X82655877Y-136214945D01*
X82773982Y-136281163D01*
X82869709Y-136346446D01*
X82943061Y-136410167D01*
X83021517Y-136506515D01*
X83079186Y-136616282D01*
X83115325Y-136736680D01*
X83129188Y-136864922D01*
X83120031Y-136998222D01*
X83111948Y-137042292D01*
X83073819Y-137165873D01*
X83015103Y-137274000D01*
X82935877Y-137366625D01*
X82836218Y-137443700D01*
X82716202Y-137505176D01*
X82575904Y-137551005D01*
X82415403Y-137581139D01*
X82235819Y-137595494D01*
X82161511Y-137596942D01*
X82085980Y-137596508D01*
X82018478Y-137594349D01*
X81971639Y-137590998D01*
X81849184Y-137574818D01*
X81740828Y-137552918D01*
X81635084Y-137522668D01*
X81562481Y-137497345D01*
X81494825Y-137472375D01*
X81494825Y-136935267D01*
X81581811Y-136993954D01*
X81715441Y-137072021D01*
X81850976Y-137126015D01*
X81993310Y-137157462D01*
X82139168Y-137167841D01*
X82258448Y-137162128D01*
X82358857Y-137143066D01*
X82439519Y-137111166D01*
X82499561Y-137066940D01*
X82538107Y-137010899D01*
X82554284Y-136943554D01*
X82554730Y-136925003D01*
X82545948Y-136866667D01*
X82520412Y-136811643D01*
X82476589Y-136758600D01*
X82412950Y-136706204D01*
X82327965Y-136653124D01*
X82220102Y-136598027D01*
X82135120Y-136559687D01*
X82033839Y-136515060D01*
X81952345Y-136477169D01*
X81886312Y-136443644D01*
X81831415Y-136412119D01*
X81783328Y-136380222D01*
X81737728Y-136345587D01*
X81724461Y-136334783D01*
X81631810Y-136245659D01*
X81563032Y-136149568D01*
X81516502Y-136043275D01*
X81490591Y-135923547D01*
X81484925Y-135858942D01*
X81486257Y-135730837D01*
X81505351Y-135618503D01*
X81543581Y-135517820D01*
X81602318Y-135424670D01*
X81647443Y-135371257D01*
X81745429Y-135284168D01*
X81862626Y-135213974D01*
X81998681Y-135160798D01*
X82153237Y-135124759D01*
X82325939Y-135105980D01*
X82434370Y-135103044D01*
X82586690Y-135107487D01*
G37*
G36*
X77652148Y-136382537D02*
G01*
X77686775Y-136287456D01*
X77714435Y-136226336D01*
X77784077Y-136107975D01*
X77870817Y-136005212D01*
X77971810Y-135920484D01*
X78084215Y-135856228D01*
X78189881Y-135818667D01*
X78265811Y-135805447D01*
X78355295Y-135799891D01*
X78447281Y-135801999D01*
X78530715Y-135811769D01*
X78562614Y-135818689D01*
X78673528Y-135860496D01*
X78772288Y-135924176D01*
X78857453Y-136008163D01*
X78927582Y-136110888D01*
X78981234Y-136230784D01*
X79001257Y-136296019D01*
X79010869Y-136340294D01*
X79020337Y-136397621D01*
X79029035Y-136462069D01*
X79036336Y-136527707D01*
X79041616Y-136588603D01*
X79044246Y-136638826D01*
X79043602Y-136672445D01*
X79041911Y-136681034D01*
X79037867Y-136685626D01*
X79028169Y-136689467D01*
X79010729Y-136692622D01*
X78983456Y-136695157D01*
X78944260Y-136697136D01*
X78891051Y-136698625D01*
X78821738Y-136699690D01*
X78734232Y-136700395D01*
X78626442Y-136700806D01*
X78496279Y-136700988D01*
X78402383Y-136701015D01*
X77770522Y-136701015D01*
X77770522Y-136750874D01*
X77776004Y-136826781D01*
X77790870Y-136915086D01*
X77812755Y-137005251D01*
X77839291Y-137086737D01*
X77853687Y-137121199D01*
X77915858Y-137227731D01*
X77993964Y-137314924D01*
X78086136Y-137382071D01*
X78190506Y-137428469D01*
X78305204Y-137453415D01*
X78428363Y-137456202D01*
X78558113Y-137436128D01*
X78632643Y-137414743D01*
X78681891Y-137395938D01*
X78737546Y-137371012D01*
X78793829Y-137343012D01*
X78844962Y-137314988D01*
X78885169Y-137289986D01*
X78908672Y-137271053D01*
X78911130Y-137267842D01*
X78925511Y-137254414D01*
X78936065Y-137265165D01*
X78942082Y-137298692D01*
X78943227Y-137331594D01*
X78942120Y-137369052D01*
X78936335Y-137397229D01*
X78922178Y-137420177D01*
X78895954Y-137441951D01*
X78853967Y-137466606D01*
X78792523Y-137498196D01*
X78790434Y-137499246D01*
X78692879Y-137539234D01*
X78581371Y-137570014D01*
X78464015Y-137590317D01*
X78348916Y-137598870D01*
X78244179Y-137594402D01*
X78213072Y-137589817D01*
X78088867Y-137554809D01*
X77974848Y-137497389D01*
X77873270Y-137419665D01*
X77786387Y-137323749D01*
X77716451Y-137211750D01*
X77665718Y-137085778D01*
X77662273Y-137074183D01*
X77640905Y-136992027D01*
X77626638Y-136914726D01*
X77618306Y-136833177D01*
X77614740Y-136738280D01*
X77614405Y-136701015D01*
X77617705Y-136581055D01*
X77624131Y-136525681D01*
X77783409Y-136525681D01*
X77783409Y-136559259D01*
X78878792Y-136559259D01*
X78878792Y-136521733D01*
X78874408Y-136468285D01*
X78862753Y-136400710D01*
X78846075Y-136328836D01*
X78826619Y-136262487D01*
X78809000Y-136216509D01*
X78768318Y-136147352D01*
X78712976Y-136080228D01*
X78649973Y-136022400D01*
X78586311Y-135981129D01*
X78578552Y-135977449D01*
X78544947Y-135963792D01*
X78511922Y-135954918D01*
X78472553Y-135949854D01*
X78419919Y-135947628D01*
X78363318Y-135947240D01*
X78298048Y-135947699D01*
X78251285Y-135949844D01*
X78215765Y-135954989D01*
X78184226Y-135964449D01*
X78149402Y-135979539D01*
X78128047Y-135989821D01*
X78028785Y-136052235D01*
X77943541Y-136134481D01*
X77876202Y-136232691D01*
X77867776Y-136248779D01*
X77837596Y-136316375D01*
X77811927Y-136388213D01*
X77793233Y-136456211D01*
X77783977Y-136512282D01*
X77783409Y-136525681D01*
X77624131Y-136525681D01*
X77629705Y-136477649D01*
X77652148Y-136382537D01*
G37*
G36*
X75688845Y-136544087D02*
G01*
X75695483Y-136496234D01*
X75733316Y-136347732D01*
X75789451Y-136214037D01*
X75862408Y-136096514D01*
X75950703Y-135996529D01*
X76052857Y-135915449D01*
X76167387Y-135854640D01*
X76292812Y-135815468D01*
X76427651Y-135799298D01*
X76451693Y-135798935D01*
X76586662Y-135808347D01*
X76704862Y-135836893D01*
X76807293Y-135885040D01*
X76894956Y-135953253D01*
X76966504Y-136038564D01*
X77016641Y-136111368D01*
X77020000Y-135555659D01*
X77023358Y-134999950D01*
X77177727Y-134999950D01*
X77177727Y-137551548D01*
X77023085Y-137551548D01*
X77023085Y-137236280D01*
X76989122Y-137287597D01*
X76910659Y-137385131D01*
X76815936Y-137467734D01*
X76710071Y-137531498D01*
X76626260Y-137564664D01*
X76550106Y-137582312D01*
X76462195Y-137593534D01*
X76373196Y-137597572D01*
X76293779Y-137593665D01*
X76269203Y-137590098D01*
X76144585Y-137555027D01*
X76031503Y-137497824D01*
X75931492Y-137420112D01*
X75846088Y-137323514D01*
X75776827Y-137209654D01*
X75725244Y-137080153D01*
X75702509Y-136991236D01*
X75691341Y-136916110D01*
X75684265Y-136824996D01*
X75681407Y-136726729D01*
X75682138Y-136679114D01*
X75843771Y-136679114D01*
X75844196Y-136773771D01*
X75848682Y-136864197D01*
X75857214Y-136943043D01*
X75868168Y-136997413D01*
X75905634Y-137106803D01*
X75953689Y-137198348D01*
X76016258Y-137279101D01*
X76037059Y-137300885D01*
X76125750Y-137375546D01*
X76220505Y-137426272D01*
X76323250Y-137453591D01*
X76435914Y-137458030D01*
X76552489Y-137441832D01*
X76655904Y-137412239D01*
X76742692Y-137369169D01*
X76820191Y-137308633D01*
X76847658Y-137281348D01*
X76901797Y-137217902D01*
X76944357Y-137151426D01*
X76976451Y-137078058D01*
X76999196Y-136993935D01*
X77013705Y-136895194D01*
X77021096Y-136777971D01*
X77022637Y-136675241D01*
X77020767Y-136556463D01*
X77014696Y-136458931D01*
X77003734Y-136378357D01*
X76987190Y-136310454D01*
X76964375Y-136250934D01*
X76949576Y-136221454D01*
X76885962Y-136129422D01*
X76804208Y-136050813D01*
X76710281Y-135991297D01*
X76704460Y-135988491D01*
X76665824Y-135970864D01*
X76633776Y-135959116D01*
X76601349Y-135952058D01*
X76561573Y-135948502D01*
X76507481Y-135947262D01*
X76461838Y-135947134D01*
X76395764Y-135947406D01*
X76348399Y-135949124D01*
X76312679Y-135953637D01*
X76281540Y-135962293D01*
X76247918Y-135976443D01*
X76208680Y-135995492D01*
X76105289Y-136060738D01*
X76016839Y-136146347D01*
X75944335Y-136250998D01*
X75888787Y-136373370D01*
X75867016Y-136443278D01*
X75855166Y-136506517D01*
X75847423Y-136587579D01*
X75843771Y-136679114D01*
X75682138Y-136679114D01*
X75682891Y-136630147D01*
X75688845Y-136544087D01*
G37*
G36*
X72173991Y-136999762D02*
G01*
X72179183Y-136964230D01*
X72188393Y-136933627D01*
X72202742Y-136901009D01*
X72206778Y-136892713D01*
X72254087Y-136819201D01*
X72319165Y-136749744D01*
X72394264Y-136692007D01*
X72430708Y-136671157D01*
X72481421Y-136647428D01*
X72535181Y-136626763D01*
X72595825Y-136608214D01*
X72667188Y-136590837D01*
X72753108Y-136573686D01*
X72857422Y-136555816D01*
X72969097Y-136538503D01*
X73055342Y-136525432D01*
X73132762Y-136513421D01*
X73197825Y-136503041D01*
X73247003Y-136494862D01*
X73276764Y-136489454D01*
X73284191Y-136487594D01*
X73286600Y-136471288D01*
X73284228Y-136435934D01*
X73278076Y-136387600D01*
X73269143Y-136332356D01*
X73258429Y-136276270D01*
X73246934Y-136225412D01*
X73235656Y-136185850D01*
X73233486Y-136179751D01*
X73192816Y-136101004D01*
X73136286Y-136034161D01*
X73068917Y-135984241D01*
X73014515Y-135960990D01*
X72905294Y-135941496D01*
X72788719Y-135944358D01*
X72668557Y-135968680D01*
X72548575Y-136013569D01*
X72432541Y-136078130D01*
X72387037Y-136110037D01*
X72319381Y-136160602D01*
X72319381Y-135972720D01*
X72374591Y-135939371D01*
X72482608Y-135884333D01*
X72599879Y-135842526D01*
X72721393Y-135814586D01*
X72842138Y-135801151D01*
X72957103Y-135802861D01*
X73061277Y-135820351D01*
X73127806Y-135843529D01*
X73202542Y-135887883D01*
X73273980Y-135949585D01*
X73333805Y-136020699D01*
X73361855Y-136066890D01*
X73377082Y-136097426D01*
X73389956Y-136126050D01*
X73400691Y-136155183D01*
X73409505Y-136187242D01*
X73416614Y-136224648D01*
X73422236Y-136269820D01*
X73426586Y-136325176D01*
X73429882Y-136393136D01*
X73432339Y-136476120D01*
X73434176Y-136576546D01*
X73435608Y-136696833D01*
X73436851Y-136839401D01*
X73437399Y-136910426D01*
X73442259Y-137551548D01*
X73286643Y-137551548D01*
X73283048Y-137380797D01*
X73279452Y-137210046D01*
X73248558Y-137268037D01*
X73208105Y-137328248D01*
X73151259Y-137392255D01*
X73085166Y-137453348D01*
X73016968Y-137504819D01*
X72963724Y-137535502D01*
X72845000Y-137579835D01*
X72726411Y-137599343D01*
X72603771Y-137594502D01*
X72541694Y-137583553D01*
X72433549Y-137548908D01*
X72342350Y-137495115D01*
X72266638Y-137421066D01*
X72207072Y-137329712D01*
X72191370Y-137297974D01*
X72181050Y-137269506D01*
X72174996Y-137237576D01*
X72172090Y-137195450D01*
X72171215Y-137136395D01*
X72171182Y-137113394D01*
X72171611Y-137058316D01*
X72324160Y-137058316D01*
X72325209Y-137155929D01*
X72348291Y-137242963D01*
X72391223Y-137317668D01*
X72451824Y-137378296D01*
X72527912Y-137423095D01*
X72617305Y-137450316D01*
X72717822Y-137458210D01*
X72810544Y-137448385D01*
X72915914Y-137416495D01*
X73014233Y-137363254D01*
X73098215Y-137292695D01*
X73105164Y-137285259D01*
X73167398Y-137208106D01*
X73214273Y-137127580D01*
X73247633Y-137038566D01*
X73269322Y-136935952D01*
X73281185Y-136814625D01*
X73282234Y-136794445D01*
X73285026Y-136728017D01*
X73285780Y-136683177D01*
X73284135Y-136655795D01*
X73279728Y-136641738D01*
X73272197Y-136636876D01*
X73268395Y-136636581D01*
X73247487Y-136638522D01*
X73205812Y-136643873D01*
X73148041Y-136651926D01*
X73078850Y-136661970D01*
X73002912Y-136673298D01*
X72924902Y-136685199D01*
X72849493Y-136696965D01*
X72781359Y-136707886D01*
X72725174Y-136717255D01*
X72685612Y-136724360D01*
X72673783Y-136726786D01*
X72563745Y-136758301D01*
X72476549Y-136799243D01*
X72410469Y-136851247D01*
X72363777Y-136915952D01*
X72334749Y-136994994D01*
X72324160Y-137058316D01*
X72171611Y-137058316D01*
X72171698Y-137047168D01*
X72173991Y-136999762D01*
G37*
G36*
X68953518Y-136382537D02*
G01*
X68988145Y-136287456D01*
X69015805Y-136226336D01*
X69085447Y-136107975D01*
X69172187Y-136005212D01*
X69273180Y-135920484D01*
X69385585Y-135856228D01*
X69491251Y-135818667D01*
X69567181Y-135805447D01*
X69656665Y-135799891D01*
X69748651Y-135801999D01*
X69832084Y-135811769D01*
X69863984Y-135818689D01*
X69974898Y-135860496D01*
X70073658Y-135924176D01*
X70158823Y-136008163D01*
X70228952Y-136110888D01*
X70282604Y-136230784D01*
X70302627Y-136296019D01*
X70312238Y-136340294D01*
X70321706Y-136397621D01*
X70330404Y-136462069D01*
X70337706Y-136527707D01*
X70342986Y-136588603D01*
X70345616Y-136638826D01*
X70344972Y-136672445D01*
X70343281Y-136681034D01*
X70339236Y-136685626D01*
X70329539Y-136689467D01*
X70312099Y-136692622D01*
X70284826Y-136695157D01*
X70245630Y-136697136D01*
X70192421Y-136698625D01*
X70123108Y-136699690D01*
X70035602Y-136700395D01*
X69927812Y-136700806D01*
X69797648Y-136700988D01*
X69703753Y-136701015D01*
X69071892Y-136701015D01*
X69071892Y-136750874D01*
X69077374Y-136826781D01*
X69092240Y-136915086D01*
X69114125Y-137005251D01*
X69140661Y-137086737D01*
X69155057Y-137121199D01*
X69217228Y-137227731D01*
X69295334Y-137314924D01*
X69387506Y-137382071D01*
X69491876Y-137428469D01*
X69606574Y-137453415D01*
X69729733Y-137456202D01*
X69859483Y-137436128D01*
X69934012Y-137414743D01*
X69983261Y-137395938D01*
X70038916Y-137371012D01*
X70095198Y-137343012D01*
X70146332Y-137314988D01*
X70186539Y-137289986D01*
X70210042Y-137271053D01*
X70212500Y-137267842D01*
X70226881Y-137254414D01*
X70237435Y-137265165D01*
X70243452Y-137298692D01*
X70244597Y-137331594D01*
X70243489Y-137369052D01*
X70237705Y-137397229D01*
X70223548Y-137420177D01*
X70197324Y-137441951D01*
X70155337Y-137466606D01*
X70093893Y-137498196D01*
X70091804Y-137499246D01*
X69994249Y-137539234D01*
X69882741Y-137570014D01*
X69765385Y-137590317D01*
X69650285Y-137598870D01*
X69545548Y-137594402D01*
X69514442Y-137589817D01*
X69390237Y-137554809D01*
X69276218Y-137497389D01*
X69174640Y-137419665D01*
X69087757Y-137323749D01*
X69017821Y-137211750D01*
X68967088Y-137085778D01*
X68963643Y-137074183D01*
X68942275Y-136992027D01*
X68928008Y-136914726D01*
X68919676Y-136833177D01*
X68916110Y-136738280D01*
X68915775Y-136701015D01*
X68919074Y-136581055D01*
X68925500Y-136525681D01*
X69084779Y-136525681D01*
X69084779Y-136559259D01*
X70180162Y-136559259D01*
X70180162Y-136521733D01*
X70175778Y-136468285D01*
X70164123Y-136400710D01*
X70147444Y-136328836D01*
X70127989Y-136262487D01*
X70110370Y-136216509D01*
X70069688Y-136147352D01*
X70014346Y-136080228D01*
X69951343Y-136022400D01*
X69887681Y-135981129D01*
X69879922Y-135977449D01*
X69846317Y-135963792D01*
X69813292Y-135954918D01*
X69773923Y-135949854D01*
X69721289Y-135947628D01*
X69664688Y-135947240D01*
X69599418Y-135947699D01*
X69552655Y-135949844D01*
X69517135Y-135954989D01*
X69485595Y-135964449D01*
X69450772Y-135979539D01*
X69429417Y-135989821D01*
X69330155Y-136052235D01*
X69244911Y-136134481D01*
X69177572Y-136232691D01*
X69169146Y-136248779D01*
X69138966Y-136316375D01*
X69113297Y-136388213D01*
X69094603Y-136456211D01*
X69085347Y-136512282D01*
X69084779Y-136525681D01*
X68925500Y-136525681D01*
X68931075Y-136477649D01*
X68953518Y-136382537D01*
G37*
G36*
X96743828Y-138329680D02*
G01*
X96787943Y-138346310D01*
X96832444Y-138380453D01*
X96851834Y-138412079D01*
X96863745Y-138468351D01*
X96852820Y-138518519D01*
X96821886Y-138558882D01*
X96773767Y-138585737D01*
X96711928Y-138595383D01*
X96669007Y-138592841D01*
X96638932Y-138581797D01*
X96609001Y-138557121D01*
X96603379Y-138551568D01*
X96569288Y-138502692D01*
X96559214Y-138451998D01*
X96572236Y-138404165D01*
X96607429Y-138363873D01*
X96644598Y-138342728D01*
X96696995Y-138327014D01*
X96743828Y-138329680D01*
G37*
G36*
X73086750Y-138337844D02*
G01*
X73138542Y-138366645D01*
X73170909Y-138409788D01*
X73181843Y-138462615D01*
X73169337Y-138520469D01*
X73167405Y-138524866D01*
X73137649Y-138561478D01*
X73091859Y-138585421D01*
X73037312Y-138595023D01*
X72981283Y-138588611D01*
X72947939Y-138575295D01*
X72910648Y-138546016D01*
X72891232Y-138505397D01*
X72886403Y-138456232D01*
X72897808Y-138404819D01*
X72928747Y-138364463D01*
X72974300Y-138338071D01*
X73029549Y-138328548D01*
X73086750Y-138337844D01*
G37*
G36*
X97673825Y-138720501D02*
G01*
X97744269Y-138746837D01*
X97804318Y-138792347D01*
X97831700Y-138826138D01*
X97848095Y-138852944D01*
X97860922Y-138881302D01*
X97870608Y-138914685D01*
X97877579Y-138956567D01*
X97882261Y-139010419D01*
X97885080Y-139079715D01*
X97886464Y-139167928D01*
X97886838Y-139275165D01*
X97886910Y-139587671D01*
X97630975Y-139587671D01*
X97626852Y-139307382D01*
X97624861Y-139203696D01*
X97621840Y-139122596D01*
X97617101Y-139060897D01*
X97609953Y-139015413D01*
X97599707Y-138982958D01*
X97585672Y-138960348D01*
X97567160Y-138944397D01*
X97545768Y-138932951D01*
X97485800Y-138917992D01*
X97429630Y-138927691D01*
X97380746Y-138960935D01*
X97355011Y-138993867D01*
X97345428Y-139010727D01*
X97338152Y-139028903D01*
X97332786Y-139052207D01*
X97328936Y-139084452D01*
X97326205Y-139129451D01*
X97324198Y-139191016D01*
X97322521Y-139272960D01*
X97321828Y-139313826D01*
X97317325Y-139587671D01*
X97062151Y-139587671D01*
X97062151Y-138737139D01*
X97319888Y-138737139D01*
X97319888Y-138870254D01*
X97379168Y-138810125D01*
X97445657Y-138758152D01*
X97519965Y-138725998D01*
X97597539Y-138713501D01*
X97673825Y-138720501D01*
G37*
G36*
X96843074Y-139587671D02*
G01*
X96572450Y-139587671D01*
X96572450Y-138737139D01*
X96843074Y-138737139D01*
X96843074Y-139587671D01*
G37*
G36*
X90850685Y-138964637D02*
G01*
X90788424Y-138951883D01*
X90744633Y-138945542D01*
X90711090Y-138949460D01*
X90676496Y-138963781D01*
X90639778Y-138985994D01*
X90610949Y-139014050D01*
X90589135Y-139051051D01*
X90573464Y-139100100D01*
X90563060Y-139164299D01*
X90557052Y-139246750D01*
X90554566Y-139350557D01*
X90554362Y-139397590D01*
X90554287Y-139587671D01*
X90296550Y-139587671D01*
X90296550Y-138737139D01*
X90553001Y-138737139D01*
X90556866Y-138810461D01*
X90560730Y-138883784D01*
X90596685Y-138829288D01*
X90644544Y-138772205D01*
X90699461Y-138738215D01*
X90765977Y-138724759D01*
X90783029Y-138724300D01*
X90850685Y-138724252D01*
X90850685Y-138964637D01*
G37*
G36*
X89471791Y-138395972D02*
G01*
X89570896Y-138396485D01*
X89648242Y-138397925D01*
X89707834Y-138400548D01*
X89753678Y-138404608D01*
X89789780Y-138410360D01*
X89820145Y-138418061D01*
X89820558Y-138418186D01*
X89907353Y-138454443D01*
X89974342Y-138505183D01*
X90024472Y-138572788D01*
X90033540Y-138590179D01*
X90052823Y-138633793D01*
X90063724Y-138672888D01*
X90068360Y-138718106D01*
X90068962Y-138768311D01*
X90059663Y-138869389D01*
X90032445Y-138953636D01*
X89985845Y-139024059D01*
X89918400Y-139083663D01*
X89913999Y-139086727D01*
X89857927Y-139120793D01*
X89800611Y-139144813D01*
X89735077Y-139160764D01*
X89654353Y-139170627D01*
X89607103Y-139173839D01*
X89465347Y-139181735D01*
X89461798Y-139384703D01*
X89458250Y-139587671D01*
X89188023Y-139587671D01*
X89191499Y-138969102D01*
X89458196Y-138969102D01*
X89556476Y-138969102D01*
X89623836Y-138965805D01*
X89676400Y-138956560D01*
X89695930Y-138949564D01*
X89743068Y-138914205D01*
X89771931Y-138861256D01*
X89782806Y-138790162D01*
X89782916Y-138781061D01*
X89775637Y-138714830D01*
X89752549Y-138665455D01*
X89711780Y-138631426D01*
X89651455Y-138611232D01*
X89569701Y-138603363D01*
X89562331Y-138603223D01*
X89465347Y-138601827D01*
X89461772Y-138785464D01*
X89458196Y-138969102D01*
X89191499Y-138969102D01*
X89194723Y-138395637D01*
X89471791Y-138395972D01*
G37*
G36*
X84329934Y-138847545D02*
G01*
X84329723Y-138904412D01*
X84328337Y-138939899D01*
X84324645Y-138958404D01*
X84317518Y-138964321D01*
X84305825Y-138962045D01*
X84300938Y-138960305D01*
X84247877Y-138950146D01*
X84190940Y-138953275D01*
X84141647Y-138968569D01*
X84127474Y-138977219D01*
X84099401Y-139000029D01*
X84077983Y-139023722D01*
X84062249Y-139052139D01*
X84051228Y-139089116D01*
X84043948Y-139138493D01*
X84039438Y-139204106D01*
X84036727Y-139289796D01*
X84035773Y-139339599D01*
X84031565Y-139587671D01*
X83775799Y-139587671D01*
X83775799Y-138737139D01*
X84033536Y-138737139D01*
X84034052Y-138817682D01*
X84034568Y-138898224D01*
X84054949Y-138859564D01*
X84100378Y-138792708D01*
X84154922Y-138749190D01*
X84220973Y-138727470D01*
X84264860Y-138724252D01*
X84329934Y-138724252D01*
X84329934Y-138847545D01*
G37*
G36*
X82504687Y-139062087D02*
G01*
X82477441Y-139155849D01*
X82450989Y-139247190D01*
X82426684Y-139331415D01*
X82405878Y-139403833D01*
X82389922Y-139459750D01*
X82381906Y-139488200D01*
X82353981Y-139588476D01*
X82211484Y-139584852D01*
X82068988Y-139581228D01*
X81995386Y-139284830D01*
X81974927Y-139203814D01*
X81956586Y-139133803D01*
X81941197Y-139077775D01*
X81929598Y-139038705D01*
X81922624Y-139019572D01*
X81920937Y-139019795D01*
X81917406Y-139041335D01*
X81908027Y-139083496D01*
X81893832Y-139142061D01*
X81875851Y-139212812D01*
X81855113Y-139291532D01*
X81849213Y-139313461D01*
X81828157Y-139391659D01*
X81809588Y-139461132D01*
X81794494Y-139518146D01*
X81783863Y-139558963D01*
X81778682Y-139579850D01*
X81778336Y-139581718D01*
X81766321Y-139584123D01*
X81733766Y-139586063D01*
X81685901Y-139587314D01*
X81638195Y-139587671D01*
X81498054Y-139587671D01*
X81380457Y-139171083D01*
X81352498Y-139071787D01*
X81326916Y-138980452D01*
X81304524Y-138900021D01*
X81286137Y-138833437D01*
X81272568Y-138783644D01*
X81264631Y-138753586D01*
X81262861Y-138745817D01*
X81274850Y-138742220D01*
X81307230Y-138739350D01*
X81354622Y-138737561D01*
X81395360Y-138737139D01*
X81527859Y-138737139D01*
X81588385Y-139030315D01*
X81605831Y-139115150D01*
X81621626Y-139192593D01*
X81634982Y-139258719D01*
X81645107Y-139309603D01*
X81651211Y-139341320D01*
X81652564Y-139349142D01*
X81656654Y-139344337D01*
X81666281Y-139317546D01*
X81680553Y-139271738D01*
X81698574Y-139209887D01*
X81719450Y-139134962D01*
X81739841Y-139059188D01*
X81823465Y-138743582D01*
X82080362Y-138743582D01*
X82142143Y-139001319D01*
X82161659Y-139083849D01*
X82179667Y-139162085D01*
X82195049Y-139230998D01*
X82206683Y-139285557D01*
X82213450Y-139320734D01*
X82213893Y-139323491D01*
X82217173Y-139341872D01*
X82220636Y-139351478D01*
X82224935Y-139350048D01*
X82230724Y-139335321D01*
X82238655Y-139305037D01*
X82249382Y-139256933D01*
X82263557Y-139188749D01*
X82281834Y-139098225D01*
X82288338Y-139065754D01*
X82352815Y-138743582D01*
X82599541Y-138736248D01*
X82504687Y-139062087D01*
G37*
G36*
X73157027Y-139587671D02*
G01*
X72899290Y-139587671D01*
X72899290Y-138737139D01*
X73157027Y-138737139D01*
X73157027Y-139587671D01*
G37*
G36*
X72544449Y-138720501D02*
G01*
X72614893Y-138746837D01*
X72674942Y-138792347D01*
X72702324Y-138826138D01*
X72718719Y-138852944D01*
X72731546Y-138881302D01*
X72741232Y-138914685D01*
X72748203Y-138956567D01*
X72752885Y-139010419D01*
X72755704Y-139079715D01*
X72757088Y-139167928D01*
X72757462Y-139275165D01*
X72757534Y-139587671D01*
X72501599Y-139587671D01*
X72497476Y-139307382D01*
X72495485Y-139203696D01*
X72492464Y-139122596D01*
X72487725Y-139060897D01*
X72480577Y-139015413D01*
X72470331Y-138982958D01*
X72456296Y-138960348D01*
X72437784Y-138944397D01*
X72416392Y-138932951D01*
X72356424Y-138917992D01*
X72300254Y-138927691D01*
X72251370Y-138960935D01*
X72225635Y-138993867D01*
X72216052Y-139010727D01*
X72208776Y-139028903D01*
X72203410Y-139052207D01*
X72199560Y-139084452D01*
X72196829Y-139129451D01*
X72194822Y-139191016D01*
X72193145Y-139272960D01*
X72192452Y-139313826D01*
X72187949Y-139587671D01*
X71932775Y-139587671D01*
X71932775Y-138737139D01*
X72190512Y-138737139D01*
X72190512Y-138870254D01*
X72249792Y-138810125D01*
X72316281Y-138758152D01*
X72390589Y-138725998D01*
X72468163Y-138713501D01*
X72544449Y-138720501D01*
G37*
G36*
X70721410Y-138848056D02*
G01*
X70720918Y-138905443D01*
X70718943Y-138941304D01*
X70714738Y-138959878D01*
X70707555Y-138965402D01*
X70700953Y-138964010D01*
X70628977Y-138947602D01*
X70562491Y-138954100D01*
X70505163Y-138982471D01*
X70460658Y-139031681D01*
X70460655Y-139031687D01*
X70450578Y-139049379D01*
X70443023Y-139068196D01*
X70437543Y-139092155D01*
X70433695Y-139125271D01*
X70431034Y-139171563D01*
X70429113Y-139235045D01*
X70427490Y-139319736D01*
X70427267Y-139333156D01*
X70423078Y-139587671D01*
X70154389Y-139587671D01*
X70154389Y-138737139D01*
X70425013Y-138737139D01*
X70425517Y-138817682D01*
X70426064Y-138860871D01*
X70427918Y-138881340D01*
X70432437Y-138882142D01*
X70440984Y-138866330D01*
X70444179Y-138859564D01*
X70487142Y-138793446D01*
X70543586Y-138749290D01*
X70613467Y-138727127D01*
X70653754Y-138724300D01*
X70721410Y-138724252D01*
X70721410Y-138848056D01*
G37*
G36*
X66855352Y-138608270D02*
G01*
X66430086Y-138608270D01*
X66430086Y-138878223D01*
X66626611Y-138881780D01*
X66823135Y-138885338D01*
X66826878Y-138991654D01*
X66830621Y-139097971D01*
X66430086Y-139097971D01*
X66430086Y-139368595D01*
X66881126Y-139368595D01*
X66881126Y-139587671D01*
X66159462Y-139587671D01*
X66159462Y-138389194D01*
X66855352Y-138389194D01*
X66855352Y-138608270D01*
G37*
G36*
X80560936Y-138313294D02*
G01*
X80593883Y-138316055D01*
X80598466Y-138316983D01*
X80615188Y-138322609D01*
X80625013Y-138332976D01*
X80629770Y-138353964D01*
X80631288Y-138391452D01*
X80631405Y-138422865D01*
X80631405Y-138520481D01*
X80568313Y-138511803D01*
X80502914Y-138511469D01*
X80453719Y-138530914D01*
X80420424Y-138570443D01*
X80402726Y-138630360D01*
X80399442Y-138681071D01*
X80399442Y-138737139D01*
X80592745Y-138737139D01*
X80592745Y-138930442D01*
X80399442Y-138930442D01*
X80399442Y-139600558D01*
X80142140Y-139600558D01*
X80138700Y-139268722D01*
X80135261Y-138936885D01*
X80060610Y-138933004D01*
X79985960Y-138929123D01*
X79989733Y-138836352D01*
X79993506Y-138743582D01*
X80067605Y-138739717D01*
X80141705Y-138735853D01*
X80141705Y-138648211D01*
X80149422Y-138553546D01*
X80173689Y-138476673D01*
X80216175Y-138414341D01*
X80278552Y-138363295D01*
X80292375Y-138354847D01*
X80330529Y-138335566D01*
X80370266Y-138323655D01*
X80420963Y-138316831D01*
X80458746Y-138314321D01*
X80512995Y-138312661D01*
X80560936Y-138313294D01*
G37*
G36*
X73653171Y-139129610D02*
G01*
X73780150Y-138933374D01*
X73907130Y-138737139D01*
X74061200Y-138737139D01*
X74128395Y-138737725D01*
X74172961Y-138739716D01*
X74198018Y-138743460D01*
X74206689Y-138749304D01*
X74205784Y-138753247D01*
X74195176Y-138768334D01*
X74171603Y-138800242D01*
X74137787Y-138845339D01*
X74096448Y-138899996D01*
X74056824Y-138952048D01*
X74011959Y-139011199D01*
X73973089Y-139063179D01*
X73942713Y-139104587D01*
X73923331Y-139132017D01*
X73917351Y-139141927D01*
X73924605Y-139154115D01*
X73944768Y-139183648D01*
X73975448Y-139227133D01*
X74014252Y-139281175D01*
X74057532Y-139340669D01*
X74103846Y-139404148D01*
X74146253Y-139462626D01*
X74181832Y-139512051D01*
X74207666Y-139548369D01*
X74220100Y-139566391D01*
X74242487Y-139600558D01*
X73929524Y-139600558D01*
X73788347Y-139384703D01*
X73647170Y-139168849D01*
X73646949Y-139384703D01*
X73646727Y-139600558D01*
X73517454Y-139600558D01*
X73451122Y-139599350D01*
X73408077Y-139595537D01*
X73385935Y-139588836D01*
X73382008Y-139584450D01*
X73380840Y-139568681D01*
X73379882Y-139529718D01*
X73379144Y-139470135D01*
X73378639Y-139392512D01*
X73378378Y-139299426D01*
X73378372Y-139193453D01*
X73378633Y-139077171D01*
X73379173Y-138953157D01*
X73379191Y-138949772D01*
X73382547Y-138331203D01*
X73514453Y-138327532D01*
X73646359Y-138323862D01*
X73653171Y-139129610D01*
G37*
G36*
X68820599Y-139129610D02*
G01*
X68947578Y-138933374D01*
X69074557Y-138737139D01*
X69228628Y-138737139D01*
X69295823Y-138737725D01*
X69340389Y-138739716D01*
X69365446Y-138743460D01*
X69374117Y-138749304D01*
X69373211Y-138753247D01*
X69362603Y-138768334D01*
X69339031Y-138800242D01*
X69305215Y-138845339D01*
X69263876Y-138899996D01*
X69224252Y-138952048D01*
X69179387Y-139011199D01*
X69140517Y-139063179D01*
X69110141Y-139104587D01*
X69090758Y-139132017D01*
X69084779Y-139141927D01*
X69092032Y-139154115D01*
X69112196Y-139183648D01*
X69142876Y-139227133D01*
X69181680Y-139281175D01*
X69224960Y-139340669D01*
X69271274Y-139404148D01*
X69313680Y-139462626D01*
X69349260Y-139512051D01*
X69375094Y-139548369D01*
X69387527Y-139566391D01*
X69409915Y-139600558D01*
X69096952Y-139600558D01*
X68955775Y-139384703D01*
X68814598Y-139168849D01*
X68814376Y-139384703D01*
X68814155Y-139600558D01*
X68684882Y-139600558D01*
X68618550Y-139599350D01*
X68575504Y-139595537D01*
X68553362Y-139588836D01*
X68549436Y-139584450D01*
X68548268Y-139568681D01*
X68547309Y-139529718D01*
X68546572Y-139470135D01*
X68546067Y-139392512D01*
X68545806Y-139299426D01*
X68545800Y-139193453D01*
X68546061Y-139077171D01*
X68546600Y-138953157D01*
X68546619Y-138949772D01*
X68549975Y-138331203D01*
X68681881Y-138327532D01*
X68813787Y-138323862D01*
X68820599Y-139129610D01*
G37*
G36*
X67357940Y-139600558D02*
G01*
X67100203Y-139600558D01*
X67100203Y-138324759D01*
X67357940Y-138324759D01*
X67357940Y-139600558D01*
G37*
G36*
X94159837Y-138610299D02*
G01*
X94163509Y-138737139D01*
X94355911Y-138737139D01*
X94355911Y-138930442D01*
X94160390Y-138930442D01*
X94164721Y-139142742D01*
X94166573Y-139222067D01*
X94168758Y-139279771D01*
X94171818Y-139320007D01*
X94176297Y-139346925D01*
X94182736Y-139364679D01*
X94191678Y-139377421D01*
X94195986Y-139381952D01*
X94235398Y-139404381D01*
X94286846Y-139409546D01*
X94326977Y-139401815D01*
X94341675Y-139398378D01*
X94350300Y-139402928D01*
X94354471Y-139420357D01*
X94355802Y-139455558D01*
X94355911Y-139489391D01*
X94353602Y-139549330D01*
X94346783Y-139585599D01*
X94339802Y-139596115D01*
X94312966Y-139604016D01*
X94268129Y-139608820D01*
X94212871Y-139610585D01*
X94154771Y-139609373D01*
X94101408Y-139605243D01*
X94060362Y-139598256D01*
X94047009Y-139593793D01*
X93988537Y-139559562D01*
X93946857Y-139514502D01*
X93932571Y-139491050D01*
X93924811Y-139472070D01*
X93918725Y-139444525D01*
X93913980Y-139404863D01*
X93910245Y-139349529D01*
X93907188Y-139274970D01*
X93904895Y-139194622D01*
X93898427Y-138936885D01*
X93763115Y-138929095D01*
X93763115Y-138737139D01*
X93903741Y-138737139D01*
X93907528Y-138644833D01*
X93911314Y-138552528D01*
X94156164Y-138483458D01*
X94159837Y-138610299D01*
G37*
G36*
X92681275Y-139030324D02*
G01*
X92719259Y-138936079D01*
X92777054Y-138855267D01*
X92853520Y-138790206D01*
X92911005Y-138758239D01*
X92940608Y-138746242D01*
X92971835Y-138738253D01*
X93010808Y-138733509D01*
X93063645Y-138731245D01*
X93131659Y-138730695D01*
X93201164Y-138731165D01*
X93251118Y-138733160D01*
X93287735Y-138737559D01*
X93317230Y-138745241D01*
X93345818Y-138757084D01*
X93357179Y-138762582D01*
X93443269Y-138818335D01*
X93509421Y-138890240D01*
X93555294Y-138977710D01*
X93580546Y-139080156D01*
X93585759Y-139156732D01*
X93576097Y-139271383D01*
X93546039Y-139371341D01*
X93496226Y-139455669D01*
X93427300Y-139523432D01*
X93339903Y-139573694D01*
X93286822Y-139592766D01*
X93226157Y-139604951D01*
X93152561Y-139611201D01*
X93075830Y-139611437D01*
X93005758Y-139605579D01*
X92957686Y-139595419D01*
X92886908Y-139568103D01*
X92830383Y-139533009D01*
X92776592Y-139482860D01*
X92772397Y-139478344D01*
X92728032Y-139423960D01*
X92698357Y-139369773D01*
X92679089Y-139306290D01*
X92669302Y-139249828D01*
X92665511Y-139164297D01*
X92930307Y-139164297D01*
X92935780Y-139237897D01*
X92954692Y-139305229D01*
X92986957Y-139359490D01*
X93000484Y-139373336D01*
X93048470Y-139400554D01*
X93108156Y-139412393D01*
X93170290Y-139408483D01*
X93225622Y-139388454D01*
X93234754Y-139382691D01*
X93277624Y-139337675D01*
X93304754Y-139272491D01*
X93316198Y-139186989D01*
X93316616Y-139162879D01*
X93310515Y-139078951D01*
X93291751Y-139015485D01*
X93259020Y-138969812D01*
X93211020Y-138939260D01*
X93206698Y-138937476D01*
X93136851Y-138921420D01*
X93070536Y-138928868D01*
X93012191Y-138959052D01*
X92995393Y-138973923D01*
X92960027Y-139025506D01*
X92938361Y-139091232D01*
X92930307Y-139164297D01*
X92665511Y-139164297D01*
X92664242Y-139135680D01*
X92681275Y-139030324D01*
G37*
G36*
X92394485Y-138491379D02*
G01*
X92395990Y-138523673D01*
X92396912Y-138570829D01*
X92397108Y-138608270D01*
X92397108Y-138737139D01*
X92590411Y-138737139D01*
X92590411Y-138930442D01*
X92397108Y-138930442D01*
X92397108Y-139129582D01*
X92398113Y-139213057D01*
X92400978Y-139281655D01*
X92405477Y-139331824D01*
X92411385Y-139360008D01*
X92411771Y-139360904D01*
X92439687Y-139393487D01*
X92482544Y-139410213D01*
X92533247Y-139408594D01*
X92541639Y-139406459D01*
X92570890Y-139398319D01*
X92586587Y-139394425D01*
X92587104Y-139394369D01*
X92588694Y-139406198D01*
X92589866Y-139437460D01*
X92590399Y-139481812D01*
X92590411Y-139489759D01*
X92590411Y-139585150D01*
X92549827Y-139599298D01*
X92509101Y-139607465D01*
X92452684Y-139611347D01*
X92390285Y-139611018D01*
X92331616Y-139606550D01*
X92286388Y-139598015D01*
X92284099Y-139597307D01*
X92232923Y-139568836D01*
X92187617Y-139521544D01*
X92153832Y-139462382D01*
X92140761Y-139421009D01*
X92135839Y-139384998D01*
X92131651Y-139329444D01*
X92128516Y-139260578D01*
X92126753Y-139184629D01*
X92126484Y-139142441D01*
X92126484Y-138930442D01*
X91983599Y-138930442D01*
X91987386Y-138837012D01*
X91991172Y-138743582D01*
X92126484Y-138735792D01*
X92126484Y-138557814D01*
X92219914Y-138530799D01*
X92271330Y-138515747D01*
X92317855Y-138501808D01*
X92349762Y-138491899D01*
X92350705Y-138491592D01*
X92378371Y-138482997D01*
X92392571Y-138479402D01*
X92392588Y-138479402D01*
X92394485Y-138491379D01*
G37*
G36*
X90898842Y-139068632D02*
G01*
X90912585Y-139013508D01*
X90936881Y-138955999D01*
X90939129Y-138951401D01*
X90978940Y-138883151D01*
X91025676Y-138831195D01*
X91086517Y-138788636D01*
X91134196Y-138764074D01*
X91167386Y-138749582D01*
X91198062Y-138739989D01*
X91232905Y-138734307D01*
X91278598Y-138731545D01*
X91341821Y-138730717D01*
X91359716Y-138730695D01*
X91427183Y-138731146D01*
X91475544Y-138733196D01*
X91511462Y-138737894D01*
X91541598Y-138746290D01*
X91572616Y-138759432D01*
X91587305Y-138766518D01*
X91670406Y-138821098D01*
X91739467Y-138894371D01*
X91783212Y-138967525D01*
X91800972Y-139025461D01*
X91810707Y-139099302D01*
X91812472Y-139180475D01*
X91806324Y-139260411D01*
X91792318Y-139330540D01*
X91780621Y-139363336D01*
X91739294Y-139431647D01*
X91680753Y-139496668D01*
X91613113Y-139550350D01*
X91565906Y-139576337D01*
X91504341Y-139595278D01*
X91427056Y-139607010D01*
X91343171Y-139611193D01*
X91261807Y-139607485D01*
X91192087Y-139595545D01*
X91176577Y-139590911D01*
X91080861Y-139546644D01*
X91003844Y-139485041D01*
X90946211Y-139407199D01*
X90908647Y-139314216D01*
X90891838Y-139207189D01*
X90891973Y-139166572D01*
X91166413Y-139166572D01*
X91167380Y-139226739D01*
X91171143Y-139268514D01*
X91178998Y-139299234D01*
X91192236Y-139326235D01*
X91195522Y-139331640D01*
X91239189Y-139379454D01*
X91296119Y-139406594D01*
X91363231Y-139412315D01*
X91437443Y-139395871D01*
X91446588Y-139392409D01*
X91490464Y-139361362D01*
X91521524Y-139307994D01*
X91539743Y-139232359D01*
X91543908Y-139188355D01*
X91541324Y-139099485D01*
X91522956Y-139026520D01*
X91489570Y-138971713D01*
X91462353Y-138948287D01*
X91416448Y-138930106D01*
X91360062Y-138924072D01*
X91303949Y-138930069D01*
X91258864Y-138947977D01*
X91255175Y-138950568D01*
X91215302Y-138983917D01*
X91189275Y-139017280D01*
X91174316Y-139057417D01*
X91167646Y-139111087D01*
X91166413Y-139166572D01*
X90891973Y-139166572D01*
X90892077Y-139135338D01*
X90898842Y-139068632D01*
G37*
G36*
X84383017Y-139026224D02*
G01*
X84392229Y-138995605D01*
X84406595Y-138962928D01*
X84410872Y-138954136D01*
X84466722Y-138868253D01*
X84539652Y-138800354D01*
X84626598Y-138752347D01*
X84724494Y-138726142D01*
X84784149Y-138721691D01*
X84874124Y-138726034D01*
X84947056Y-138741869D01*
X85009823Y-138771095D01*
X85041391Y-138792717D01*
X85100042Y-138852935D01*
X85145278Y-138933102D01*
X85176093Y-139030578D01*
X85191484Y-139142725D01*
X85193098Y-139191401D01*
X85193354Y-139239726D01*
X84909843Y-139239726D01*
X84819516Y-139240254D01*
X84743274Y-139241759D01*
X84683896Y-139244122D01*
X84644164Y-139247227D01*
X84626857Y-139250953D01*
X84626332Y-139251774D01*
X84634441Y-139286192D01*
X84655075Y-139328082D01*
X84682690Y-139366537D01*
X84687084Y-139371327D01*
X84731912Y-139401687D01*
X84793611Y-139420791D01*
X84865734Y-139428367D01*
X84941836Y-139424145D01*
X85015473Y-139407854D01*
X85065800Y-139387245D01*
X85093042Y-139374208D01*
X85108787Y-139368599D01*
X85108949Y-139368595D01*
X85112446Y-139380391D01*
X85114977Y-139411426D01*
X85116028Y-139455167D01*
X85116032Y-139458472D01*
X85115349Y-139506123D01*
X85111801Y-139534862D01*
X85103136Y-139551544D01*
X85087106Y-139563024D01*
X85080593Y-139566443D01*
X85024029Y-139586944D01*
X84950250Y-139601860D01*
X84867316Y-139610655D01*
X84783288Y-139612793D01*
X84706224Y-139607735D01*
X84645662Y-139595419D01*
X84554433Y-139556542D01*
X84482656Y-139502607D01*
X84427138Y-139430867D01*
X84404693Y-139387925D01*
X84391310Y-139355310D01*
X84382605Y-139322626D01*
X84377630Y-139283057D01*
X84375434Y-139229789D01*
X84375038Y-139175292D01*
X84375549Y-139109111D01*
X84376707Y-139085084D01*
X84623538Y-139085084D01*
X84938968Y-139085084D01*
X84932341Y-139026291D01*
X84916163Y-138967434D01*
X84885701Y-138926227D01*
X84845144Y-138902343D01*
X84798678Y-138895457D01*
X84750493Y-138905241D01*
X84704775Y-138931371D01*
X84665713Y-138973521D01*
X84637494Y-139031364D01*
X84632274Y-139049645D01*
X84623538Y-139085084D01*
X84376707Y-139085084D01*
X84377833Y-139061740D01*
X84383017Y-139026224D01*
G37*
G36*
X82765688Y-139235865D02*
G01*
X82796121Y-139185507D01*
X82832946Y-139146174D01*
X82880211Y-139115741D01*
X82941964Y-139092087D01*
X83022253Y-139073087D01*
X83100877Y-139060056D01*
X83162291Y-139050673D01*
X83213937Y-139042001D01*
X83250736Y-139034950D01*
X83267611Y-139030428D01*
X83268017Y-139030139D01*
X83271382Y-139010809D01*
X83262015Y-138981080D01*
X83243875Y-138950193D01*
X83225352Y-138930577D01*
X83169600Y-138902951D01*
X83098917Y-138895374D01*
X83014402Y-138907708D01*
X82917151Y-138939818D01*
X82831837Y-138979183D01*
X82827259Y-138969817D01*
X82823853Y-138940534D01*
X82822229Y-138897185D01*
X82822171Y-138886584D01*
X82822171Y-138789032D01*
X82869961Y-138769064D01*
X82922952Y-138751870D01*
X82990971Y-138736675D01*
X83065030Y-138724816D01*
X83136139Y-138717629D01*
X83195308Y-138716451D01*
X83213687Y-138717971D01*
X83291281Y-138735564D01*
X83362710Y-138765636D01*
X83420560Y-138804565D01*
X83446427Y-138831652D01*
X83467674Y-138862136D01*
X83484325Y-138893737D01*
X83496922Y-138929996D01*
X83506006Y-138974457D01*
X83512119Y-139030662D01*
X83515805Y-139102153D01*
X83517605Y-139192473D01*
X83518062Y-139299765D01*
X83518062Y-139600558D01*
X83273211Y-139600558D01*
X83273211Y-139542567D01*
X83271765Y-139507971D01*
X83268107Y-139487228D01*
X83265936Y-139484577D01*
X83253870Y-139493514D01*
X83232534Y-139515854D01*
X83224587Y-139525071D01*
X83171438Y-139569610D01*
X83103208Y-139599453D01*
X83026829Y-139613309D01*
X82949234Y-139609887D01*
X82880162Y-139589208D01*
X82842433Y-139568524D01*
X82812118Y-139546241D01*
X82806554Y-139540694D01*
X82773778Y-139487537D01*
X82752752Y-139420250D01*
X82744692Y-139347898D01*
X82746597Y-139326624D01*
X82989701Y-139326624D01*
X83000488Y-139372792D01*
X83029324Y-139406218D01*
X83070914Y-139425092D01*
X83119966Y-139427605D01*
X83171188Y-139411947D01*
X83195588Y-139397011D01*
X83223845Y-139368846D01*
X83248923Y-139332279D01*
X83250639Y-139329018D01*
X83262674Y-139296343D01*
X83270524Y-139258052D01*
X83273464Y-139222056D01*
X83270768Y-139196265D01*
X83263546Y-139188276D01*
X83246686Y-139190190D01*
X83212077Y-139195096D01*
X83170117Y-139201483D01*
X83096430Y-139215493D01*
X83045031Y-139232218D01*
X83012437Y-139254075D01*
X82995164Y-139283480D01*
X82989728Y-139322849D01*
X82989701Y-139326624D01*
X82746597Y-139326624D01*
X82750813Y-139279545D01*
X82765688Y-139235865D01*
G37*
G36*
X81030898Y-138737139D02*
G01*
X81224201Y-138737139D01*
X81224201Y-138929313D01*
X81037341Y-138936885D01*
X81037480Y-139137409D01*
X81037984Y-139217283D01*
X81039636Y-139275663D01*
X81042833Y-139316818D01*
X81047973Y-139345018D01*
X81055455Y-139364530D01*
X81059246Y-139370942D01*
X81093731Y-139401553D01*
X81141526Y-139412942D01*
X81187397Y-139406723D01*
X81224201Y-139396168D01*
X81224201Y-139491159D01*
X81221919Y-139549237D01*
X81215272Y-139585150D01*
X81208308Y-139595973D01*
X81186176Y-139601768D01*
X81145823Y-139606046D01*
X81094767Y-139608641D01*
X81040525Y-139609389D01*
X80990617Y-139608126D01*
X80952558Y-139604685D01*
X80939576Y-139601862D01*
X80871596Y-139567364D01*
X80820555Y-139513458D01*
X80807857Y-139492273D01*
X80798044Y-139472068D01*
X80790676Y-139450498D01*
X80785318Y-139423449D01*
X80781536Y-139386807D01*
X80778896Y-139336458D01*
X80776964Y-139268290D01*
X80775415Y-139184957D01*
X80771226Y-138930442D01*
X80631405Y-138930442D01*
X80631405Y-138737139D01*
X80772032Y-138737139D01*
X80779604Y-138552383D01*
X80905251Y-138517646D01*
X81030898Y-138482910D01*
X81030898Y-138737139D01*
G37*
G36*
X79062700Y-139049753D02*
G01*
X79086211Y-138969721D01*
X79098098Y-138943328D01*
X79141814Y-138879834D01*
X79203215Y-138820570D01*
X79274399Y-138772862D01*
X79291172Y-138764366D01*
X79324244Y-138749769D01*
X79354674Y-138740101D01*
X79389133Y-138734368D01*
X79434288Y-138731573D01*
X79496809Y-138730721D01*
X79516692Y-138730695D01*
X79610324Y-138733540D01*
X79684444Y-138743487D01*
X79744827Y-138762653D01*
X79797249Y-138793154D01*
X79847483Y-138837108D01*
X79869148Y-138859903D01*
X79919770Y-138925539D01*
X79952587Y-138994857D01*
X79969520Y-139073951D01*
X79972486Y-139168918D01*
X79971792Y-139185997D01*
X79957405Y-139297510D01*
X79925393Y-139390954D01*
X79874811Y-139467912D01*
X79804713Y-139529965D01*
X79745384Y-139564470D01*
X79702259Y-139584445D01*
X79665349Y-139597229D01*
X79625959Y-139604674D01*
X79575392Y-139608634D01*
X79530325Y-139610276D01*
X79459001Y-139610859D01*
X79405229Y-139607285D01*
X79361007Y-139598733D01*
X79333696Y-139590155D01*
X79236742Y-139544370D01*
X79160281Y-139483106D01*
X79103913Y-139405845D01*
X79067234Y-139312066D01*
X79051920Y-139226019D01*
X79051741Y-139213435D01*
X79320627Y-139213435D01*
X79337406Y-139287412D01*
X79369617Y-139346915D01*
X79415671Y-139388778D01*
X79460883Y-139407318D01*
X79521663Y-139412661D01*
X79582639Y-139403206D01*
X79624088Y-139385474D01*
X79660499Y-139348094D01*
X79686440Y-139289972D01*
X79700742Y-139214404D01*
X79703248Y-139162405D01*
X79696073Y-139074419D01*
X79673758Y-139007076D01*
X79635921Y-138959888D01*
X79582182Y-138932368D01*
X79516692Y-138923998D01*
X79446873Y-138934802D01*
X79391425Y-138966723D01*
X79351051Y-139019030D01*
X79326453Y-139090990D01*
X79320865Y-139128149D01*
X79320627Y-139213435D01*
X79051741Y-139213435D01*
X79050677Y-139138812D01*
X79062700Y-139049753D01*
G37*
G36*
X78687741Y-138386470D02*
G01*
X78742478Y-138394585D01*
X78791344Y-138403677D01*
X78825523Y-138412059D01*
X78830568Y-138413781D01*
X78846910Y-138420878D01*
X78857230Y-138430666D01*
X78862911Y-138448493D01*
X78865338Y-138479704D01*
X78865896Y-138529646D01*
X78865906Y-138550257D01*
X78865906Y-138673299D01*
X78836910Y-138654770D01*
X78777247Y-138626746D01*
X78704199Y-138607469D01*
X78625699Y-138597647D01*
X78549676Y-138597989D01*
X78484062Y-138609203D01*
X78454602Y-138620608D01*
X78415040Y-138645883D01*
X78395116Y-138675385D01*
X78389142Y-138718107D01*
X78389092Y-138724160D01*
X78395312Y-138752322D01*
X78415576Y-138780501D01*
X78452292Y-138810547D01*
X78507866Y-138844308D01*
X78584704Y-138883635D01*
X78616010Y-138898561D01*
X78717364Y-138950744D01*
X78795449Y-139002157D01*
X78852531Y-139055548D01*
X78890875Y-139113664D01*
X78912744Y-139179254D01*
X78920404Y-139255065D01*
X78920465Y-139267988D01*
X78909682Y-139360588D01*
X78878151Y-139438466D01*
X78825221Y-139502531D01*
X78750236Y-139553692D01*
X78698376Y-139577042D01*
X78642923Y-139592076D01*
X78569581Y-139602856D01*
X78485924Y-139609108D01*
X78399527Y-139610558D01*
X78317966Y-139606932D01*
X78248815Y-139597956D01*
X78230726Y-139593955D01*
X78176310Y-139579827D01*
X78140508Y-139566606D01*
X78119426Y-139548880D01*
X78109172Y-139521235D01*
X78105854Y-139478259D01*
X78105581Y-139419933D01*
X78105581Y-139291761D01*
X78186124Y-139335852D01*
X78263407Y-139370674D01*
X78341803Y-139392727D01*
X78417710Y-139402425D01*
X78487526Y-139400182D01*
X78547650Y-139386413D01*
X78594481Y-139361532D01*
X78624417Y-139325954D01*
X78633942Y-139284322D01*
X78627574Y-139246138D01*
X78606590Y-139211620D01*
X78568169Y-139178111D01*
X78509490Y-139142954D01*
X78455522Y-139116254D01*
X78362149Y-139071091D01*
X78289525Y-139032178D01*
X78234187Y-138996923D01*
X78192674Y-138962733D01*
X78161527Y-138927013D01*
X78137283Y-138887173D01*
X78130101Y-138872451D01*
X78114580Y-138820640D01*
X78106811Y-138755442D01*
X78107066Y-138687576D01*
X78115614Y-138627758D01*
X78123299Y-138603697D01*
X78165525Y-138535029D01*
X78228486Y-138477378D01*
X78309092Y-138431935D01*
X78404252Y-138399889D01*
X78510875Y-138382428D01*
X78625871Y-138380744D01*
X78687741Y-138386470D01*
G37*
G36*
X70773613Y-139030324D02*
G01*
X70811598Y-138936079D01*
X70869393Y-138855267D01*
X70945859Y-138790206D01*
X71003344Y-138758239D01*
X71032947Y-138746242D01*
X71064174Y-138738253D01*
X71103147Y-138733509D01*
X71155984Y-138731245D01*
X71223998Y-138730695D01*
X71293503Y-138731165D01*
X71343456Y-138733160D01*
X71380074Y-138737559D01*
X71409569Y-138745241D01*
X71438157Y-138757084D01*
X71449518Y-138762582D01*
X71535608Y-138818335D01*
X71601760Y-138890240D01*
X71647633Y-138977710D01*
X71672885Y-139080156D01*
X71678098Y-139156732D01*
X71668436Y-139271383D01*
X71638378Y-139371341D01*
X71588565Y-139455669D01*
X71519639Y-139523432D01*
X71432242Y-139573694D01*
X71379161Y-139592766D01*
X71318495Y-139604951D01*
X71244900Y-139611201D01*
X71168169Y-139611437D01*
X71098097Y-139605579D01*
X71050025Y-139595419D01*
X70979247Y-139568103D01*
X70922721Y-139533009D01*
X70868931Y-139482860D01*
X70864736Y-139478344D01*
X70820371Y-139423960D01*
X70790696Y-139369773D01*
X70771428Y-139306290D01*
X70761641Y-139249828D01*
X70757850Y-139164297D01*
X71022646Y-139164297D01*
X71028119Y-139237897D01*
X71047031Y-139305229D01*
X71079295Y-139359490D01*
X71092823Y-139373336D01*
X71140809Y-139400554D01*
X71200495Y-139412393D01*
X71262629Y-139408483D01*
X71317961Y-139388454D01*
X71327093Y-139382691D01*
X71369963Y-139337675D01*
X71397093Y-139272491D01*
X71408537Y-139186989D01*
X71408954Y-139162879D01*
X71402854Y-139078951D01*
X71384089Y-139015485D01*
X71351359Y-138969812D01*
X71303359Y-138939260D01*
X71299037Y-138937476D01*
X71229190Y-138921420D01*
X71162875Y-138928868D01*
X71104530Y-138959052D01*
X71087732Y-138973923D01*
X71052366Y-139025506D01*
X71030699Y-139091232D01*
X71022646Y-139164297D01*
X70757850Y-139164297D01*
X70756581Y-139135680D01*
X70773613Y-139030324D01*
G37*
G36*
X69842481Y-138491379D02*
G01*
X69843986Y-138523673D01*
X69844908Y-138570829D01*
X69845104Y-138608270D01*
X69845104Y-138737139D01*
X70038407Y-138737139D01*
X70038407Y-138930442D01*
X69845104Y-138930442D01*
X69845104Y-139129582D01*
X69846109Y-139213057D01*
X69848974Y-139281655D01*
X69853473Y-139331824D01*
X69859381Y-139360008D01*
X69859767Y-139360904D01*
X69887683Y-139393487D01*
X69930540Y-139410213D01*
X69981243Y-139408594D01*
X69989635Y-139406459D01*
X70018886Y-139398319D01*
X70034583Y-139394425D01*
X70035100Y-139394369D01*
X70036690Y-139406198D01*
X70037862Y-139437460D01*
X70038395Y-139481812D01*
X70038407Y-139489759D01*
X70038407Y-139585150D01*
X69997823Y-139599298D01*
X69957097Y-139607465D01*
X69900680Y-139611347D01*
X69838281Y-139611018D01*
X69779612Y-139606550D01*
X69734384Y-139598015D01*
X69732095Y-139597307D01*
X69680919Y-139568836D01*
X69635613Y-139521544D01*
X69601828Y-139462382D01*
X69588757Y-139421009D01*
X69583835Y-139384998D01*
X69579647Y-139329444D01*
X69576512Y-139260578D01*
X69574749Y-139184629D01*
X69574480Y-139142441D01*
X69574480Y-138930442D01*
X69431595Y-138930442D01*
X69435382Y-138837012D01*
X69439168Y-138743582D01*
X69574480Y-138735792D01*
X69574480Y-138557814D01*
X69667910Y-138530799D01*
X69719326Y-138515747D01*
X69765851Y-138501808D01*
X69797758Y-138491899D01*
X69798701Y-138491592D01*
X69826367Y-138482997D01*
X69840567Y-138479402D01*
X69840583Y-138479402D01*
X69842481Y-138491379D01*
G37*
G36*
X67566069Y-138983298D02*
G01*
X67606259Y-138908959D01*
X67666318Y-138838994D01*
X67666491Y-138838824D01*
X67737088Y-138780320D01*
X67811167Y-138743093D01*
X67895380Y-138724525D01*
X67965269Y-138721235D01*
X68067996Y-138731126D01*
X68154195Y-138759812D01*
X68225611Y-138807910D01*
X68234765Y-138816457D01*
X68281768Y-138869860D01*
X68314382Y-138927483D01*
X68334960Y-138995525D01*
X68345857Y-139080184D01*
X68347784Y-139114079D01*
X68353226Y-139239726D01*
X67792872Y-139239726D01*
X67800593Y-139278332D01*
X67824529Y-139340132D01*
X67868891Y-139386346D01*
X67896721Y-139402824D01*
X67949608Y-139418966D01*
X68017601Y-139425468D01*
X68091965Y-139422489D01*
X68163966Y-139410183D01*
X68205251Y-139397300D01*
X68272907Y-139371071D01*
X68272907Y-139559475D01*
X68211694Y-139581492D01*
X68162886Y-139593690D01*
X68097930Y-139602636D01*
X68024518Y-139608044D01*
X67950338Y-139609627D01*
X67883081Y-139607102D01*
X67830437Y-139600183D01*
X67815424Y-139596198D01*
X67744838Y-139568270D01*
X67689671Y-139534213D01*
X67639572Y-139487349D01*
X67629790Y-139476467D01*
X67582913Y-139409047D01*
X67552683Y-139330404D01*
X67537831Y-139236395D01*
X67535786Y-139169144D01*
X67542091Y-139085084D01*
X67792872Y-139085084D01*
X68105378Y-139085084D01*
X68105330Y-139043202D01*
X68094246Y-138987557D01*
X68064666Y-138941860D01*
X68021888Y-138909907D01*
X67971212Y-138895492D01*
X67917939Y-138902411D01*
X67911958Y-138904716D01*
X67866798Y-138934949D01*
X67828096Y-138981221D01*
X67803564Y-139033828D01*
X67801033Y-139044278D01*
X67792872Y-139085084D01*
X67542091Y-139085084D01*
X67543371Y-139068023D01*
X67566069Y-138983298D01*
G37*
G36*
X95709031Y-138737139D02*
G01*
X95709031Y-138871374D01*
X95763800Y-138817753D01*
X95823083Y-138768788D01*
X95884330Y-138739327D01*
X95955912Y-138726090D01*
X96001793Y-138724535D01*
X96094496Y-138735094D01*
X96172717Y-138766617D01*
X96237583Y-138819847D01*
X96290222Y-138895527D01*
X96304388Y-138923998D01*
X96317437Y-138955579D01*
X96326023Y-138987000D01*
X96331020Y-139024791D01*
X96333303Y-139075481D01*
X96333752Y-139143075D01*
X96332885Y-139214128D01*
X96329962Y-139266540D01*
X96324034Y-139307420D01*
X96314155Y-139343876D01*
X96302911Y-139374277D01*
X96262249Y-139449888D01*
X96206650Y-139516097D01*
X96141900Y-139566995D01*
X96089666Y-139591960D01*
X96009824Y-139609777D01*
X95929370Y-139611084D01*
X95854444Y-139596872D01*
X95791185Y-139568133D01*
X95755359Y-139537944D01*
X95734076Y-139517880D01*
X95719920Y-139510350D01*
X95716486Y-139522568D01*
X95713497Y-139556547D01*
X95711136Y-139608277D01*
X95709586Y-139673746D01*
X95709031Y-139748757D01*
X95709031Y-139987164D01*
X95451294Y-139987164D01*
X95451294Y-139190397D01*
X95709770Y-139190397D01*
X95719215Y-139259408D01*
X95737990Y-139320669D01*
X95764895Y-139366958D01*
X95777042Y-139379154D01*
X95827884Y-139405677D01*
X95887189Y-139412793D01*
X95946305Y-139400364D01*
X95979655Y-139382366D01*
X96021657Y-139340790D01*
X96049469Y-139284193D01*
X96064679Y-139208906D01*
X96067150Y-139180169D01*
X96066062Y-139098350D01*
X96052388Y-139029609D01*
X96027273Y-138977902D01*
X96001351Y-138952507D01*
X95940904Y-138926641D01*
X95878923Y-138923894D01*
X95820270Y-138942420D01*
X95769810Y-138980369D01*
X95732405Y-139035896D01*
X95723671Y-139058012D01*
X95710856Y-139120857D01*
X95709770Y-139190397D01*
X95451294Y-139190397D01*
X95451294Y-138737139D01*
X95709031Y-138737139D01*
G37*
G36*
X97989043Y-139063426D02*
G01*
X97995996Y-139021596D01*
X98007277Y-138983840D01*
X98012877Y-138969102D01*
X98060426Y-138877345D01*
X98121631Y-138807410D01*
X98196743Y-138759108D01*
X98286010Y-138732248D01*
X98331105Y-138727091D01*
X98412123Y-138726926D01*
X98475943Y-138739435D01*
X98528758Y-138766470D01*
X98564321Y-138796839D01*
X98608574Y-138841093D01*
X98608574Y-138737139D01*
X98867799Y-138737139D01*
X98863833Y-139197844D01*
X98862701Y-139323967D01*
X98861424Y-139427255D01*
X98859602Y-139510645D01*
X98856835Y-139577075D01*
X98852724Y-139629481D01*
X98846870Y-139670802D01*
X98838873Y-139703975D01*
X98828334Y-139731937D01*
X98814852Y-139757626D01*
X98798030Y-139783978D01*
X98780678Y-139809277D01*
X98735371Y-139859055D01*
X98672957Y-139906351D01*
X98601905Y-139945506D01*
X98544140Y-139967281D01*
X98477744Y-139981248D01*
X98397082Y-139990473D01*
X98312633Y-139994379D01*
X98234880Y-139992390D01*
X98188328Y-139986876D01*
X98128922Y-139975594D01*
X98090344Y-139964149D01*
X98068099Y-139947587D01*
X98057691Y-139920952D01*
X98054625Y-139879287D01*
X98054439Y-139839284D01*
X98054875Y-139789701D01*
X98056038Y-139751754D01*
X98057713Y-139731352D01*
X98058462Y-139729427D01*
X98071409Y-139734505D01*
X98099325Y-139747302D01*
X98113578Y-139754112D01*
X98188416Y-139781410D01*
X98270984Y-139797165D01*
X98350473Y-139799823D01*
X98393030Y-139794308D01*
X98471832Y-139768747D01*
X98530775Y-139728906D01*
X98571774Y-139672547D01*
X98596745Y-139597434D01*
X98604322Y-139547498D01*
X98612595Y-139468347D01*
X98555816Y-139525047D01*
X98487516Y-139576120D01*
X98409225Y-139606180D01*
X98325809Y-139615270D01*
X98242136Y-139603438D01*
X98163073Y-139570728D01*
X98097070Y-139520755D01*
X98050960Y-139469230D01*
X98018618Y-139415962D01*
X97998062Y-139355098D01*
X97987307Y-139280783D01*
X97984367Y-139188179D01*
X97984667Y-139168832D01*
X98248229Y-139168832D01*
X98253743Y-139239405D01*
X98269699Y-139304237D01*
X98295184Y-139356203D01*
X98315754Y-139379154D01*
X98366560Y-139405640D01*
X98425976Y-139412783D01*
X98485396Y-139400421D01*
X98518366Y-139382959D01*
X98543755Y-139357966D01*
X98570441Y-139320779D01*
X98580346Y-139303406D01*
X98595874Y-139269158D01*
X98604320Y-139235546D01*
X98607141Y-139193464D01*
X98606119Y-139142057D01*
X98602869Y-139086607D01*
X98596820Y-139048728D01*
X98585833Y-139020227D01*
X98567767Y-138992909D01*
X98566834Y-138991682D01*
X98519026Y-138946861D01*
X98464522Y-138924546D01*
X98407800Y-138924018D01*
X98353341Y-138944559D01*
X98305621Y-138985451D01*
X98272180Y-139038967D01*
X98254071Y-139099645D01*
X98248229Y-139168832D01*
X97984667Y-139168832D01*
X97985480Y-139116547D01*
X97989043Y-139063426D01*
G37*
G36*
X94748232Y-139023871D02*
G01*
X94773383Y-139106790D01*
X94796276Y-139182474D01*
X94815758Y-139247094D01*
X94830675Y-139296820D01*
X94839875Y-139327821D01*
X94842077Y-139335496D01*
X94848214Y-139334796D01*
X94859887Y-139310950D01*
X94876343Y-139265811D01*
X94896828Y-139201229D01*
X94897143Y-139200184D01*
X94921504Y-139119936D01*
X94949121Y-139029802D01*
X94976088Y-138942499D01*
X94992899Y-138888559D01*
X95040346Y-138737139D01*
X95168499Y-138737139D01*
X95222431Y-138737940D01*
X95265166Y-138740099D01*
X95291234Y-138743251D01*
X95296651Y-138745713D01*
X95292146Y-138761233D01*
X95279425Y-138797634D01*
X95259682Y-138851805D01*
X95234112Y-138920630D01*
X95203909Y-139000999D01*
X95170267Y-139089797D01*
X95134379Y-139183912D01*
X95097440Y-139280230D01*
X95060644Y-139375639D01*
X95025184Y-139467025D01*
X94992255Y-139551276D01*
X94963051Y-139625277D01*
X94938766Y-139685918D01*
X94920594Y-139730083D01*
X94909728Y-139754661D01*
X94909459Y-139755201D01*
X94858929Y-139838633D01*
X94800708Y-139906144D01*
X94738781Y-139953287D01*
X94725660Y-139960193D01*
X94668108Y-139979646D01*
X94597312Y-139991594D01*
X94525060Y-139994679D01*
X94471892Y-139989432D01*
X94426788Y-139980721D01*
X94419306Y-139768331D01*
X94452882Y-139781096D01*
X94520210Y-139795718D01*
X94579845Y-139785892D01*
X94631064Y-139751985D01*
X94673139Y-139694364D01*
X94688333Y-139662159D01*
X94717296Y-139592282D01*
X94548339Y-139180819D01*
X94508419Y-139083604D01*
X94471478Y-138993651D01*
X94438691Y-138913823D01*
X94411234Y-138846978D01*
X94390281Y-138795978D01*
X94377007Y-138763681D01*
X94372712Y-138753247D01*
X94375810Y-138745995D01*
X94394286Y-138741142D01*
X94431264Y-138738330D01*
X94489869Y-138737202D01*
X94513592Y-138737139D01*
X94661144Y-138737139D01*
X94748232Y-139023871D01*
G37*
D13*
%TO.C,J4*%
X54680000Y-82990000D02*
X63830000Y-82990000D01*
X63830000Y-74490000D02*
X54680000Y-74490000D01*
X54680000Y-82990000D02*
X54680000Y-74490000D01*
X63830000Y-74490000D02*
X63830000Y-82990000D01*
%TO.C,R3*%
X72900000Y-84626267D02*
X72900000Y-84283733D01*
X71880000Y-84626267D02*
X71880000Y-84283733D01*
%TO.C,R12*%
X93808733Y-87755000D02*
X94151267Y-87755000D01*
X93808733Y-88775000D02*
X94151267Y-88775000D01*
%TO.C,R15*%
X93808733Y-76960000D02*
X94151267Y-76960000D01*
X93808733Y-77980000D02*
X94151267Y-77980000D01*
%TO.C,R7*%
X78230000Y-68356267D02*
X78230000Y-68013733D01*
X79250000Y-68356267D02*
X79250000Y-68013733D01*
%TO.C,R19*%
X81578267Y-126363000D02*
X81235733Y-126363000D01*
X81578267Y-127383000D02*
X81235733Y-127383000D01*
%TO.C,R21*%
X77510000Y-124296267D02*
X77510000Y-123953733D01*
X76490000Y-124296267D02*
X76490000Y-123953733D01*
%TO.C,U2*%
X83185000Y-50165000D02*
X84455000Y-50165000D01*
X76835000Y-50197618D02*
X76200000Y-49562618D01*
X84455000Y-50165000D02*
X83820000Y-49530000D01*
X83820000Y-49530000D02*
X83185000Y-50165000D01*
X88886297Y-62265959D02*
X88251297Y-61630959D01*
X88251297Y-62265959D02*
X89521297Y-62265959D01*
X85725000Y-49530000D02*
X86995000Y-49530000D01*
X85725000Y-50165000D02*
X86995000Y-50165000D01*
X75565000Y-50197618D02*
X76835000Y-50197618D01*
X83185000Y-49530000D02*
X84455000Y-49530000D01*
X86360000Y-49530000D02*
X85725000Y-50165000D01*
X89521297Y-61630959D02*
X88886297Y-62265959D01*
X86995000Y-50165000D02*
X86360000Y-49530000D01*
X76200000Y-49562618D02*
X75565000Y-50197618D01*
X75565000Y-49562618D02*
X76835000Y-49562618D01*
X88251297Y-61630959D02*
X89521297Y-61630959D01*
X107700000Y-46380000D02*
X57400000Y-46380000D01*
X57400000Y-46380000D02*
X57400000Y-65380000D01*
X57400000Y-65380000D02*
X107700000Y-65380000D01*
X107700000Y-65380000D02*
X107700000Y-46380000D01*
%TO.C,R9*%
X90930000Y-68356267D02*
X90930000Y-68013733D01*
X91950000Y-68356267D02*
X91950000Y-68013733D01*
%TO.C,SW1*%
X58130000Y-87315000D02*
X52130000Y-87315000D01*
X63500000Y-88265000D02*
X62230000Y-88265000D01*
X60790000Y-83125000D02*
X58130000Y-83125000D01*
X52130000Y-86615000D02*
X58130000Y-86615000D01*
X58130000Y-88325000D02*
X60790000Y-88325000D01*
X58130000Y-83125000D02*
X58130000Y-88325000D01*
X60790000Y-88325000D02*
X60790000Y-83125000D01*
X61187071Y-84075000D02*
X60790000Y-84075000D01*
X52130000Y-87375000D02*
X52130000Y-86615000D01*
X52130000Y-84075000D02*
X58130000Y-84075000D01*
X58130000Y-87075000D02*
X52130000Y-87075000D01*
X52130000Y-84835000D02*
X52130000Y-84075000D01*
X58130000Y-86835000D02*
X52130000Y-86835000D01*
X60790000Y-85725000D02*
X58130000Y-85725000D01*
X58130000Y-86955000D02*
X52130000Y-86955000D01*
X61120000Y-86615000D02*
X60790000Y-86615000D01*
X61120000Y-87375000D02*
X60790000Y-87375000D01*
X63500000Y-86995000D02*
X63500000Y-88265000D01*
X58130000Y-84835000D02*
X52130000Y-84835000D01*
X61187071Y-84835000D02*
X60790000Y-84835000D01*
X58130000Y-87375000D02*
X52130000Y-87375000D01*
X58130000Y-86715000D02*
X52130000Y-86715000D01*
X58130000Y-87195000D02*
X52130000Y-87195000D01*
%TO.C,C2*%
X85650000Y-125722748D02*
X85650000Y-126245252D01*
X87070000Y-125722748D02*
X87070000Y-126245252D01*
%TO.C,J3*%
X58130000Y-73720000D02*
X60790000Y-73720000D01*
X52130000Y-69470000D02*
X58130000Y-69470000D01*
X58130000Y-72710000D02*
X52130000Y-72710000D01*
X52130000Y-72010000D02*
X58130000Y-72010000D01*
X60790000Y-71120000D02*
X58130000Y-71120000D01*
X61120000Y-72010000D02*
X60790000Y-72010000D01*
X63500000Y-72390000D02*
X63500000Y-73660000D01*
X60790000Y-73720000D02*
X60790000Y-68520000D01*
X61120000Y-72770000D02*
X60790000Y-72770000D01*
X58130000Y-68520000D02*
X58130000Y-73720000D01*
X58130000Y-72350000D02*
X52130000Y-72350000D01*
X58130000Y-72110000D02*
X52130000Y-72110000D01*
X61187071Y-69470000D02*
X60790000Y-69470000D01*
X58130000Y-72470000D02*
X52130000Y-72470000D01*
X63500000Y-73660000D02*
X62230000Y-73660000D01*
X60790000Y-68520000D02*
X58130000Y-68520000D01*
X58130000Y-72230000D02*
X52130000Y-72230000D01*
X52130000Y-70230000D02*
X52130000Y-69470000D01*
X58130000Y-72590000D02*
X52130000Y-72590000D01*
X61187071Y-70230000D02*
X60790000Y-70230000D01*
X58130000Y-70230000D02*
X52130000Y-70230000D01*
X58130000Y-72770000D02*
X52130000Y-72770000D01*
X52130000Y-72770000D02*
X52130000Y-72010000D01*
%TO.C,R4*%
X89410000Y-68356267D02*
X89410000Y-68013733D01*
X88390000Y-68356267D02*
X88390000Y-68013733D01*
%TO.C,R8*%
X75690000Y-68356267D02*
X75690000Y-68013733D01*
X76710000Y-68356267D02*
X76710000Y-68013733D01*
%TO.C,U3*%
X80550000Y-125750000D02*
X82350000Y-125750000D01*
X82350000Y-122530000D02*
X79900000Y-122530000D01*
%TO.C,C1*%
X90680000Y-105581267D02*
X90680000Y-105238733D01*
X89660000Y-105581267D02*
X89660000Y-105238733D01*
%TO.C,R10*%
X86870000Y-68356267D02*
X86870000Y-68013733D01*
X85850000Y-68356267D02*
X85850000Y-68013733D01*
%TO.C,R1*%
X72265000Y-73196267D02*
X72265000Y-72853733D01*
X71245000Y-73196267D02*
X71245000Y-72853733D01*
%TO.C,C3*%
X81108733Y-121922000D02*
X81451267Y-121922000D01*
X81108733Y-120902000D02*
X81451267Y-120902000D01*
%TO.C,D1*%
X92120000Y-84130000D02*
X92120000Y-86050000D01*
X92120000Y-86050000D02*
X94980000Y-86050000D01*
X94980000Y-84130000D02*
X92120000Y-84130000D01*
%TO.C,SW3*%
X80430000Y-88410000D02*
X76330000Y-88410000D01*
X88530000Y-86010000D02*
X88530000Y-88410000D01*
X74930000Y-78710000D02*
X74630000Y-78410000D01*
X81930000Y-82510000D02*
X82930000Y-82510000D01*
X88530000Y-81210000D02*
X88530000Y-83810000D01*
X82430000Y-82010000D02*
X82430000Y-83010000D01*
X76330000Y-76610000D02*
X76330000Y-88410000D01*
X88530000Y-88410000D02*
X84430000Y-88410000D01*
X74630000Y-78410000D02*
X75230000Y-78410000D01*
X75230000Y-78410000D02*
X74930000Y-78710000D01*
X88530000Y-76610000D02*
X88530000Y-79010000D01*
X84430000Y-76610000D02*
X88530000Y-76610000D01*
X80430000Y-76610000D02*
X76330000Y-76610000D01*
X85430000Y-82510000D02*
G75*
G03*
X85430000Y-82510000I-3000000J0D01*
G01*
%TO.C,R11*%
X81790000Y-68356267D02*
X81790000Y-68013733D01*
X80770000Y-68356267D02*
X80770000Y-68013733D01*
%TO.C,R6*%
X84330000Y-68356267D02*
X84330000Y-68013733D01*
X83310000Y-68356267D02*
X83310000Y-68013733D01*
%TO.C,R14*%
X93808733Y-82040000D02*
X94151267Y-82040000D01*
X93808733Y-83060000D02*
X94151267Y-83060000D01*
%TO.C,C4*%
X99823748Y-121210000D02*
X100346252Y-121210000D01*
X99823748Y-122630000D02*
X100346252Y-122630000D01*
%TO.C,L1*%
X88810000Y-126690000D02*
X96610000Y-126690000D01*
X96610000Y-119690000D02*
X96610000Y-121190000D01*
X96610000Y-126690000D02*
X96610000Y-125190000D01*
X88810000Y-119690000D02*
X96610000Y-119690000D01*
X88810000Y-121190000D02*
X88810000Y-119690000D01*
X88810000Y-125190000D02*
X88810000Y-126690000D01*
%TO.C,R20*%
X81108733Y-118870000D02*
X81451267Y-118870000D01*
X81108733Y-119890000D02*
X81451267Y-119890000D01*
%TO.C,D2*%
X94980000Y-79050000D02*
X92120000Y-79050000D01*
X92120000Y-79050000D02*
X92120000Y-80970000D01*
X92120000Y-80970000D02*
X94980000Y-80970000D01*
%TO.C,R5*%
X93470000Y-68356267D02*
X93470000Y-68013733D01*
X94490000Y-68356267D02*
X94490000Y-68013733D01*
%TO.C,D3*%
X84598000Y-122012000D02*
X84598000Y-118112000D01*
X86598000Y-122012000D02*
X86598000Y-118112000D01*
X84598000Y-122012000D02*
X86598000Y-122012000D01*
%TO.C,R2*%
X71880000Y-80816267D02*
X71880000Y-80473733D01*
X72900000Y-80816267D02*
X72900000Y-80473733D01*
%TO.C,U1*%
X78125000Y-105345000D02*
X78125000Y-103395000D01*
X88245000Y-105345000D02*
X88245000Y-101895000D01*
X78125000Y-105345000D02*
X78125000Y-107295000D01*
X88245000Y-105345000D02*
X88245000Y-107295000D01*
%TD*%
M02*
